<?xml version="1.0" encoding="UTF-8"?>
<svg xmlns="http://www.w3.org/2000/svg" xmlns:xlink="http://www.w3.org/1999/xlink" width="137px" height="100px" viewBox="0 0 136 100" version="1.1">
<g id="surface1">
<path style=" stroke:none;fill-rule:evenodd;fill:rgb(4.705882%,23.529412%,54.901963%);fill-opacity:1;" d="M 75.996094 2.402344 L 72.804688 4.808594 L 72.804688 34.285156 L 73.992188 34.261719 L 73.976562 32.617188 L 73.957031 30.972656 L 76.597656 30.988281 L 79.234375 31 L 79.242188 15.5 C 79.25 6.976562 79.238281 0 79.21875 0 C 79.199219 0 77.75 1.082031 75.996094 2.402344 M 32.605469 26.675781 C 31.035156 26.828125 29.496094 27.496094 28.101562 28.625 C 27.640625 29 26.820312 29.828125 26.433594 30.308594 C 26.296875 30.480469 22.449219 35.644531 17.886719 41.785156 C 13.324219 47.925781 7.433594 55.855469 4.792969 59.40625 L -0.0117188 65.867188 L 4.1875 65.894531 C 6.496094 65.914062 11.796875 65.921875 15.972656 65.917969 L 23.5625 65.90625 L 31.125 55.875 L 26.796875 55.84375 C 24.414062 55.828125 22.347656 55.808594 22.203125 55.800781 L 21.9375 55.789062 L 22.882812 54.496094 C 23.398438 53.78125 25.945312 50.273438 28.539062 46.699219 C 31.128906 43.121094 33.265625 40.183594 33.277344 40.164062 C 33.292969 40.148438 34.332031 41.648438 35.585938 43.5 C 36.839844 45.351562 37.878906 46.863281 37.894531 46.863281 C 37.917969 46.863281 45.191406 37.238281 45.210938 37.171875 C 45.226562 37.128906 41.074219 31.070312 40.679688 30.566406 C 40.234375 29.996094 39.328125 29.085938 38.769531 28.652344 C 36.859375 27.160156 34.71875 26.472656 32.605469 26.675781 M 56.539062 44.230469 L 56.539062 45.738281 L 58.027344 45.726562 L 59.511719 45.714844 L 59.523438 44.21875 L 59.535156 42.726562 L 56.539062 42.726562 L 56.539062 44.230469 M 60.28125 44.230469 L 60.28125 45.734375 L 63.277344 45.734375 L 63.277344 42.726562 L 60.28125 42.726562 L 60.28125 44.230469 M 56.539062 48.371094 L 56.539062 49.875 L 58.027344 49.863281 L 59.511719 49.855469 L 59.535156 46.863281 L 56.539062 46.863281 L 56.539062 48.371094 M 60.292969 48.359375 L 60.304688 49.855469 L 61.789062 49.863281 L 63.277344 49.875 L 63.277344 46.863281 L 60.28125 46.863281 L 60.292969 48.359375 M 49.648438 53.835938 C 47.710938 56.613281 46.121094 58.917969 46.117188 58.957031 C 46.117188 58.996094 47.164062 60.582031 48.445312 62.476562 L 50.777344 65.925781 L 57.878906 65.925781 C 61.785156 65.925781 64.984375 65.917969 64.984375 65.910156 C 64.984375 65.894531 60.808594 59.8125 54.789062 51.058594 C 53.933594 49.8125 53.21875 48.789062 53.203125 48.789062 C 53.191406 48.789062 51.589844 51.058594 49.648438 53.835938 M 125.085938 54.667969 C 125.070312 54.683594 125.058594 56.261719 125.058594 58.171875 L 125.058594 61.648438 L 126.011719 63.335938 C 126.539062 64.261719 127.078125 65.226562 127.210938 65.472656 L 127.449219 65.925781 L 127.8125 65.925781 L 128.179688 65.929688 L 128.1875 62.980469 L 128.199219 60.03125 L 130.550781 62.980469 L 132.902344 65.925781 L 134.449219 65.925781 L 136 65.929688 L 136 54.640625 L 132.921875 54.640625 L 132.910156 57.652344 L 132.902344 60.664062 L 130.589844 57.769531 C 129.320312 56.179688 128.246094 54.824219 128.207031 54.757812 L 128.128906 54.640625 L 126.621094 54.640625 C 125.792969 54.640625 125.101562 54.652344 125.085938 54.667969 M 118.171875 54.742188 C 117.75 54.875 117.359375 55.164062 117.015625 55.589844 C 116.804688 55.855469 116.128906 56.910156 115.136719 58.527344 C 114.90625 58.90625 114.46875 59.605469 114.171875 60.074219 C 113.585938 61 111.015625 65.09375 110.71875 65.570312 C 110.621094 65.730469 110.539062 65.875 110.539062 65.894531 C 110.539062 65.914062 111.347656 65.925781 112.335938 65.917969 L 114.136719 65.90625 L 116.402344 62.28125 C 118.53125 58.875 118.675781 58.660156 118.738281 58.726562 C 118.777344 58.765625 119.070312 59.242188 119.390625 59.78125 C 119.707031 60.324219 120.28125 61.277344 120.664062 61.90625 C 121.042969 62.53125 121.355469 63.054688 121.355469 63.070312 C 121.355469 63.082031 120.425781 63.082031 119.285156 63.066406 L 117.214844 63.039062 L 117.011719 63.386719 C 116.898438 63.578125 116.507812 64.195312 116.140625 64.757812 C 115.777344 65.320312 115.46875 65.816406 115.457031 65.855469 C 115.4375 65.925781 115.730469 65.929688 121.101562 65.929688 L 126.765625 65.929688 L 126.699219 65.796875 C 126.558594 65.527344 123.230469 60.046875 120.757812 56.027344 C 120.175781 55.078125 119.570312 54.679688 118.71875 54.683594 C 118.511719 54.6875 118.265625 54.710938 118.171875 54.742188 M 87.058594 54.890625 C 86.5 54.992188 85.921875 55.328125 85.480469 55.8125 C 85.320312 55.988281 84.242188 57.5 82.996094 59.296875 L 80.792969 62.472656 L 80.792969 65.929688 L 82.476562 65.929688 L 84.910156 62.414062 C 87.246094 59.042969 87.347656 58.902344 87.40625 58.992188 C 87.441406 59.042969 88.507812 60.617188 89.777344 62.496094 L 92.089844 65.90625 L 94.242188 65.917969 C 95.425781 65.925781 96.394531 65.917969 96.394531 65.90625 C 96.394531 65.894531 94.84375 63.660156 92.953125 60.941406 C 89.265625 55.648438 89.199219 55.558594 88.613281 55.214844 C 88.136719 54.933594 87.527344 54.808594 87.058594 54.890625 M 97.851562 60.390625 L 97.851562 65.929688 L 100.84375 65.929688 L 100.855469 63.503906 L 100.867188 61.082031 L 102.707031 63.503906 L 104.550781 65.929688 L 106.253906 65.929688 C 107.191406 65.929688 107.960938 65.917969 107.960938 65.910156 C 107.960938 65.898438 107.050781 64.695312 105.941406 63.234375 C 104.832031 61.769531 103.902344 60.539062 103.875 60.496094 C 103.832031 60.429688 104.089844 60.070312 105.914062 57.65625 C 107.0625 56.136719 108 54.882812 108 54.871094 C 108 54.859375 107.222656 54.851562 106.265625 54.859375 L 104.53125 54.871094 L 102.699219 57.296875 L 100.867188 59.71875 L 100.855469 57.285156 L 100.84375 54.847656 L 97.851562 54.847656 L 97.851562 60.390625 M 110.746094 56.792969 L 110.746094 58.738281 L 108.574219 58.742188 C 107.378906 58.746094 106.261719 58.761719 106.089844 58.773438 L 105.78125 58.800781 L 105.167969 59.613281 C 104.816406 60.074219 104.566406 60.445312 104.582031 60.472656 C 104.597656 60.5 104.804688 60.777344 105.042969 61.09375 L 105.476562 61.664062 L 110.746094 61.664062 L 110.769531 64.359375 L 112.183594 61.957031 L 113.597656 59.550781 L 113.621094 54.847656 L 110.746094 54.847656 L 110.746094 56.792969 M 58.476562 54.941406 C 58.496094 54.972656 58.9375 55.621094 59.464844 56.386719 L 60.417969 57.777344 L 64.753906 57.777344 C 68.609375 57.777344 69.109375 57.785156 69.28125 57.84375 C 69.519531 57.925781 69.867188 58.230469 69.984375 58.460938 C 70.085938 58.660156 70.128906 59.105469 70.070312 59.324219 L 70.03125 59.472656 L 71.050781 60.597656 C 71.613281 61.21875 72.089844 61.730469 72.117188 61.738281 C 72.191406 61.757812 72.664062 61.34375 72.886719 61.066406 C 73.550781 60.242188 73.804688 58.945312 73.515625 57.832031 C 73.394531 57.359375 73.304688 57.160156 73.011719 56.730469 C 72.417969 55.859375 71.628906 55.285156 70.652344 55.003906 L 70.328125 54.914062 L 64.386719 54.902344 C 59.585938 54.890625 58.453125 54.898438 58.476562 54.941406 M 73.390625 55.214844 C 74.464844 56.367188 74.9375 57.59375 74.867188 59.03125 C 74.851562 59.316406 74.832031 59.609375 74.820312 59.679688 C 74.800781 59.789062 74.886719 59.933594 75.546875 60.886719 L 76.300781 61.972656 L 76.300781 65.929688 L 79.667969 65.929688 L 79.667969 61.949219 L 82.082031 58.464844 C 83.410156 56.550781 84.496094 54.972656 84.496094 54.957031 C 84.496094 54.945312 83.621094 54.933594 82.550781 54.933594 L 80.605469 54.9375 L 79.296875 57.082031 C 78.574219 58.261719 77.980469 59.222656 77.972656 59.21875 C 77.964844 59.210938 77.371094 58.25 76.65625 57.082031 L 75.351562 54.953125 L 74.238281 54.941406 L 73.128906 54.933594 L 73.390625 55.214844 M 62.167969 60.296875 C 62.179688 60.328125 62.597656 60.949219 63.097656 61.675781 L 64.007812 63 L 67.210938 63.007812 L 68.46875 64.46875 L 69.730469 65.929688 L 70.902344 65.929688 C 71.546875 65.929688 72.566406 65.914062 73.167969 65.902344 L 74.257812 65.871094 L 74.1875 65.78125 C 74.148438 65.730469 73.003906 64.464844 71.648438 62.964844 L 69.179688 60.242188 L 65.664062 60.242188 C 62.765625 60.242188 62.148438 60.253906 62.167969 60.296875 M 0 69.085938 L 0 71.027344 L 68.011719 71.019531 L 136.019531 71.007812 L 136.03125 69.0625 L 136.042969 67.121094 L 68.019531 67.128906 L 0 67.140625 L 0 69.085938 M 0.0195312 69.085938 C 0.0195312 70.164062 0.0234375 70.613281 0.03125 70.082031 C 0.0390625 69.546875 0.0390625 68.664062 0.03125 68.117188 C 0.0234375 67.566406 0.0195312 68.003906 0.0195312 69.085938 M 2.164062 69.085938 L 2.164062 69.398438 L 6.367188 69.398438 L 6.367188 68.769531 L 2.164062 68.769531 L 2.164062 69.085938 M 11.273438 69.085938 L 11.273438 69.398438 L 15.476562 69.398438 L 15.476562 68.769531 L 11.273438 68.769531 L 11.273438 69.085938 M 20.34375 69.085938 L 20.34375 69.398438 L 24.585938 69.398438 L 24.585938 68.769531 L 20.34375 68.769531 L 20.34375 69.085938 M 29.453125 69.085938 L 29.453125 69.398438 L 33.699219 69.398438 L 33.699219 68.769531 L 29.453125 68.769531 L 29.453125 69.085938 M 38.566406 69.085938 L 38.566406 69.398438 L 42.769531 69.398438 L 42.769531 68.769531 L 38.566406 68.769531 L 38.566406 69.085938 M 47.675781 69.085938 L 47.675781 69.398438 L 51.878906 69.398438 L 51.878906 68.769531 L 47.675781 68.769531 L 47.675781 69.085938 M 56.789062 69.085938 L 56.789062 69.398438 L 60.988281 69.398438 L 60.988281 68.769531 L 56.789062 68.769531 L 56.789062 69.085938 M 65.898438 69.085938 L 65.898438 69.398438 L 70.101562 69.398438 L 70.101562 68.769531 L 65.898438 68.769531 L 65.898438 69.085938 M 75.011719 69.085938 L 75.011719 69.398438 L 79.210938 69.398438 L 79.210938 68.769531 L 75.011719 68.769531 L 75.011719 69.085938 M 84.121094 69.085938 L 84.121094 69.398438 L 88.324219 69.398438 L 88.324219 68.769531 L 84.121094 68.769531 L 84.121094 69.085938 M 93.230469 69.085938 L 93.230469 69.398438 L 97.433594 69.398438 L 97.433594 68.769531 L 93.230469 68.769531 L 93.230469 69.085938 M 102.34375 69.085938 L 102.34375 69.398438 L 106.546875 69.398438 L 106.546875 68.769531 L 102.34375 68.769531 L 102.34375 69.085938 M 111.414062 69.085938 L 111.414062 69.398438 L 115.65625 69.398438 L 115.65625 68.769531 L 111.414062 68.769531 L 111.414062 69.085938 M 120.523438 69.085938 L 120.523438 69.398438 L 124.726562 69.398438 L 124.726562 68.769531 L 120.523438 68.769531 L 120.523438 69.085938 M 129.632812 69.085938 L 129.632812 69.398438 L 133.835938 69.398438 L 133.835938 68.769531 L 129.632812 68.769531 L 129.632812 69.085938 M 6.714844 72.28125 C 6.269531 72.375 5.964844 72.597656 5.796875 72.941406 L 5.679688 73.179688 L 5.679688 74.75 C 5.679688 76.191406 5.683594 76.332031 5.757812 76.523438 C 5.914062 76.925781 6.296875 77.222656 6.75 77.285156 C 7.007812 77.320312 7.261719 77.234375 7.464844 77.046875 L 7.644531 76.882812 L 7.683594 77.015625 L 7.71875 77.152344 L 8.125 77.164062 L 8.527344 77.175781 L 8.527344 74.582031 L 7.074219 74.582031 L 7.074219 75.335938 L 7.320312 75.335938 L 7.320312 75.722656 C 7.320312 75.933594 7.300781 76.179688 7.277344 76.265625 C 7.238281 76.414062 7.222656 76.425781 7.101562 76.414062 C 7.003906 76.402344 6.964844 76.375 6.941406 76.296875 C 6.898438 76.128906 6.902344 73.347656 6.945312 73.226562 C 6.976562 73.148438 7.019531 73.117188 7.09375 73.117188 C 7.242188 73.117188 7.28125 73.25 7.28125 73.75 L 7.28125 74.164062 L 8.539062 74.164062 L 8.515625 73.695312 C 8.503906 73.433594 8.472656 73.148438 8.445312 73.054688 C 8.375 72.820312 8.023438 72.484375 7.726562 72.375 C 7.460938 72.273438 6.964844 72.226562 6.714844 72.28125 M 23.921875 72.296875 C 23.46875 72.402344 23.171875 72.632812 23 73.015625 C 22.902344 73.21875 22.902344 73.246094 22.902344 74.769531 C 22.902344 76.3125 22.902344 76.316406 23 76.539062 C 23.128906 76.824219 23.429688 77.09375 23.71875 77.1875 C 24.535156 77.453125 25.320312 77.191406 25.636719 76.554688 C 25.730469 76.359375 25.730469 76.34375 25.730469 74.832031 C 25.730469 73.019531 25.730469 73.007812 25.375 72.652344 C 25.195312 72.472656 25.089844 72.398438 24.917969 72.347656 C 24.601562 72.253906 24.191406 72.234375 23.921875 72.296875 M 34.667969 72.28125 C 34.054688 72.414062 33.699219 72.773438 33.617188 73.351562 C 33.5625 73.722656 33.5625 75.714844 33.617188 76.128906 C 33.71875 76.914062 34.152344 77.265625 35.03125 77.273438 C 35.492188 77.277344 35.761719 77.199219 36.046875 76.980469 C 36.398438 76.710938 36.523438 76.339844 36.527344 75.574219 L 36.527344 75.25 L 35.292969 75.25 L 35.269531 75.761719 C 35.253906 76.042969 35.230469 76.308594 35.214844 76.347656 C 35.179688 76.445312 34.925781 76.449219 34.886719 76.355469 C 34.875 76.320312 34.863281 75.597656 34.863281 74.75 C 34.863281 73.074219 34.859375 73.097656 35.101562 73.125 C 35.203125 73.136719 35.21875 73.160156 35.246094 73.328125 C 35.261719 73.429688 35.273438 73.738281 35.277344 74.007812 L 35.277344 74.5 L 35.894531 74.488281 L 36.507812 74.476562 L 36.519531 74.058594 C 36.53125 73.566406 36.472656 73.132812 36.363281 72.914062 C 36.25 72.691406 35.992188 72.472656 35.722656 72.371094 C 35.457031 72.273438 34.925781 72.226562 34.667969 72.28125 M 37.941406 72.296875 C 37.523438 72.394531 37.21875 72.613281 37.050781 72.945312 C 36.9375 73.164062 36.902344 73.589844 36.902344 74.75 C 36.902344 76.296875 36.9375 76.515625 37.242188 76.863281 C 37.714844 77.402344 38.871094 77.429688 39.398438 76.917969 C 39.496094 76.824219 39.613281 76.660156 39.660156 76.554688 C 39.75 76.363281 39.75 76.308594 39.75 74.769531 L 39.75 73.179688 L 39.652344 72.976562 C 39.515625 72.699219 39.273438 72.472656 39.003906 72.371094 C 38.714844 72.261719 38.234375 72.226562 37.941406 72.296875 M 44.273438 72.300781 C 43.96875 72.371094 43.78125 72.476562 43.605469 72.679688 C 43.4375 72.871094 43.378906 73.097656 43.378906 73.578125 C 43.371094 74.308594 43.511719 74.53125 44.324219 75.097656 C 44.597656 75.285156 44.855469 75.492188 44.902344 75.550781 C 44.953125 75.621094 44.988281 75.753906 45.003906 75.933594 C 45.03125 76.273438 44.957031 76.421875 44.765625 76.421875 C 44.613281 76.421875 44.601562 76.378906 44.589844 75.835938 L 44.578125 75.4375 L 43.414062 75.4375 L 43.417969 75.855469 C 43.421875 76.425781 43.503906 76.695312 43.738281 76.910156 C 44.175781 77.316406 44.988281 77.40625 45.613281 77.117188 C 46.074219 76.90625 46.203125 76.636719 46.199219 75.898438 C 46.195312 75.035156 46.054688 74.808594 45.171875 74.230469 C 44.910156 74.0625 44.671875 73.890625 44.640625 73.851562 C 44.566406 73.757812 44.535156 73.324219 44.59375 73.207031 C 44.652344 73.101562 44.867188 73.082031 44.90625 73.183594 C 44.917969 73.222656 44.929688 73.382812 44.929688 73.539062 L 44.929688 73.828125 L 46.105469 73.828125 L 46.089844 73.402344 C 46.066406 72.890625 45.996094 72.710938 45.746094 72.535156 C 45.386719 72.285156 44.769531 72.1875 44.273438 72.300781 M 56.871094 72.296875 C 56.554688 72.371094 56.335938 72.496094 56.132812 72.714844 C 55.847656 73.023438 55.832031 73.140625 55.832031 74.6875 C 55.832031 76.070312 55.859375 76.398438 56 76.675781 C 56.367188 77.402344 57.792969 77.507812 58.417969 76.851562 C 58.664062 76.597656 58.714844 76.433594 58.734375 75.804688 L 58.753906 75.25 L 57.496094 75.25 L 57.496094 75.753906 C 57.496094 76.328125 57.464844 76.421875 57.285156 76.421875 C 57.191406 76.421875 57.152344 76.394531 57.121094 76.3125 C 57.097656 76.253906 57.078125 75.601562 57.078125 74.769531 C 57.078125 73.9375 57.097656 73.289062 57.121094 73.226562 C 57.152344 73.144531 57.191406 73.117188 57.285156 73.117188 C 57.351562 73.117188 57.421875 73.140625 57.441406 73.171875 C 57.460938 73.199219 57.484375 73.503906 57.496094 73.851562 L 57.515625 74.476562 L 58.132812 74.488281 L 58.753906 74.5 L 58.738281 73.839844 C 58.722656 73.234375 58.710938 73.164062 58.609375 72.945312 C 58.484375 72.667969 58.214844 72.445312 57.890625 72.34375 C 57.597656 72.253906 57.140625 72.234375 56.871094 72.296875 M 64.730469 72.285156 C 64.289062 72.359375 63.933594 72.617188 63.761719 72.988281 C 63.675781 73.175781 63.671875 73.238281 63.671875 74.769531 C 63.671875 76.308594 63.675781 76.363281 63.761719 76.554688 C 63.8125 76.660156 63.929688 76.824219 64.027344 76.917969 C 64.554688 77.433594 65.710938 77.402344 66.183594 76.863281 C 66.488281 76.515625 66.523438 76.296875 66.523438 74.789062 C 66.519531 73.609375 66.484375 73.164062 66.375 72.949219 C 66.101562 72.417969 65.460938 72.160156 64.730469 72.285156 M 74.5 72.285156 C 74.074219 72.355469 73.730469 72.605469 73.550781 72.976562 L 73.449219 73.179688 L 73.449219 76.359375 L 73.550781 76.5625 C 73.757812 76.988281 74.136719 77.226562 74.6875 77.28125 C 75.355469 77.351562 75.941406 77.054688 76.183594 76.527344 C 76.277344 76.320312 76.277344 76.296875 76.277344 74.769531 C 76.277344 73.285156 76.277344 73.214844 76.191406 73.03125 C 75.914062 72.429688 75.28125 72.152344 74.5 72.285156 M 77.707031 72.296875 C 77.230469 72.402344 76.847656 72.753906 76.761719 73.15625 C 76.695312 73.464844 76.660156 75.136719 76.707031 75.816406 C 76.75 76.472656 76.816406 76.6875 77.058594 76.929688 C 77.289062 77.160156 77.5625 77.273438 77.902344 77.273438 C 78.21875 77.273438 78.371094 77.214844 78.542969 77.03125 C 78.671875 76.894531 78.699219 76.894531 78.734375 77.046875 L 78.761719 77.175781 L 79.585938 77.175781 L 79.585938 74.582031 L 78.128906 74.582031 L 78.128906 74.957031 C 78.128906 75.332031 78.132812 75.335938 78.234375 75.335938 L 78.339844 75.335938 L 78.339844 75.828125 C 78.339844 76.15625 78.320312 76.335938 78.289062 76.371094 C 78.210938 76.449219 78.054688 76.429688 78.007812 76.339844 C 77.953125 76.242188 77.949219 73.25 78 73.167969 C 78.019531 73.136719 78.085938 73.117188 78.15625 73.125 C 78.265625 73.136719 78.277344 73.15625 78.304688 73.347656 C 78.320312 73.464844 78.332031 73.695312 78.335938 73.859375 L 78.339844 74.164062 L 79.585938 74.164062 L 79.585938 73.882812 C 79.585938 73.5 79.515625 73.101562 79.417969 72.910156 C 79.3125 72.699219 79.039062 72.46875 78.773438 72.367188 C 78.484375 72.261719 78.007812 72.226562 77.707031 72.296875 M 82.625 72.285156 C 82.347656 72.339844 82.011719 72.523438 81.890625 72.683594 C 81.597656 73.066406 81.597656 74.050781 81.886719 74.476562 C 81.996094 74.640625 82.046875 74.683594 82.65625 75.113281 C 82.957031 75.324219 83.195312 75.523438 83.230469 75.59375 C 83.308594 75.746094 83.320312 76.269531 83.246094 76.359375 C 83.21875 76.394531 83.140625 76.421875 83.074219 76.421875 C 82.910156 76.421875 82.875 76.304688 82.875 75.8125 L 82.875 75.417969 L 81.707031 75.417969 L 81.707031 75.804688 C 81.707031 76.214844 81.785156 76.601562 81.902344 76.78125 C 81.996094 76.921875 82.265625 77.105469 82.519531 77.195312 C 82.667969 77.25 82.847656 77.273438 83.144531 77.273438 C 83.628906 77.273438 83.917969 77.183594 84.195312 76.941406 C 84.449219 76.726562 84.511719 76.480469 84.488281 75.796875 C 84.460938 74.992188 84.355469 74.828125 83.480469 74.238281 C 82.925781 73.867188 82.867188 73.792969 82.863281 73.480469 C 82.863281 73.210938 82.921875 73.109375 83.074219 73.128906 C 83.203125 73.140625 83.238281 73.242188 83.242188 73.589844 L 83.246094 73.828125 L 84.425781 73.828125 L 84.402344 73.421875 C 84.375 72.964844 84.332031 72.816406 84.171875 72.644531 C 83.878906 72.332031 83.195312 72.175781 82.625 72.285156 M 90.40625 72.285156 C 89.9375 72.382812 89.5625 72.683594 89.421875 73.070312 C 89.332031 73.324219 89.289062 75.339844 89.359375 75.992188 C 89.417969 76.53125 89.488281 76.710938 89.738281 76.9375 C 90.015625 77.1875 90.308594 77.277344 90.820312 77.273438 C 91.285156 77.269531 91.578125 77.175781 91.855469 76.9375 C 92.160156 76.675781 92.273438 76.3125 92.273438 75.597656 L 92.273438 75.25 L 91.027344 75.25 L 91.023438 75.660156 C 91.023438 75.882812 91.007812 76.140625 90.992188 76.234375 C 90.96875 76.375 90.945312 76.402344 90.847656 76.414062 C 90.605469 76.441406 90.609375 76.46875 90.609375 74.769531 C 90.609375 73.070312 90.605469 73.097656 90.847656 73.125 C 91 73.144531 91.015625 73.226562 91.023438 73.945312 L 91.027344 74.5 L 92.253906 74.476562 L 92.253906 73.890625 C 92.25 73.132812 92.191406 72.914062 91.910156 72.652344 C 91.792969 72.539062 91.613281 72.425781 91.472656 72.375 C 91.203125 72.269531 90.675781 72.226562 90.40625 72.285156 M 105.035156 72.285156 C 104.738281 72.335938 104.488281 72.472656 104.28125 72.703125 C 104 73.019531 103.988281 73.109375 103.988281 74.832031 L 103.988281 76.316406 L 104.105469 76.578125 C 104.171875 76.722656 104.292969 76.898438 104.375 76.972656 C 104.8125 77.355469 105.441406 77.390625 105.800781 77.050781 L 105.960938 76.894531 L 106.007812 77.035156 L 106.050781 77.175781 L 106.878906 77.175781 L 106.878906 74.582031 L 105.378906 74.582031 L 105.378906 75.335938 L 105.628906 75.335938 L 105.628906 75.796875 C 105.628906 76.050781 105.609375 76.296875 105.585938 76.339844 C 105.535156 76.441406 105.316406 76.449219 105.28125 76.355469 C 105.246094 76.269531 105.246094 73.269531 105.28125 73.183594 C 105.296875 73.144531 105.355469 73.117188 105.421875 73.117188 C 105.488281 73.117188 105.546875 73.144531 105.5625 73.183594 C 105.578125 73.222656 105.589844 73.457031 105.589844 73.707031 L 105.589844 74.164062 L 106.890625 74.164062 L 106.863281 73.730469 C 106.824219 73.144531 106.75 72.902344 106.53125 72.683594 C 106.179688 72.328125 105.632812 72.183594 105.035156 72.285156 M 126.472656 72.296875 C 126.074219 72.390625 125.746094 72.628906 125.59375 72.941406 C 125.496094 73.140625 125.496094 73.144531 125.496094 74.769531 C 125.496094 76.25 125.503906 76.414062 125.570312 76.558594 C 125.683594 76.800781 125.953125 77.070312 126.179688 77.167969 C 126.617188 77.359375 126.980469 77.320312 127.265625 77.0625 C 127.359375 76.980469 127.4375 76.917969 127.441406 76.925781 C 127.449219 76.9375 127.476562 76.996094 127.503906 77.058594 C 127.550781 77.171875 127.554688 77.175781 127.949219 77.175781 L 128.34375 77.175781 L 128.34375 74.582031 L 126.890625 74.582031 L 126.890625 75.335938 L 127.148438 75.335938 L 127.128906 75.816406 C 127.105469 76.328125 127.070312 76.421875 126.902344 76.421875 C 126.835938 76.421875 126.792969 76.386719 126.761719 76.3125 C 126.707031 76.167969 126.710938 73.367188 126.765625 73.222656 C 126.796875 73.136719 126.828125 73.117188 126.917969 73.125 C 127.0625 73.144531 127.085938 73.230469 127.09375 73.757812 L 127.097656 74.164062 L 128.355469 74.164062 L 128.332031 73.695312 C 128.320312 73.433594 128.285156 73.148438 128.253906 73.054688 C 128.175781 72.8125 127.835938 72.484375 127.546875 72.375 C 127.246094 72.261719 126.769531 72.226562 126.472656 72.296875 M 130.882812 72.296875 C 130.566406 72.371094 130.347656 72.496094 130.144531 72.714844 C 129.859375 73.023438 129.84375 73.140625 129.84375 74.6875 C 129.84375 76.070312 129.871094 76.398438 130.011719 76.675781 C 130.378906 77.402344 131.804688 77.507812 132.429688 76.851562 C 132.675781 76.597656 132.726562 76.433594 132.746094 75.804688 L 132.765625 75.25 L 131.507812 75.25 L 131.507812 75.753906 C 131.507812 76.328125 131.476562 76.421875 131.296875 76.421875 C 131.199219 76.421875 131.164062 76.394531 131.132812 76.3125 C 131.109375 76.253906 131.089844 75.601562 131.089844 74.769531 C 131.089844 73.9375 131.109375 73.289062 131.132812 73.226562 C 131.164062 73.144531 131.203125 73.117188 131.296875 73.117188 C 131.363281 73.117188 131.433594 73.140625 131.453125 73.171875 C 131.472656 73.199219 131.496094 73.503906 131.507812 73.851562 L 131.527344 74.476562 L 132.144531 74.488281 L 132.765625 74.5 L 132.746094 73.839844 C 132.734375 73.234375 132.722656 73.164062 132.621094 72.945312 C 132.496094 72.667969 132.226562 72.445312 131.902344 72.34375 C 131.609375 72.253906 131.152344 72.234375 130.882812 72.296875 M 134.222656 72.285156 C 133.789062 72.371094 133.445312 72.628906 133.28125 72.988281 C 133.195312 73.175781 133.191406 73.238281 133.191406 74.769531 C 133.191406 76.308594 133.195312 76.363281 133.28125 76.554688 C 133.332031 76.660156 133.449219 76.824219 133.542969 76.917969 C 134.074219 77.433594 135.230469 77.402344 135.703125 76.863281 C 135.988281 76.535156 135.976562 76.605469 135.992188 74.859375 C 136.003906 73.085938 135.996094 73.027344 135.722656 72.703125 C 135.414062 72.339844 134.800781 72.167969 134.222656 72.285156 M 0.582031 72.40625 C 0.582031 72.429688 0.453125 73.445312 0.292969 74.664062 C 0.132812 75.882812 0 76.945312 0 77.027344 L 0 77.175781 L 1.289062 77.175781 L 1.289062 76.976562 C 1.289062 76.867188 1.300781 76.679688 1.316406 76.558594 L 1.34375 76.335938 L 1.539062 76.335938 C 1.765625 76.335938 1.789062 76.375 1.789062 76.71875 C 1.789062 76.824219 1.800781 76.972656 1.816406 77.042969 L 1.839844 77.175781 L 3.121094 77.175781 L 3.101562 77.078125 C 3.074219 76.972656 2.414062 72.46875 2.414062 72.40625 C 2.414062 72.382812 2.070312 72.367188 1.496094 72.367188 C 0.914062 72.367188 0.582031 72.382812 0.582031 72.40625 M 3.285156 74.769531 L 3.285156 77.175781 L 4.535156 77.175781 L 4.535156 75.167969 L 5.324219 75.167969 L 5.324219 74.207031 L 4.53125 74.207031 L 4.554688 73.347656 L 4.980469 73.335938 L 5.410156 73.324219 L 5.410156 72.367188 L 3.285156 72.367188 L 3.285156 74.769531 M 8.984375 74.769531 L 8.984375 77.175781 L 10.234375 77.175781 L 10.234375 75.167969 L 10.609375 75.167969 L 10.609375 77.175781 L 11.855469 77.175781 L 11.855469 72.367188 L 10.609375 72.367188 L 10.609375 74.082031 L 10.234375 74.082031 L 10.234375 72.367188 L 8.984375 72.367188 L 8.984375 74.769531 M 12.355469 74.769531 L 12.042969 77.175781 L 13.347656 77.175781 L 13.378906 76.753906 L 13.40625 76.335938 L 13.855469 76.335938 L 13.855469 76.5 C 13.855469 76.585938 13.867188 76.777344 13.878906 76.917969 L 13.90625 77.175781 L 15.195312 77.175781 L 15.167969 77.039062 C 15.15625 76.964844 15.003906 75.941406 14.832031 74.769531 C 14.660156 73.597656 14.511719 72.578125 14.496094 72.503906 L 14.472656 72.367188 L 12.667969 72.367188 L 12.355469 74.769531 M 15.351562 74.769531 L 15.351562 77.175781 L 16.433594 77.175781 L 16.4375 76.160156 L 16.4375 75.144531 L 16.734375 76.160156 L 17.035156 77.175781 L 18.140625 77.175781 L 18.140625 72.367188 L 17.101562 72.367188 L 17.078125 74.390625 L 16.761719 73.390625 L 16.445312 72.386719 L 15.351562 72.363281 L 15.351562 74.769531 M 19.679688 74.765625 L 19.679688 77.175781 L 20.925781 77.175781 L 20.925781 75.042969 L 21.046875 75.042969 C 21.269531 75.042969 21.277344 75.089844 21.292969 76.175781 L 21.308594 77.175781 L 22.464844 77.175781 L 22.464844 76.265625 C 22.464844 75.765625 22.445312 75.285156 22.421875 75.199219 C 22.363281 74.992188 22.203125 74.808594 22.023438 74.742188 L 21.878906 74.6875 L 22.089844 74.59375 C 22.386719 74.464844 22.441406 74.328125 22.441406 73.703125 C 22.445312 73.132812 22.390625 72.921875 22.183594 72.691406 C 21.925781 72.40625 21.867188 72.394531 20.707031 72.375 L 19.679688 72.359375 L 19.679688 74.765625 M 26.523438 72.5 C 26.492188 72.671875 25.917969 77.070312 25.917969 77.128906 C 25.917969 77.160156 26.140625 77.175781 26.558594 77.175781 L 27.199219 77.175781 L 27.222656 77.015625 C 27.238281 76.929688 27.25 76.785156 27.25 76.691406 C 27.253906 76.375 27.277344 76.335938 27.5 76.335938 L 27.695312 76.335938 L 27.722656 76.59375 C 27.738281 76.734375 27.75 76.925781 27.75 77.011719 L 27.75 77.175781 L 28.394531 77.175781 C 28.980469 77.175781 29.039062 77.167969 29.039062 77.101562 C 29.035156 77.058594 28.882812 75.984375 28.691406 74.707031 L 28.347656 72.386719 L 27.449219 72.375 L 26.546875 72.363281 L 26.523438 72.5 M 29.246094 74.765625 L 29.246094 77.175781 L 30.289062 77.175781 C 31.476562 77.175781 31.636719 77.148438 31.867188 76.925781 C 32.101562 76.703125 32.117188 76.5625 32.117188 74.832031 C 32.117188 73.105469 32.101562 72.980469 31.859375 72.71875 C 31.589844 72.425781 31.464844 72.398438 30.277344 72.375 L 29.246094 72.359375 L 29.246094 74.765625 M 40.230469 74.769531 L 40.230469 77.175781 L 41.269531 77.175781 L 41.28125 76.164062 L 41.289062 75.15625 L 41.582031 76.152344 L 41.875 77.152344 L 43.015625 77.175781 L 43.015625 72.367188 L 41.9375 72.367188 L 41.933594 73.378906 L 41.933594 74.394531 L 41.609375 73.390625 L 41.289062 72.386719 L 40.757812 72.375 L 40.230469 72.363281 L 40.230469 74.769531 M 46.34375 72.847656 L 46.34375 73.328125 L 47.09375 73.328125 L 47.09375 77.175781 L 48.34375 77.175781 L 48.34375 73.328125 L 49.089844 73.328125 L 49.089844 72.367188 L 46.34375 72.367188 L 46.34375 72.847656 M 49.339844 74.765625 L 49.339844 77.175781 L 50.589844 77.175781 L 50.589844 75.042969 L 50.707031 75.042969 C 50.917969 75.042969 50.921875 75.066406 50.921875 76.15625 L 50.921875 77.175781 L 52.128906 77.175781 L 52.128906 76.285156 C 52.125 75.796875 52.109375 75.324219 52.089844 75.234375 C 52.039062 75.011719 51.929688 74.871094 51.726562 74.765625 L 51.554688 74.679688 L 51.757812 74.589844 C 52.042969 74.472656 52.101562 74.324219 52.105469 73.726562 C 52.105469 73.453125 52.085938 73.183594 52.050781 73.070312 C 51.980469 72.828125 51.796875 72.601562 51.574219 72.480469 C 51.410156 72.394531 51.332031 72.390625 50.371094 72.375 L 49.339844 72.359375 L 49.339844 74.765625 M 52.542969 74.195312 C 52.542969 75.203125 52.5625 76.136719 52.585938 76.273438 C 52.640625 76.617188 52.808594 76.871094 53.085938 77.039062 C 53.402344 77.230469 53.585938 77.273438 54.042969 77.273438 C 54.386719 77.273438 54.46875 77.257812 54.699219 77.15625 C 54.988281 77.023438 55.175781 76.835938 55.304688 76.550781 C 55.390625 76.367188 55.394531 76.28125 55.40625 74.363281 L 55.421875 72.367188 L 54.125 72.367188 L 54.125 74.339844 C 54.125 75.429688 54.109375 76.34375 54.089844 76.371094 C 54.070312 76.402344 54.007812 76.421875 53.953125 76.414062 C 53.808594 76.394531 53.800781 76.265625 53.796875 74.195312 L 53.792969 72.367188 L 52.542969 72.367188 L 52.542969 74.195312 M 58.953125 72.847656 L 58.953125 73.328125 L 59.699219 73.328125 L 59.699219 77.175781 L 60.949219 77.175781 L 60.949219 73.328125 L 61.695312 73.328125 L 61.695312 72.367188 L 58.953125 72.367188 L 58.953125 72.847656 M 61.945312 74.769531 L 61.945312 77.175781 L 63.195312 77.175781 L 63.195312 72.367188 L 61.945312 72.367188 L 61.945312 74.769531 M 66.9375 74.769531 L 66.9375 77.175781 L 68.019531 77.175781 L 68.023438 76.179688 L 68.027344 75.1875 L 68.121094 75.5 C 68.175781 75.675781 68.304688 76.121094 68.414062 76.496094 L 68.613281 77.175781 L 69.726562 77.175781 L 69.726562 72.367188 L 68.6875 72.367188 L 68.679688 74.4375 L 68.601562 74.207031 C 68.558594 74.078125 68.410156 73.613281 68.269531 73.171875 L 68.015625 72.367188 L 66.9375 72.367188 L 66.9375 74.769531 M 71.265625 74.769531 L 71.265625 77.175781 L 73.261719 77.175781 L 73.261719 76.210938 L 72.515625 76.210938 L 72.515625 72.367188 L 71.265625 72.367188 L 71.265625 74.769531 M 80.042969 74.769531 L 80.042969 77.175781 L 81.292969 77.175781 L 81.292969 72.367188 L 80.042969 72.367188 L 80.042969 74.769531 M 84.660156 72.84375 L 84.660156 73.324219 L 85.027344 73.335938 L 85.390625 73.347656 L 85.402344 75.261719 L 85.410156 77.175781 L 86.660156 77.175781 L 86.660156 73.328125 L 87.367188 73.328125 L 87.367188 72.367188 L 84.660156 72.367188 L 84.660156 72.84375 M 87.617188 74.769531 L 87.617188 77.175781 L 88.90625 77.175781 L 88.90625 72.367188 L 87.617188 72.367188 L 87.617188 74.769531 M 98.265625 74.769531 L 98.265625 77.175781 L 100.429688 77.175781 L 100.429688 76.210938 L 99.515625 76.210938 L 99.515625 75.167969 L 100.308594 75.167969 L 100.296875 74.695312 L 100.285156 74.226562 L 99.898438 74.214844 L 99.515625 74.203125 L 99.515625 73.328125 L 100.347656 73.328125 L 100.347656 72.367188 L 98.265625 72.367188 L 98.265625 74.769531 M 100.761719 74.769531 L 100.761719 77.175781 L 101.800781 77.175781 L 101.824219 75.113281 L 102.003906 75.738281 C 102.101562 76.078125 102.238281 76.542969 102.304688 76.765625 L 102.429688 77.175781 L 103.550781 77.175781 L 103.550781 72.367188 L 102.46875 72.367188 L 102.445312 74.335938 L 101.828125 72.367188 L 100.761719 72.367188 L 100.761719 74.769531 M 107.292969 74.769531 L 107.292969 77.175781 L 108.582031 77.175781 L 108.582031 72.367188 L 107.292969 72.367188 L 107.292969 74.769531 M 109.042969 74.769531 L 109.042969 77.175781 L 110.121094 77.175781 L 110.144531 75.230469 L 110.34375 75.917969 C 110.453125 76.300781 110.582031 76.738281 110.628906 76.890625 L 110.714844 77.175781 L 111.828125 77.175781 L 111.828125 72.367188 L 110.746094 72.367188 L 110.742188 73.339844 L 110.742188 74.308594 L 110.621094 73.953125 C 110.554688 73.757812 110.414062 73.320312 110.308594 72.984375 L 110.113281 72.367188 L 109.042969 72.367188 L 109.042969 74.769531 M 112.285156 74.769531 L 112.285156 77.175781 L 114.449219 77.175781 L 114.449219 76.210938 L 113.574219 76.210938 L 113.574219 75.167969 L 114.324219 75.167969 L 114.324219 74.207031 L 113.574219 74.207031 L 113.574219 73.328125 L 114.367188 73.328125 L 114.367188 72.367188 L 112.285156 72.367188 L 112.285156 74.769531 M 114.78125 74.769531 L 114.78125 77.175781 L 116.945312 77.175781 L 116.945312 76.210938 L 116.070312 76.210938 L 116.070312 75.167969 L 116.820312 75.167969 L 116.820312 74.207031 L 116.070312 74.207031 L 116.070312 73.328125 L 116.863281 73.328125 L 116.863281 72.367188 L 114.78125 72.367188 L 114.78125 74.769531 M 117.277344 74.765625 L 117.277344 77.175781 L 118.527344 77.175781 L 118.527344 75.042969 L 118.648438 75.042969 C 118.867188 75.042969 118.878906 75.089844 118.894531 76.175781 L 118.90625 77.175781 L 120.070312 77.175781 L 120.058594 76.15625 L 120.046875 75.140625 L 119.925781 74.984375 C 119.863281 74.898438 119.742188 74.796875 119.664062 74.757812 L 119.523438 74.691406 L 119.699219 74.605469 C 119.992188 74.460938 120.046875 74.324219 120.046875 73.683594 C 120.046875 73.082031 119.988281 72.882812 119.75 72.640625 C 119.515625 72.40625 119.429688 72.390625 118.308594 72.375 L 117.277344 72.359375 L 117.277344 74.765625 M 120.523438 74.769531 L 120.523438 77.175781 L 121.773438 77.175781 L 121.773438 72.367188 L 120.523438 72.367188 L 120.523438 74.769531 M 122.230469 74.769531 L 122.230469 77.175781 L 123.308594 77.175781 L 123.320312 76.179688 L 123.332031 75.1875 L 123.621094 76.179688 L 123.910156 77.175781 L 125.015625 77.175781 L 125.015625 72.367188 L 123.976562 72.367188 L 123.972656 73.378906 L 123.96875 74.394531 L 123.636719 73.378906 L 123.308594 72.367188 L 122.230469 72.367188 L 122.230469 74.769531 M 94.578125 73.121094 C 94.320312 73.199219 94.050781 73.421875 93.929688 73.65625 C 93.839844 73.835938 93.816406 73.9375 93.816406 74.152344 C 93.816406 74.515625 93.878906 74.71875 94.070312 74.9375 L 94.230469 75.117188 L 94.042969 75.226562 C 93.925781 75.296875 93.816406 75.410156 93.742188 75.535156 C 93.640625 75.707031 93.628906 75.773438 93.628906 76.085938 C 93.628906 76.480469 93.722656 76.757812 93.929688 76.980469 C 94.277344 77.34375 94.855469 77.382812 95.445312 77.085938 C 95.578125 77.019531 95.699219 76.964844 95.71875 76.964844 C 95.742188 76.964844 95.777344 77.011719 95.804688 77.070312 C 95.851562 77.171875 95.855469 77.175781 96.414062 77.175781 C 96.722656 77.175781 96.976562 77.164062 96.976562 77.152344 C 96.976562 77.136719 96.886719 76.957031 96.777344 76.753906 C 96.609375 76.425781 96.589844 76.371094 96.648438 76.339844 C 96.890625 76.195312 96.898438 76.175781 96.882812 75.742188 L 96.871094 75.335938 L 96.253906 75.75 L 96.152344 75.574219 C 96.097656 75.476562 96.007812 75.308594 95.957031 75.203125 L 95.855469 75.011719 L 95.960938 74.871094 C 96.183594 74.570312 96.257812 74.246094 96.1875 73.898438 C 96.128906 73.609375 95.953125 73.367188 95.699219 73.214844 C 95.527344 73.113281 95.453125 73.097656 95.105469 73.089844 C 94.886719 73.085938 94.648438 73.097656 94.578125 73.121094 M 24.183594 73.171875 C 24.136719 73.242188 24.117188 76.023438 24.160156 76.234375 C 24.191406 76.382812 24.210938 76.402344 24.316406 76.402344 C 24.410156 76.402344 24.445312 76.375 24.46875 76.296875 C 24.511719 76.132812 24.507812 73.347656 24.464844 73.226562 C 24.417969 73.109375 24.246094 73.074219 24.183594 73.171875 M 38.203125 73.171875 C 38.160156 73.242188 38.136719 75.832031 38.179688 76.148438 C 38.210938 76.382812 38.21875 76.402344 38.328125 76.414062 C 38.417969 76.425781 38.449219 76.40625 38.484375 76.316406 C 38.539062 76.164062 38.539062 73.308594 38.480469 73.199219 C 38.433594 73.109375 38.257812 73.089844 38.203125 73.171875 M 64.945312 73.195312 C 64.898438 73.285156 64.882812 76.15625 64.925781 76.328125 C 64.949219 76.40625 64.976562 76.421875 65.082031 76.414062 C 65.207031 76.402344 65.214844 76.390625 65.238281 76.171875 C 65.277344 75.863281 65.277344 73.566406 65.242188 73.328125 C 65.214844 73.164062 65.199219 73.136719 65.101562 73.125 C 65.023438 73.117188 64.976562 73.140625 64.945312 73.195312 M 74.71875 73.222656 C 74.695312 73.289062 74.675781 73.925781 74.675781 74.804688 C 74.675781 76.394531 74.683594 76.445312 74.886719 76.414062 C 74.976562 76.402344 74.992188 76.371094 75.015625 76.191406 C 75.054688 75.910156 75.054688 73.519531 75.019531 73.308594 C 74.992188 73.164062 74.972656 73.136719 74.875 73.125 C 74.785156 73.117188 74.753906 73.136719 74.71875 73.222656 M 134.464844 73.195312 C 134.414062 73.285156 134.398438 76.15625 134.445312 76.328125 C 134.46875 76.40625 134.496094 76.421875 134.601562 76.414062 L 134.730469 76.402344 L 134.757812 76.085938 C 134.789062 75.675781 134.792969 73.757812 134.757812 73.410156 C 134.734375 73.15625 134.726562 73.140625 134.621094 73.125 C 134.542969 73.117188 134.496094 73.140625 134.464844 73.195312 M 20.925781 73.730469 L 20.925781 74.257812 L 21.058594 74.230469 C 21.132812 74.214844 21.210938 74.1875 21.226562 74.167969 C 21.246094 74.152344 21.273438 74.003906 21.289062 73.84375 C 21.316406 73.492188 21.253906 73.265625 21.121094 73.226562 C 20.925781 73.175781 20.925781 73.175781 20.925781 73.730469 M 30.496094 74.769531 C 30.496094 76.277344 30.496094 76.335938 30.574219 76.335938 C 30.617188 76.335938 30.695312 76.300781 30.75 76.257812 L 30.847656 76.179688 L 30.847656 74.75 C 30.847656 73.382812 30.84375 73.320312 30.769531 73.261719 C 30.722656 73.230469 30.644531 73.203125 30.589844 73.203125 L 30.496094 73.203125 L 30.496094 74.769531 M 50.589844 73.730469 L 50.589844 74.257812 L 50.722656 74.230469 C 50.796875 74.214844 50.871094 74.179688 50.886719 74.152344 C 50.90625 74.125 50.921875 73.929688 50.921875 73.71875 C 50.921875 73.367188 50.914062 73.328125 50.828125 73.265625 C 50.777344 73.230469 50.703125 73.203125 50.664062 73.203125 C 50.597656 73.203125 50.589844 73.253906 50.589844 73.730469 M 118.527344 73.726562 L 118.527344 74.257812 L 118.660156 74.230469 C 118.734375 74.214844 118.8125 74.183594 118.835938 74.160156 C 118.859375 74.136719 118.878906 73.941406 118.878906 73.726562 C 118.878906 73.507812 118.859375 73.3125 118.835938 73.289062 C 118.8125 73.265625 118.734375 73.234375 118.660156 73.21875 L 118.527344 73.191406 L 118.527344 73.726562 M 13.609375 73.652344 C 13.605469 73.683594 13.566406 74.023438 13.523438 74.40625 C 13.476562 74.789062 13.429688 75.183594 13.417969 75.28125 L 13.398438 75.460938 L 13.808594 75.460938 L 13.785156 75.324219 C 13.773438 75.25 13.730469 74.832031 13.6875 74.394531 C 13.648438 73.957031 13.609375 73.625 13.609375 73.652344 M 27.382812 74.445312 C 27.257812 75.523438 27.25 75.460938 27.484375 75.460938 L 27.675781 75.460938 L 27.648438 75.28125 C 27.636719 75.183594 27.59375 74.785156 27.558594 74.394531 C 27.523438 74.003906 27.488281 73.679688 27.484375 73.671875 C 27.476562 73.667969 27.433594 74.015625 27.382812 74.445312 M 94.898438 73.828125 C 94.875 73.871094 94.855469 73.949219 94.855469 74.003906 C 94.855469 74.132812 95.003906 74.457031 95.0625 74.457031 C 95.1875 74.457031 95.285156 73.902344 95.179688 73.796875 C 95.101562 73.71875 94.945312 73.734375 94.898438 73.828125 M 1.441406 74.425781 C 1.402344 74.777344 1.355469 75.152344 1.34375 75.261719 L 1.320312 75.460938 L 1.71875 75.460938 L 1.691406 75.21875 C 1.679688 75.085938 1.644531 74.710938 1.617188 74.382812 C 1.589844 74.054688 1.554688 73.789062 1.539062 73.789062 C 1.527344 73.789062 1.480469 74.074219 1.441406 74.425781 M 94.816406 75.9375 C 94.726562 76.121094 94.730469 76.289062 94.824219 76.410156 C 94.875 76.476562 95.097656 76.476562 95.214844 76.410156 L 95.308594 76.359375 L 95.132812 76.054688 C 95.039062 75.890625 94.945312 75.753906 94.929688 75.753906 C 94.917969 75.753906 94.863281 75.835938 94.816406 75.9375 "/>
<path style=" stroke:none;fill-rule:evenodd;fill:rgb(98.431373%,76.862746%,18.82353%);fill-opacity:1;" d="M 67.949219 10.921875 L 64.984375 13.023438 L 64.984375 25.527344 L 67.941406 28.765625 C 69.570312 30.546875 70.917969 32.007812 70.9375 32.015625 C 70.960938 32.023438 70.976562 27.316406 70.976562 20.425781 C 70.976562 14.042969 70.960938 8.820312 70.945312 8.824219 C 70.925781 8.824219 69.578125 9.769531 67.949219 10.921875 M 80.625 23.222656 L 80.625 30.9375 L 82.996094 30.9375 L 83 37.65625 L 83 44.378906 L 85.121094 46.699219 C 86.285156 47.972656 87.261719 49.023438 87.28125 49.03125 C 87.3125 49.039062 87.324219 44.023438 87.324219 34.085938 L 87.324219 19.125 L 84.46875 17.578125 C 82.894531 16.726562 81.386719 15.914062 81.117188 15.769531 L 80.625 15.503906 L 80.625 23.222656 M 58.460938 22.085938 C 58.144531 22.503906 50.59375 32.515625 41.6875 44.335938 C 32.777344 56.152344 25.472656 65.847656 25.449219 65.875 C 25.417969 65.917969 26.8125 65.929688 32.398438 65.929688 L 39.386719 65.929688 L 49.253906 51.808594 C 54.683594 44.042969 59.136719 37.683594 59.152344 37.675781 C 59.171875 37.671875 62.523438 41.050781 66.605469 45.191406 L 74.023438 52.71875 L 81.132812 52.71875 C 85.039062 52.71875 88.238281 52.707031 88.238281 52.699219 C 88.238281 52.6875 86.65625 50.953125 84.722656 48.847656 L 81.210938 45.019531 L 81.1875 33.214844 L 77.933594 33.203125 L 74.679688 33.195312 L 74.667969 35.785156 L 74.65625 38.378906 L 66.859375 29.851562 C 62.574219 25.160156 59.058594 21.320312 59.050781 21.320312 C 59.042969 21.320312 58.777344 21.664062 58.460938 22.085938 M 91.320312 56.421875 C 91.320312 56.464844 93.402344 59.46875 93.441406 59.484375 C 93.464844 59.492188 93.480469 58.882812 93.480469 57.945312 L 93.480469 56.394531 L 92.398438 56.394531 C 91.804688 56.394531 91.320312 56.40625 91.320312 56.421875 M 86.242188 63.835938 L 86.242188 64.421875 L 87.492188 64.421875 L 87.492188 63.253906 L 86.242188 63.253906 L 86.242188 63.835938 M 87.824219 63.835938 L 87.824219 64.421875 L 89.070312 64.421875 L 89.070312 63.253906 L 87.824219 63.253906 L 87.824219 63.835938 M 86.253906 65.269531 L 86.265625 65.867188 L 87.46875 65.867188 L 87.480469 65.269531 L 87.492188 64.675781 L 86.242188 64.675781 L 86.253906 65.269531 M 87.832031 65.269531 L 87.84375 65.867188 L 89.050781 65.867188 L 89.0625 65.269531 L 89.074219 64.675781 L 87.820312 64.675781 L 87.832031 65.269531 M 2.164062 69.085938 L 2.164062 69.398438 L 6.367188 69.398438 L 6.367188 68.769531 L 2.164062 68.769531 L 2.164062 69.085938 M 11.273438 69.085938 L 11.273438 69.398438 L 15.476562 69.398438 L 15.476562 68.769531 L 11.273438 68.769531 L 11.273438 69.085938 M 20.34375 69.085938 L 20.34375 69.398438 L 24.585938 69.398438 L 24.585938 68.769531 L 20.34375 68.769531 L 20.34375 69.085938 M 29.453125 69.085938 L 29.453125 69.398438 L 33.699219 69.398438 L 33.699219 68.769531 L 29.453125 68.769531 L 29.453125 69.085938 M 38.566406 69.085938 L 38.566406 69.398438 L 42.769531 69.398438 L 42.769531 68.769531 L 38.566406 68.769531 L 38.566406 69.085938 M 47.675781 69.085938 L 47.675781 69.398438 L 51.878906 69.398438 L 51.878906 68.769531 L 47.675781 68.769531 L 47.675781 69.085938 M 56.789062 69.085938 L 56.789062 69.398438 L 60.988281 69.398438 L 60.988281 68.769531 L 56.789062 68.769531 L 56.789062 69.085938 M 65.898438 69.085938 L 65.898438 69.398438 L 70.101562 69.398438 L 70.101562 68.769531 L 65.898438 68.769531 L 65.898438 69.085938 M 75.011719 69.085938 L 75.011719 69.398438 L 79.210938 69.398438 L 79.210938 68.769531 L 75.011719 68.769531 L 75.011719 69.085938 M 84.121094 69.085938 L 84.121094 69.398438 L 88.324219 69.398438 L 88.324219 68.769531 L 84.121094 68.769531 L 84.121094 69.085938 M 93.230469 69.085938 L 93.230469 69.398438 L 97.433594 69.398438 L 97.433594 68.769531 L 93.230469 68.769531 L 93.230469 69.085938 M 102.34375 69.085938 L 102.34375 69.398438 L 106.546875 69.398438 L 106.546875 68.769531 L 102.34375 68.769531 L 102.34375 69.085938 M 111.414062 69.085938 L 111.414062 69.398438 L 115.65625 69.398438 L 115.65625 68.769531 L 111.414062 68.769531 L 111.414062 69.085938 M 120.523438 69.085938 L 120.523438 69.398438 L 124.726562 69.398438 L 124.726562 68.769531 L 120.523438 68.769531 L 120.523438 69.085938 M 129.632812 69.085938 L 129.632812 69.398438 L 133.835938 69.398438 L 133.835938 68.769531 L 129.632812 68.769531 L 129.632812 69.085938 M 75.484375 79.332031 C 75.246094 79.582031 75.054688 79.816406 75.054688 79.855469 C 75.050781 79.9375 75.898438 80.742188 76.007812 80.761719 C 76.058594 80.769531 76.226562 80.625 76.511719 80.328125 C 76.75 80.085938 76.949219 79.859375 76.957031 79.832031 C 76.972656 79.769531 76.082031 78.917969 75.980469 78.894531 C 75.941406 78.886719 75.75 79.054688 75.484375 79.332031 M 14.636719 79.527344 C 14.578125 79.554688 14.105469 79.878906 13.585938 80.242188 C 12.917969 80.714844 12.636719 80.9375 12.621094 81.007812 C 12.605469 81.0625 12.617188 81.308594 12.644531 81.554688 C 12.726562 82.351562 12.769531 83.261719 12.8125 85.023438 C 12.855469 86.816406 12.890625 87.15625 13.066406 87.566406 C 13.257812 88.019531 13.59375 88.332031 14.082031 88.507812 C 14.300781 88.589844 14.441406 88.601562 15.179688 88.617188 C 15.894531 88.632812 16.050781 88.625 16.203125 88.570312 C 16.402344 88.492188 16.738281 88.160156 16.886719 87.890625 L 16.984375 87.71875 L 17.28125 88.019531 C 17.5 88.242188 17.664062 88.363281 17.910156 88.484375 C 18.226562 88.644531 18.253906 88.648438 18.65625 88.648438 C 19.039062 88.648438 19.097656 88.636719 19.347656 88.519531 C 19.691406 88.355469 19.988281 88.0625 20.1875 87.683594 L 20.339844 87.394531 L 20.34375 88.011719 L 20.34375 88.628906 L 24.492188 88.617188 L 28.644531 88.609375 L 28.882812 88.488281 C 29.128906 88.367188 29.328125 88.199219 29.484375 87.980469 L 29.574219 87.855469 L 29.648438 87.960938 C 29.78125 88.15625 30.0625 88.402344 30.269531 88.503906 C 30.472656 88.605469 30.480469 88.609375 31.722656 88.609375 C 33.109375 88.609375 33.292969 88.585938 33.929688 88.320312 C 34.320312 88.160156 34.617188 87.964844 35.257812 87.457031 C 36.230469 86.6875 36.527344 86.554688 37.414062 86.5 L 37.828125 86.476562 L 38.195312 85.617188 C 38.5625 84.773438 38.617188 84.578125 38.515625 84.503906 C 38.484375 84.480469 38.269531 84.421875 38.03125 84.371094 C 37.132812 84.171875 36.589844 83.9375 35.675781 83.359375 C 34.660156 82.714844 34.09375 82.507812 33.601562 82.601562 C 33.105469 82.695312 32.679688 82.992188 32.269531 83.542969 C 31.976562 83.933594 31.820312 84.203125 31.707031 84.503906 C 31.5625 84.894531 31.605469 85.152344 31.832031 85.246094 C 31.988281 85.308594 32.121094 85.269531 32.417969 85.070312 C 32.875 84.757812 33.078125 84.71875 33.53125 84.863281 C 33.835938 84.957031 35.15625 85.503906 35.136719 85.527344 C 35.101562 85.558594 34.652344 85.667969 34.28125 85.730469 C 33.761719 85.820312 30.78125 85.863281 30.496094 85.785156 C 30.183594 85.703125 30.070312 85.542969 29.9375 85.011719 C 29.804688 84.476562 29.726562 84.363281 29.488281 84.363281 C 29.253906 84.363281 29.164062 84.480469 28.980469 85.011719 C 28.890625 85.285156 28.78125 85.519531 28.71875 85.585938 C 28.484375 85.835938 28.597656 85.828125 24.351562 85.828125 L 20.46875 85.828125 L 20.445312 85.710938 C 20.214844 84.671875 19.605469 83.882812 18.820312 83.609375 C 18.355469 83.449219 17.742188 83.535156 17.332031 83.816406 C 16.953125 84.078125 16.617188 84.632812 16.488281 85.207031 C 16.378906 85.703125 16.207031 85.828125 15.632812 85.828125 C 15.238281 85.828125 15.070312 85.753906 14.949219 85.527344 C 14.878906 85.398438 14.871094 85.179688 14.851562 82.476562 C 14.839844 80.613281 14.816406 79.546875 14.789062 79.519531 C 14.761719 79.496094 14.710938 79.496094 14.636719 79.527344 M 41.394531 79.503906 C 41.304688 79.535156 39.460938 80.839844 39.390625 80.921875 C 39.324219 81.003906 39.324219 81.160156 39.390625 81.8125 C 39.449219 82.402344 39.515625 83.867188 39.5625 85.617188 C 39.589844 86.617188 39.613281 86.996094 39.667969 87.1875 C 39.878906 87.972656 40.253906 88.351562 41.003906 88.546875 C 41.429688 88.65625 42.800781 88.667969 43.050781 88.5625 C 43.238281 88.484375 43.449219 88.292969 43.597656 88.054688 L 43.710938 87.878906 L 43.875 88.117188 C 44.246094 88.660156 45.070312 88.796875 45.519531 88.390625 C 45.609375 88.304688 45.730469 88.15625 45.789062 88.058594 L 45.898438 87.875 L 46.035156 88.058594 C 46.183594 88.253906 46.527344 88.5 46.757812 88.582031 C 46.972656 88.652344 47.339844 88.636719 47.539062 88.546875 C 48.542969 88.089844 49.0625 85.515625 48.46875 83.9375 C 48.402344 83.765625 48.355469 83.695312 48.300781 83.695312 C 48.234375 83.695312 47.484375 84.480469 47.441406 84.601562 C 47.429688 84.625 47.480469 84.8125 47.550781 85.011719 C 47.710938 85.472656 47.71875 85.707031 47.570312 85.824219 C 47.433594 85.929688 47.15625 85.972656 46.945312 85.914062 C 46.6875 85.847656 46.5625 85.679688 46.464844 85.300781 C 46.355469 84.847656 46.265625 84.660156 46.132812 84.589844 C 45.972656 84.507812 45.914062 84.515625 45.769531 84.636719 C 45.632812 84.753906 45.542969 84.964844 45.46875 85.339844 C 45.4375 85.5 45.382812 85.628906 45.304688 85.714844 C 45.203125 85.832031 45.167969 85.847656 44.964844 85.84375 C 44.558594 85.835938 44.386719 85.691406 44.28125 85.261719 C 44.152344 84.734375 44.035156 84.574219 43.765625 84.574219 C 43.578125 84.574219 43.484375 84.703125 43.3125 85.203125 C 43.117188 85.773438 43.046875 85.828125 42.496094 85.828125 C 42.019531 85.828125 41.804688 85.734375 41.65625 85.453125 L 41.5625 85.269531 L 41.5625 82.417969 C 41.5625 79.457031 41.5625 79.449219 41.394531 79.503906 M 62.078125 79.546875 C 62.003906 79.585938 61.542969 79.902344 61.050781 80.246094 C 60.46875 80.65625 60.148438 80.910156 60.117188 80.984375 C 60.082031 81.066406 60.078125 81.195312 60.113281 81.484375 C 60.191406 82.183594 60.238281 83.097656 60.285156 84.90625 C 60.3125 86.050781 60.351562 86.800781 60.386719 87.015625 C 60.5 87.648438 60.828125 88.148438 61.28125 88.375 C 61.785156 88.632812 61.710938 88.628906 66.175781 88.628906 C 70.609375 88.628906 70.542969 88.628906 70.980469 88.390625 C 71.179688 88.285156 71.464844 88.007812 71.601562 87.792969 L 71.671875 87.691406 L 71.734375 87.820312 C 71.890625 88.117188 72.371094 88.410156 72.941406 88.546875 C 73.234375 88.617188 73.429688 88.628906 74.304688 88.628906 C 75.402344 88.625 75.730469 88.589844 76.25 88.40625 C 76.949219 88.164062 77.457031 87.71875 77.773438 87.078125 C 78.101562 86.402344 78.148438 86.167969 78.148438 85.074219 C 78.148438 84.195312 78.140625 84.109375 78.039062 83.738281 C 77.71875 82.558594 77.289062 81.882812 76.675781 81.589844 C 76.4375 81.476562 76.359375 81.460938 76.050781 81.460938 C 75.753906 81.460938 75.664062 81.476562 75.492188 81.5625 C 74.917969 81.859375 74.410156 82.894531 74.355469 83.886719 C 74.328125 84.421875 74.402344 84.710938 74.640625 84.96875 C 75.019531 85.386719 75.613281 85.472656 76.90625 85.300781 C 77.105469 85.273438 77.160156 85.34375 77.082031 85.511719 C 76.964844 85.769531 76.339844 85.839844 74.253906 85.820312 C 73.414062 85.8125 72.714844 85.792969 72.699219 85.777344 C 72.679688 85.757812 72.789062 85.617188 72.9375 85.460938 C 73.730469 84.632812 73.84375 83.984375 73.304688 83.390625 C 72.671875 82.691406 71.5 82.578125 70.476562 83.113281 C 69.871094 83.429688 69.519531 83.914062 69.519531 84.425781 C 69.519531 84.636719 69.558594 84.6875 69.867188 84.871094 C 70.09375 85.003906 70.726562 85.613281 70.726562 85.699219 C 70.726562 85.71875 70.691406 85.75 70.652344 85.769531 C 70.613281 85.789062 68.847656 85.8125 66.730469 85.816406 L 62.882812 85.828125 L 62.695312 85.734375 C 62.558594 85.664062 62.484375 85.589844 62.414062 85.453125 L 62.320312 85.265625 L 62.320312 82.441406 C 62.320312 80.246094 62.308594 79.597656 62.269531 79.542969 C 62.21875 79.476562 62.207031 79.476562 62.078125 79.546875 M 80.875 79.527344 C 80.835938 79.554688 80.382812 80.042969 79.863281 80.613281 C 79.285156 81.25 78.921875 81.679688 78.921875 81.734375 C 78.921875 82.011719 79.679688 86.816406 79.855469 87.644531 C 80.03125 88.488281 80.257812 88.804688 80.53125 88.601562 C 80.824219 88.386719 81.160156 87.421875 81.308594 86.371094 C 81.554688 84.625 81.492188 82.058594 81.160156 80.164062 C 81.039062 79.464844 81.015625 79.414062 80.875 79.527344 M 94.839844 79.535156 C 94.597656 79.664062 92.933594 80.867188 92.875 80.957031 C 92.816406 81.046875 92.816406 81.121094 92.875 81.695312 C 92.953125 82.480469 93.011719 83.761719 93.046875 85.453125 C 93.066406 86.238281 93.097656 86.84375 93.132812 87.035156 C 93.246094 87.660156 93.589844 88.167969 94.039062 88.390625 C 94.542969 88.636719 94.40625 88.632812 99.234375 88.617188 L 103.652344 88.605469 L 104.007812 88.511719 C 104.585938 88.355469 105.117188 88.066406 105.824219 87.511719 C 106.539062 86.953125 106.835938 86.761719 107.144531 86.65625 C 107.433594 86.558594 107.835938 86.496094 108.171875 86.496094 L 108.449219 86.496094 L 108.828125 85.617188 C 109.035156 85.132812 109.207031 84.691406 109.207031 84.636719 C 109.207031 84.507812 109.140625 84.472656 108.707031 84.386719 C 107.878906 84.222656 107.234375 83.941406 106.207031 83.292969 C 105.550781 82.882812 105.195312 82.710938 104.804688 82.625 C 104.429688 82.542969 104.128906 82.582031 103.761719 82.761719 C 103.453125 82.910156 103 83.371094 102.683594 83.851562 C 102.261719 84.503906 102.148438 84.964844 102.363281 85.183594 C 102.503906 85.324219 102.65625 85.3125 102.925781 85.140625 C 103.691406 84.65625 103.710938 84.65625 105.058594 85.210938 L 105.796875 85.515625 L 105.558594 85.589844 C 104.898438 85.796875 104.867188 85.796875 100.066406 85.816406 C 95.035156 85.832031 95.371094 85.851562 95.179688 85.542969 L 95.082031 85.390625 L 95.070312 82.476562 C 95.0625 80.175781 95.050781 79.554688 95.007812 79.519531 C 94.96875 79.488281 94.921875 79.492188 94.839844 79.535156 M 114.570312 79.539062 C 114.371094 79.644531 112.648438 80.878906 112.601562 80.945312 C 112.574219 80.992188 112.578125 81.207031 112.609375 81.632812 C 112.695312 82.671875 112.746094 83.726562 112.785156 85.347656 C 112.824219 86.996094 112.847656 87.199219 113.058594 87.644531 C 113.203125 87.957031 113.445312 88.214844 113.734375 88.371094 C 114.234375 88.636719 113.96875 88.628906 119.890625 88.628906 C 125.8125 88.628906 125.617188 88.636719 126.171875 88.371094 C 126.875 88.035156 127.207031 87.351562 127.308594 86.023438 C 127.410156 84.683594 127.113281 83.46875 126.492188 82.679688 C 126.273438 82.402344 126.1875 82.351562 126.121094 82.460938 C 126.097656 82.5 125.8125 82.921875 125.484375 83.394531 C 125.160156 83.867188 124.890625 84.273438 124.890625 84.296875 C 124.890625 84.316406 125.085938 84.535156 125.320312 84.777344 C 125.980469 85.457031 126.117188 85.683594 125.933594 85.785156 C 125.878906 85.8125 124.128906 85.828125 120.554688 85.828125 L 115.253906 85.828125 L 115.113281 85.734375 C 115.035156 85.683594 114.9375 85.574219 114.890625 85.492188 C 114.804688 85.351562 114.804688 85.285156 114.792969 82.457031 C 114.78125 80.246094 114.769531 79.554688 114.730469 79.523438 C 114.695312 79.492188 114.644531 79.5 114.570312 79.539062 M 135.011719 79.964844 C 133.984375 81.074219 133.460938 81.660156 133.460938 81.710938 C 133.460938 81.824219 133.980469 85.246094 134.171875 86.375 C 134.476562 88.195312 134.632812 88.671875 134.933594 88.671875 C 135.164062 88.671875 135.460938 88.152344 135.648438 87.429688 C 135.898438 86.46875 136 85.464844 136 83.980469 C 136 82.496094 135.910156 81.304688 135.703125 80.121094 C 135.617188 79.617188 135.570312 79.472656 135.503906 79.472656 C 135.484375 79.472656 135.261719 79.695312 135.011719 79.964844 M 9.703125 80.027344 C 9.441406 80.292969 9.277344 80.488281 9.277344 80.542969 C 9.277344 80.625 10.136719 81.523438 10.21875 81.523438 C 10.273438 81.523438 11.191406 80.589844 11.191406 80.53125 C 11.191406 80.460938 10.273438 79.597656 10.195312 79.597656 C 10.160156 79.597656 9.9375 79.792969 9.703125 80.027344 M 34.199219 80.097656 C 33.96875 80.351562 33.78125 80.574219 33.78125 80.59375 C 33.78125 80.636719 34.625 81.480469 34.722656 81.535156 C 34.773438 81.566406 34.886719 81.476562 35.222656 81.140625 C 35.464844 80.902344 35.679688 80.671875 35.703125 80.628906 C 35.738281 80.5625 35.671875 80.484375 35.273438 80.097656 C 34.976562 79.8125 34.765625 79.644531 34.710938 79.640625 C 34.648438 79.640625 34.492188 79.777344 34.199219 80.097656 M 104.847656 80.074219 C 104.59375 80.332031 104.421875 80.539062 104.421875 80.589844 C 104.421875 80.644531 104.597656 80.835938 104.902344 81.121094 C 105.308594 81.496094 105.394531 81.558594 105.460938 81.523438 C 105.5625 81.46875 106.335938 80.636719 106.335938 80.582031 C 106.335938 80.496094 105.445312 79.640625 105.355469 79.640625 C 105.304688 79.640625 105.109375 79.804688 104.847656 80.074219 M 71.132812 80.417969 C 70.898438 80.660156 70.699219 80.882812 70.691406 80.914062 C 70.671875 81.003906 71.546875 81.835938 71.664062 81.835938 C 71.730469 81.835938 71.890625 81.707031 72.199219 81.402344 C 72.441406 81.160156 72.640625 80.949219 72.640625 80.925781 C 72.640625 80.855469 71.707031 79.976562 71.632812 79.976562 C 71.59375 79.976562 71.371094 80.171875 71.132812 80.417969 M 27.523438 81.578125 C 27.328125 81.792969 27.167969 81.996094 27.167969 82.027344 C 27.167969 82.105469 27.921875 82.859375 28 82.859375 C 28.03125 82.859375 28.214844 82.707031 28.402344 82.519531 L 28.742188 82.175781 L 29.089844 82.519531 C 29.28125 82.707031 29.46875 82.859375 29.5 82.859375 C 29.535156 82.859375 29.746094 82.671875 29.976562 82.441406 L 30.390625 82.019531 L 29.972656 81.605469 C 29.722656 81.359375 29.515625 81.1875 29.46875 81.1875 C 29.421875 81.1875 29.25 81.324219 29.0625 81.523438 L 28.738281 81.859375 L 28.371094 81.523438 C 28.171875 81.339844 27.980469 81.1875 27.945312 81.1875 C 27.910156 81.1875 27.722656 81.363281 27.523438 81.578125 M 10.648438 82.4375 C 10.648438 82.457031 10.390625 82.847656 10.070312 83.308594 C 9.753906 83.769531 9.472656 84.1875 9.445312 84.234375 C 9.402344 84.316406 9.433594 84.363281 9.8125 84.753906 C 10.5 85.457031 10.640625 85.679688 10.453125 85.78125 C 10.414062 85.800781 9.695312 85.828125 8.863281 85.839844 C 7.011719 85.867188 6.417969 85.9375 5.511719 86.230469 C 4.773438 86.472656 4.234375 86.855469 4.003906 87.308594 C 3.851562 87.609375 3.824219 88.121094 3.945312 88.367188 C 4.160156 88.785156 4.660156 88.914062 6.136719 88.925781 C 6.917969 88.933594 7.09375 88.953125 7.09375 89.046875 C 7.09375 89.199219 6.1875 89.335938 4.910156 89.367188 C 2.976562 89.417969 2.019531 89.132812 1.601562 88.371094 C 1.480469 88.15625 1.476562 88.128906 1.480469 87.644531 C 1.480469 87.371094 1.496094 86.976562 1.515625 86.769531 C 1.550781 86.339844 1.519531 86.203125 1.347656 86.09375 C 0.957031 85.835938 0.574219 86.195312 0.269531 87.101562 C 0 87.902344 -0.078125 88.871094 0.0625 89.582031 C 0.257812 90.542969 0.84375 91.1875 1.816406 91.507812 C 2.34375 91.679688 2.839844 91.738281 3.785156 91.738281 C 6.175781 91.738281 7.503906 91.128906 7.875 89.855469 C 8.097656 89.09375 7.949219 88.472656 7.480469 88.195312 C 7.175781 88.015625 6.863281 87.960938 5.949219 87.921875 C 5.121094 87.886719 4.949219 87.863281 4.949219 87.789062 C 4.949219 87.71875 5.195312 87.628906 5.496094 87.578125 C 5.882812 87.519531 6.871094 87.554688 7.230469 87.644531 C 7.597656 87.734375 7.75 87.824219 8.1875 88.207031 C 8.398438 88.390625 8.609375 88.5625 8.652344 88.585938 C 8.773438 88.652344 9.792969 88.636719 10.125 88.566406 C 10.523438 88.480469 10.898438 88.296875 11.152344 88.058594 C 11.648438 87.589844 11.898438 86.570312 11.84375 85.222656 C 11.796875 84.144531 11.535156 83.351562 10.972656 82.621094 C 10.878906 82.492188 10.773438 82.398438 10.726562 82.398438 C 10.683594 82.398438 10.648438 82.417969 10.648438 82.4375 M 54.71875 83.496094 C 54.457031 83.761719 54.292969 83.960938 54.292969 84.011719 C 54.292969 84.097656 55.152344 84.992188 55.234375 84.992188 C 55.289062 84.992188 56.179688 84.085938 56.195312 84.011719 C 56.210938 83.945312 55.292969 83.070312 55.207031 83.070312 C 55.171875 83.070312 54.953125 83.261719 54.71875 83.496094 M 87.460938 83.496094 C 87.199219 83.761719 87.035156 83.960938 87.035156 84.011719 C 87.035156 84.101562 87.894531 84.992188 87.984375 84.992188 C 88.039062 84.992188 88.921875 84.085938 88.9375 84.011719 C 88.953125 83.941406 88.039062 83.070312 87.949219 83.070312 C 87.914062 83.070312 87.691406 83.261719 87.460938 83.496094 M 75.738281 83.234375 C 75.492188 83.335938 75.433594 83.628906 75.644531 83.726562 C 75.761719 83.785156 76.558594 83.804688 76.6875 83.753906 C 76.785156 83.71875 76.777344 83.679688 76.625 83.507812 C 76.390625 83.238281 76.011719 83.121094 75.738281 83.234375 M 57.921875 84.375 C 57.898438 84.402344 57.640625 84.894531 57.347656 85.464844 L 56.820312 86.503906 L 57.191406 86.886719 C 57.859375 87.566406 58.121094 87.945312 58.121094 88.238281 C 58.121094 88.367188 58.089844 88.421875 57.941406 88.566406 C 57.605469 88.886719 56.984375 89.015625 55.789062 89.019531 C 54.730469 89.023438 54.195312 88.917969 53.757812 88.617188 C 53.390625 88.367188 53.300781 88.078125 53.394531 87.472656 C 53.519531 86.660156 53.464844 86.269531 53.207031 86.160156 C 52.746094 85.96875 52.328125 86.679688 52.109375 88.042969 C 51.984375 88.832031 52.042969 89.636719 52.265625 90.132812 C 52.765625 91.261719 54.160156 91.84375 55.992188 91.6875 C 56.960938 91.605469 57.566406 91.40625 58.105469 90.996094 C 59.230469 90.140625 59.632812 88.082031 59.050781 86.171875 C 58.933594 85.78125 58.578125 85.035156 58.335938 84.671875 C 58.171875 84.417969 57.988281 84.289062 57.921875 84.375 M 90.660156 84.378906 C 90.640625 84.40625 90.382812 84.894531 90.09375 85.464844 L 89.5625 86.5 L 89.808594 86.738281 C 90.125 87.050781 90.472656 87.457031 90.6875 87.769531 C 90.828125 87.96875 90.859375 88.050781 90.859375 88.203125 C 90.859375 88.371094 90.839844 88.410156 90.675781 88.570312 C 90.347656 88.886719 89.730469 89.015625 88.53125 89.019531 C 87.46875 89.023438 86.9375 88.917969 86.5 88.617188 C 86.132812 88.367188 86.039062 88.074219 86.132812 87.492188 C 86.265625 86.6875 86.203125 86.234375 85.941406 86.148438 C 85.46875 85.996094 85.050781 86.734375 84.851562 88.066406 C 84.722656 88.910156 84.789062 89.675781 85.027344 90.191406 C 85.535156 91.273438 86.9375 91.839844 88.734375 91.6875 C 90.265625 91.554688 91.09375 91.078125 91.628906 90.015625 C 92.03125 89.207031 92.175781 87.851562 91.960938 86.808594 C 91.804688 86.035156 91.367188 85.019531 90.984375 84.527344 C 90.851562 84.363281 90.71875 84.300781 90.660156 84.378906 M 131.183594 84.667969 C 131.160156 84.695312 130.917969 85.171875 130.640625 85.726562 L 130.140625 86.734375 L 130.628906 87.210938 C 130.898438 87.472656 131.207031 87.808594 131.3125 87.953125 C 131.609375 88.363281 131.582031 88.507812 131.105469 88.964844 C 130.765625 89.296875 130.21875 89.707031 129.484375 90.1875 C 128.929688 90.550781 128.210938 90.96875 128.140625 90.96875 C 128.121094 90.96875 128.042969 91.019531 127.976562 91.078125 C 127.746094 91.269531 127.765625 91.613281 128.007812 91.742188 C 128.113281 91.796875 128.367188 91.804688 129.71875 91.804688 C 131.503906 91.804688 131.425781 91.820312 131.703125 91.484375 C 132.484375 90.542969 132.847656 89.136719 132.71875 87.546875 C 132.617188 86.320312 132.300781 85.570312 131.578125 84.875 C 131.292969 84.601562 131.253906 84.582031 131.183594 84.667969 M 18.355469 84.910156 C 18.09375 85.019531 18.0625 85.691406 18.296875 86.171875 C 18.445312 86.472656 18.691406 86.722656 18.878906 86.761719 C 19.265625 86.835938 19.457031 86.320312 19.269531 85.710938 C 19.09375 85.144531 18.671875 84.773438 18.355469 84.910156 M 124.339844 90.039062 C 124.117188 90.265625 123.933594 90.46875 123.933594 90.492188 C 123.933594 90.53125 124.253906 90.851562 124.652344 91.21875 L 124.804688 91.359375 L 125.171875 91 L 125.539062 90.636719 L 125.808594 90.910156 C 125.957031 91.0625 126.132812 91.222656 126.195312 91.269531 L 126.316406 91.359375 L 126.726562 90.945312 C 126.953125 90.71875 127.136719 90.503906 127.136719 90.46875 C 127.136719 90.394531 126.335938 89.632812 126.257812 89.632812 C 126.230469 89.632812 126.050781 89.785156 125.863281 89.972656 L 125.523438 90.3125 L 125.160156 89.972656 C 124.960938 89.785156 124.785156 89.632812 124.769531 89.632812 C 124.757812 89.632812 124.5625 89.816406 124.339844 90.039062 M 92.78125 93.359375 C 92.363281 93.734375 92.3125 93.796875 92.332031 93.894531 C 92.34375 93.953125 92.421875 94.28125 92.503906 94.628906 C 92.761719 95.734375 92.835938 96.425781 92.707031 96.535156 C 92.648438 96.582031 92.140625 96.59375 89.863281 96.605469 L 87.09375 96.617188 L 87 96.304688 C 86.707031 95.300781 85.808594 95.101562 85.355469 95.9375 C 85.1875 96.25 85.074219 96.738281 85.066406 97.203125 C 85.058594 97.554688 85.070312 97.625 85.164062 97.804688 C 85.308594 98.089844 85.519531 98.195312 86.023438 98.230469 C 86.234375 98.246094 86.410156 98.273438 86.410156 98.289062 C 86.410156 98.332031 85.921875 98.722656 85.589844 98.949219 C 85.449219 99.042969 85.128906 99.230469 84.882812 99.359375 C 84.402344 99.613281 84.371094 99.636719 84.371094 99.777344 C 84.371094 99.988281 84.425781 100 85.472656 100 L 86.445312 100 L 86.59375 99.820312 C 86.851562 99.503906 87.039062 98.996094 87.097656 98.453125 L 87.128906 98.203125 L 90.019531 98.203125 C 92.871094 98.203125 92.917969 98.199219 93.09375 98.113281 C 93.316406 98.007812 93.496094 97.792969 93.617188 97.492188 C 93.707031 97.273438 93.710938 97.203125 93.707031 96.238281 C 93.707031 95.675781 93.691406 95.042969 93.675781 94.832031 L 93.644531 94.449219 L 93.835938 94.472656 C 94 94.488281 94.023438 94.484375 94.023438 94.410156 C 94.023438 94.367188 93.886719 94.019531 93.71875 93.644531 C 93.488281 93.128906 93.390625 92.953125 93.332031 92.945312 C 93.28125 92.9375 93.085938 93.082031 92.78125 93.359375 M 45.570312 93.007812 C 45.546875 93.027344 45.28125 93.308594 44.980469 93.640625 C 44.515625 94.152344 44.4375 94.257812 44.453125 94.351562 C 44.464844 94.410156 44.550781 94.96875 44.644531 95.589844 C 44.855469 97.011719 44.996094 97.777344 45.082031 97.992188 C 45.300781 98.542969 45.652344 98.019531 45.828125 96.882812 C 45.957031 96.054688 45.914062 94.421875 45.742188 93.398438 C 45.679688 93.03125 45.648438 92.960938 45.570312 93.007812 M 51.414062 93.585938 C 51.109375 93.921875 50.855469 94.230469 50.847656 94.265625 C 50.832031 94.351562 51.226562 96.914062 51.339844 97.5 C 51.425781 97.929688 51.492188 98.105469 51.601562 98.195312 C 51.804688 98.367188 52.054688 97.84375 52.21875 96.90625 C 52.257812 96.691406 52.273438 96.226562 52.269531 95.441406 C 52.265625 94.484375 52.25 94.195312 52.175781 93.699219 C 52.082031 93.074219 52.058594 92.976562 52.003906 92.976562 C 51.984375 92.976562 51.71875 93.25 51.414062 93.585938 M 107.105469 93.085938 C 106.566406 93.453125 106.125 93.78125 106.09375 93.84375 C 106.074219 93.886719 106.070312 94.035156 106.089844 94.1875 C 106.109375 94.339844 106.144531 95.070312 106.171875 95.820312 C 106.195312 96.566406 106.234375 97.265625 106.257812 97.375 C 106.332031 97.703125 106.511719 97.941406 106.785156 98.070312 L 107.023438 98.179688 L 111.140625 98.191406 C 114.25 98.199219 115.289062 98.191406 115.378906 98.152344 C 115.445312 98.125 115.550781 98.035156 115.613281 97.949219 L 115.726562 97.792969 L 115.839844 97.9375 C 116.125 98.296875 116.632812 98.292969 116.878906 97.925781 C 116.976562 97.777344 116.980469 97.777344 117.027344 97.867188 C 117.113281 98.027344 117.4375 98.203125 117.652344 98.203125 C 118.011719 98.203125 118.253906 97.941406 118.449219 97.34375 C 118.535156 97.09375 118.546875 96.96875 118.546875 96.445312 C 118.546875 95.96875 118.53125 95.792969 118.472656 95.621094 C 118.429688 95.5 118.378906 95.394531 118.359375 95.378906 C 118.328125 95.359375 117.917969 95.761719 117.851562 95.878906 C 117.835938 95.90625 117.859375 96.027344 117.902344 96.148438 C 117.949219 96.265625 117.984375 96.398438 117.984375 96.445312 C 117.984375 96.570312 117.871094 96.65625 117.699219 96.65625 C 117.46875 96.65625 117.34375 96.539062 117.285156 96.261719 C 117.214844 95.957031 117.121094 95.839844 116.972656 95.875 C 116.847656 95.910156 116.761719 96.054688 116.71875 96.308594 C 116.679688 96.542969 116.574219 96.632812 116.378906 96.601562 C 116.183594 96.566406 116.085938 96.476562 116.050781 96.289062 C 115.992188 95.976562 115.851562 95.820312 115.683594 95.886719 C 115.648438 95.898438 115.578125 96.015625 115.53125 96.148438 C 115.484375 96.277344 115.433594 96.410156 115.414062 96.445312 C 115.320312 96.613281 115.320312 96.613281 111.382812 96.601562 L 107.585938 96.59375 L 107.472656 96.476562 L 107.355469 96.359375 L 107.34375 94.699219 C 107.335938 93.785156 107.316406 93.023438 107.300781 93.007812 C 107.28125 92.988281 107.195312 93.023438 107.105469 93.085938 M 42.796875 93.300781 C 42.667969 93.433594 42.558594 93.5625 42.558594 93.585938 C 42.558594 93.640625 43.070312 94.148438 43.125 94.148438 C 43.148438 94.148438 43.285156 94.023438 43.433594 93.875 L 43.703125 93.605469 L 43.433594 93.332031 C 43.285156 93.183594 43.136719 93.058594 43.101562 93.058594 C 43.066406 93.058594 42.929688 93.167969 42.796875 93.300781 M 7.078125 93.542969 C 6.359375 93.777344 5.757812 93.988281 5.734375 94.011719 C 5.714844 94.03125 5.652344 94.3125 5.597656 94.632812 L 5.5 95.210938 L 5.777344 95.460938 C 6.183594 95.824219 6.605469 96.273438 6.636719 96.371094 C 6.675781 96.488281 6.621094 96.527344 6.339844 96.574219 C 6.023438 96.625 5.175781 96.625 5.078125 96.574219 C 5.007812 96.535156 5.007812 96.523438 5.082031 96.300781 C 5.148438 96.101562 5.152344 96.050781 5.109375 95.953125 C 5.019531 95.765625 4.929688 95.792969 4.601562 96.097656 C 4.246094 96.433594 3.898438 96.617188 3.378906 96.75 C 3.082031 96.824219 2.890625 96.839844 2.308594 96.839844 C 1.113281 96.84375 0.824219 96.679688 0.726562 95.925781 C 0.683594 95.574219 0.46875 95.453125 0.292969 95.679688 C 0.109375 95.914062 0 96.621094 0.0742188 97.097656 C 0.191406 97.835938 0.53125 98.199219 1.242188 98.351562 C 1.828125 98.476562 2.804688 98.398438 3.417969 98.175781 C 3.761719 98.054688 3.9375 97.957031 4.191406 97.753906 L 4.363281 97.613281 L 4.425781 97.734375 C 4.515625 97.90625 4.757812 98.105469 4.941406 98.164062 C 5.046875 98.195312 5.34375 98.207031 5.785156 98.195312 C 6.429688 98.179688 6.484375 98.171875 6.722656 98.0625 C 7.023438 97.921875 7.328125 97.632812 7.445312 97.363281 C 7.632812 96.929688 7.632812 96.210938 7.441406 95.726562 C 7.359375 95.515625 7.167969 95.207031 7.015625 95.035156 C 6.972656 94.984375 6.945312 94.925781 6.964844 94.910156 C 6.980469 94.894531 7.308594 94.773438 7.6875 94.648438 L 8.382812 94.417969 L 8.429688 94.023438 C 8.542969 93.035156 8.539062 93.101562 8.457031 93.105469 C 8.417969 93.109375 7.796875 93.304688 7.078125 93.542969 M 124.914062 93.554688 L 123.582031 94 L 123.492188 94.480469 C 123.351562 95.238281 123.3125 95.136719 123.957031 95.785156 C 124.679688 96.515625 124.683594 96.566406 124.039062 96.652344 C 122.980469 96.789062 121.96875 96.742188 121.566406 96.539062 C 121.265625 96.386719 121.1875 96.273438 121.148438 95.90625 C 121.113281 95.578125 121.0625 95.484375 120.917969 95.484375 C 120.644531 95.484375 120.390625 96.375 120.480469 97.007812 C 120.578125 97.726562 120.957031 98.085938 121.777344 98.25 C 122.128906 98.320312 123.660156 98.320312 124.015625 98.25 C 124.898438 98.074219 125.320312 97.660156 125.4375 96.855469 C 125.527344 96.246094 125.371094 95.667969 124.980469 95.152344 C 124.886719 95.027344 124.824219 94.910156 124.839844 94.894531 C 124.855469 94.878906 125.160156 94.777344 125.515625 94.667969 C 125.871094 94.558594 126.183594 94.449219 126.214844 94.421875 C 126.246094 94.390625 126.292969 94.144531 126.328125 93.808594 C 126.40625 93.09375 126.40625 93.101562 126.316406 93.105469 C 126.277344 93.109375 125.644531 93.3125 124.914062 93.554688 M 19.042969 93.386719 C 18.910156 93.519531 18.804688 93.648438 18.804688 93.671875 C 18.804688 93.695312 18.914062 93.8125 19.046875 93.929688 L 19.289062 94.140625 L 19.535156 93.894531 L 19.78125 93.644531 L 19.28125 93.144531 L 19.042969 93.386719 M 60.957031 93.578125 C 60.238281 93.816406 59.632812 94.03125 59.609375 94.054688 C 59.582031 94.082031 59.519531 94.363281 59.46875 94.679688 L 59.378906 95.253906 L 59.933594 95.84375 C 60.242188 96.171875 60.492188 96.453125 60.492188 96.476562 C 60.492188 96.566406 60.320312 96.582031 59.199219 96.613281 C 58.015625 96.648438 57.710938 96.6875 57.230469 96.867188 C 56.882812 96.996094 56.617188 97.191406 56.5 97.40625 C 56.375 97.636719 56.359375 97.925781 56.46875 98.09375 C 56.597656 98.289062 56.78125 98.339844 57.496094 98.359375 C 58.46875 98.390625 58.492188 98.484375 57.554688 98.582031 C 56.496094 98.691406 55.628906 98.566406 55.289062 98.261719 C 55.0625 98.050781 55.023438 97.90625 55.058594 97.34375 C 55.085938 96.898438 55.082031 96.863281 55 96.785156 C 54.789062 96.570312 54.535156 96.777344 54.359375 97.308594 C 54.199219 97.800781 54.152344 98.175781 54.207031 98.5625 C 54.347656 99.582031 54.953125 99.972656 56.394531 99.96875 C 57.90625 99.964844 58.679688 99.515625 58.730469 98.597656 C 58.753906 98.226562 58.671875 98.058594 58.398438 97.914062 C 58.238281 97.832031 58.125 97.8125 57.675781 97.796875 C 57.09375 97.773438 56.96875 97.742188 57.113281 97.664062 C 57.347656 97.539062 58.253906 97.574219 58.535156 97.722656 C 58.601562 97.753906 58.761719 97.878906 58.894531 97.996094 L 59.136719 98.210938 L 59.742188 98.191406 C 60.214844 98.175781 60.398438 98.15625 60.585938 98.085938 C 60.867188 97.984375 61.117188 97.796875 61.238281 97.597656 L 61.328125 97.453125 L 61.492188 97.621094 C 61.703125 97.832031 62.121094 98.105469 62.316406 98.160156 C 62.53125 98.21875 73.394531 98.21875 73.609375 98.15625 C 73.695312 98.132812 73.839844 98.042969 73.925781 97.953125 L 74.085938 97.792969 L 74.226562 97.941406 C 74.449219 98.175781 74.554688 98.203125 75.269531 98.203125 C 75.984375 98.199219 76.148438 98.15625 76.351562 97.914062 L 76.464844 97.777344 L 76.574219 97.910156 C 76.765625 98.136719 76.953125 98.203125 77.410156 98.203125 L 77.8125 98.203125 L 78.203125 97.796875 L 78.273438 97.917969 C 78.359375 98.0625 78.628906 98.199219 78.832031 98.203125 C 79.03125 98.203125 79.238281 98.089844 79.339844 97.925781 L 79.425781 97.785156 L 79.53125 97.910156 C 79.699219 98.113281 79.9375 98.214844 80.179688 98.191406 C 80.34375 98.175781 80.414062 98.144531 80.542969 98.015625 C 80.871094 97.695312 81.070312 96.984375 81.03125 96.28125 C 81.007812 95.882812 80.890625 95.398438 80.8125 95.371094 C 80.785156 95.363281 80.660156 95.480469 80.527344 95.632812 L 80.285156 95.910156 L 80.371094 96.179688 C 80.488281 96.535156 80.429688 96.65625 80.148438 96.65625 C 79.925781 96.65625 79.839844 96.570312 79.75 96.273438 C 79.703125 96.117188 79.636719 95.960938 79.601562 95.925781 C 79.445312 95.765625 79.242188 95.933594 79.191406 96.261719 C 79.160156 96.488281 79.050781 96.613281 78.886719 96.613281 C 78.703125 96.613281 78.5625 96.476562 78.507812 96.242188 C 78.457031 96.035156 78.335938 95.859375 78.242188 95.859375 C 78.132812 95.859375 78.046875 95.972656 77.953125 96.234375 C 77.839844 96.5625 77.761719 96.613281 77.382812 96.609375 C 76.878906 96.609375 76.78125 96.535156 76.652344 96.0625 C 76.585938 95.808594 76.5 95.722656 76.351562 95.761719 C 76.257812 95.789062 76.214844 95.859375 76.089844 96.207031 C 75.957031 96.570312 75.902344 96.59375 75.191406 96.59375 C 74.425781 96.59375 74.402344 96.578125 74.261719 96.050781 C 74.207031 95.839844 74.179688 95.796875 74.066406 95.761719 C 73.933594 95.71875 73.832031 95.839844 73.722656 96.167969 C 73.566406 96.640625 74.210938 96.589844 67.980469 96.605469 C 64.128906 96.613281 62.488281 96.605469 62.335938 96.574219 C 62.21875 96.546875 62.03125 96.460938 61.921875 96.382812 C 61.695312 96.222656 60.644531 95.0625 60.691406 95.019531 C 60.707031 95.003906 61.054688 94.875 61.46875 94.734375 C 61.878906 94.59375 62.230469 94.464844 62.246094 94.449219 C 62.261719 94.433594 62.292969 94.191406 62.320312 93.917969 C 62.34375 93.640625 62.375 93.355469 62.386719 93.28125 C 62.402344 93.167969 62.394531 93.144531 62.332031 93.148438 C 62.292969 93.148438 61.671875 93.34375 60.957031 93.578125 M 82.777344 93.71875 L 82.539062 93.960938 L 82.78125 94.199219 C 82.914062 94.332031 83.042969 94.441406 83.066406 94.441406 C 83.09375 94.441406 83.214844 94.324219 83.332031 94.1875 L 83.550781 93.929688 L 83.304688 93.707031 C 83.171875 93.582031 83.050781 93.480469 83.039062 93.480469 C 83.027344 93.480469 82.910156 93.585938 82.777344 93.71875 M 29.824219 94.140625 C 29.6875 94.273438 29.578125 94.410156 29.578125 94.445312 C 29.578125 94.476562 29.703125 94.625 29.851562 94.773438 L 30.121094 95.042969 L 30.390625 94.773438 C 30.539062 94.625 30.660156 94.484375 30.660156 94.460938 C 30.660156 94.40625 30.15625 93.894531 30.101562 93.894531 C 30.082031 93.894531 29.957031 94.007812 29.824219 94.140625 M 72.910156 94.1875 L 72.660156 94.441406 L 73.179688 94.960938 L 73.382812 94.757812 L 73.589844 94.554688 L 73.820312 94.75 L 74.050781 94.949219 L 74.28125 94.730469 C 74.40625 94.609375 74.511719 94.480469 74.511719 94.441406 C 74.511719 94.402344 74.398438 94.269531 74.257812 94.148438 L 74.003906 93.925781 L 73.800781 94.128906 L 73.597656 94.328125 L 73.390625 94.132812 C 73.277344 94.027344 73.175781 93.9375 73.167969 93.9375 C 73.164062 93.9375 73.042969 94.050781 72.910156 94.1875 M 18.554688 94.210938 L 18.328125 94.441406 L 18.554688 94.667969 C 18.679688 94.796875 18.800781 94.898438 18.824219 94.898438 C 18.84375 94.898438 18.953125 94.8125 19.0625 94.703125 L 19.257812 94.507812 L 19.726562 94.953125 L 19.953125 94.730469 C 20.074219 94.605469 20.175781 94.476562 20.175781 94.4375 C 20.175781 94.375 19.761719 93.980469 19.691406 93.980469 C 19.675781 93.980469 19.570312 94.070312 19.460938 94.175781 L 19.261719 94.375 L 19.0625 94.175781 C 18.953125 94.070312 18.84375 93.980469 18.824219 93.980469 C 18.800781 93.980469 18.679688 94.082031 18.554688 94.210938 M 104.746094 94.429688 C 104.613281 94.5625 104.507812 94.691406 104.507812 94.714844 C 104.507812 94.773438 105.019531 95.277344 105.078125 95.277344 C 105.132812 95.277344 105.585938 94.773438 105.589844 94.710938 C 105.589844 94.644531 105.113281 94.1875 105.042969 94.1875 C 105.011719 94.1875 104.875 94.296875 104.746094 94.429688 M 82.339844 94.492188 C 82.222656 94.613281 82.125 94.734375 82.125 94.757812 C 82.125 94.808594 82.550781 95.234375 82.605469 95.234375 C 82.628906 95.234375 82.738281 95.140625 82.851562 95.023438 L 83.058594 94.816406 L 83.496094 95.253906 L 83.726562 95.023438 C 83.851562 94.898438 83.953125 94.777344 83.953125 94.753906 C 83.953125 94.695312 83.527344 94.273438 83.46875 94.273438 C 83.445312 94.273438 83.339844 94.363281 83.234375 94.476562 L 83.046875 94.679688 L 82.847656 94.476562 C 82.738281 94.363281 82.628906 94.273438 82.601562 94.273438 C 82.578125 94.273438 82.460938 94.371094 82.339844 94.492188 M 1.714844 94.535156 C 1.59375 94.65625 1.496094 94.773438 1.496094 94.796875 C 1.496094 94.820312 1.609375 94.949219 1.742188 95.082031 L 1.988281 95.328125 L 2.199219 95.101562 L 2.410156 94.878906 L 2.609375 95.078125 C 2.71875 95.1875 2.828125 95.277344 2.851562 95.277344 C 2.875 95.277344 2.996094 95.171875 3.121094 95.046875 L 3.347656 94.816406 L 3.089844 94.554688 L 2.832031 94.296875 L 2.417969 94.703125 L 2.203125 94.507812 C 2.085938 94.402344 1.976562 94.3125 1.960938 94.3125 C 1.945312 94.3125 1.835938 94.414062 1.714844 94.535156 M 43.265625 94.808594 C 43.207031 94.890625 43.039062 95.136719 42.894531 95.347656 L 42.628906 95.730469 L 42.949219 96.070312 C 43.265625 96.410156 43.328125 96.539062 43.203125 96.589844 C 43.078125 96.636719 41.738281 96.613281 41.511719 96.5625 L 41.289062 96.507812 L 41.582031 96.488281 L 41.871094 96.46875 L 42.050781 95.890625 C 42.152344 95.570312 42.222656 95.285156 42.210938 95.25 C 42.191406 95.207031 42.09375 95.191406 41.78125 95.191406 C 41.296875 95.191406 41.027344 95.136719 40.238281 94.882812 C 39.570312 94.667969 39.320312 94.644531 39.066406 94.773438 C 38.640625 94.992188 38.183594 95.953125 38.355469 96.273438 C 38.429688 96.414062 38.601562 96.386719 38.832031 96.195312 C 39.007812 96.050781 39.058594 96.027344 39.242188 96.027344 C 39.460938 96.027344 40.273438 96.226562 40.273438 96.28125 C 40.273438 96.316406 39.792969 96.46875 39.503906 96.53125 C 39.222656 96.585938 38.050781 96.632812 37.8125 96.597656 C 37.515625 96.550781 37.453125 96.46875 37.34375 95.976562 C 37.328125 95.914062 37.269531 95.832031 37.214844 95.792969 C 37.054688 95.691406 36.9375 95.789062 36.839844 96.105469 C 36.75 96.414062 36.664062 96.511719 36.445312 96.570312 C 36.335938 96.601562 35.472656 96.613281 33.828125 96.605469 C 30.964844 96.589844 31.191406 96.628906 31.066406 96.132812 C 30.984375 95.804688 30.960938 95.765625 30.804688 95.765625 C 30.664062 95.765625 30.59375 95.855469 30.507812 96.148438 C 30.390625 96.5625 30.210938 96.640625 29.503906 96.605469 C 29.074219 96.582031 28.996094 96.546875 28.589844 96.171875 C 28.421875 96.019531 28.28125 95.898438 28.273438 95.910156 C 28.265625 95.917969 28.125 96.195312 27.957031 96.523438 L 27.660156 97.125 L 27.976562 97.449219 C 28.382812 97.855469 28.472656 97.992188 28.417969 98.128906 C 28.339844 98.339844 27.566406 98.9375 26.832031 99.355469 C 26.394531 99.605469 26.335938 99.65625 26.335938 99.773438 C 26.335938 99.988281 26.386719 100 27.4375 100 L 28.40625 100 L 28.519531 99.867188 C 28.792969 99.542969 29.082031 98.796875 29.082031 98.421875 L 29.082031 98.179688 L 29.683594 98.195312 C 30.238281 98.207031 30.304688 98.199219 30.476562 98.117188 C 30.582031 98.066406 30.707031 97.972656 30.753906 97.902344 L 30.84375 97.78125 L 31.011719 97.949219 C 31.105469 98.039062 31.234375 98.132812 31.296875 98.15625 C 31.375 98.1875 32.28125 98.203125 34.003906 98.203125 C 36.449219 98.199219 36.597656 98.195312 36.761719 98.121094 C 36.859375 98.078125 36.988281 97.984375 37.050781 97.914062 L 37.164062 97.785156 L 37.320312 97.949219 C 37.546875 98.183594 37.6875 98.214844 38.375 98.191406 C 38.792969 98.175781 39.03125 98.144531 39.210938 98.085938 C 39.636719 97.949219 40.046875 97.714844 40.332031 97.445312 C 40.484375 97.304688 40.613281 97.195312 40.617188 97.203125 C 40.625 97.210938 40.664062 97.308594 40.703125 97.417969 C 40.804688 97.691406 41.097656 98.003906 41.355469 98.117188 C 41.558594 98.203125 41.621094 98.207031 42.347656 98.195312 C 43.082031 98.183594 43.132812 98.175781 43.355469 98.070312 C 43.757812 97.882812 43.9375 97.5625 44.019531 96.898438 C 44.09375 96.277344 44.023438 95.695312 43.816406 95.222656 C 43.710938 94.980469 43.476562 94.648438 43.414062 94.652344 C 43.390625 94.652344 43.324219 94.722656 43.265625 94.808594 M 24.589844 95.15625 C 24.273438 95.316406 24.035156 95.597656 23.773438 96.132812 C 23.488281 96.71875 23.390625 97.269531 23.527344 97.53125 C 23.667969 97.804688 23.867188 97.875 24.789062 97.976562 C 25.148438 98.015625 25.457031 98.0625 25.476562 98.078125 C 25.578125 98.171875 24.917969 98.351562 24.25 98.414062 C 23.402344 98.492188 22.667969 98.355469 22.394531 98.066406 C 22.175781 97.832031 22.160156 97.777344 22.191406 97.222656 C 22.207031 96.945312 22.210938 96.6875 22.195312 96.648438 C 22.179688 96.609375 22.113281 96.554688 22.042969 96.527344 C 21.933594 96.484375 21.90625 96.488281 21.808594 96.558594 C 21.5625 96.742188 21.320312 97.691406 21.355469 98.347656 C 21.378906 98.816406 21.492188 99.132812 21.734375 99.402344 C 22.042969 99.75 22.449219 99.914062 23.152344 99.976562 C 23.546875 100.015625 24.277344 99.933594 24.667969 99.808594 C 25.597656 99.515625 26.0625 98.847656 26.0625 97.804688 C 26.0625 97.5 26.042969 97.394531 25.972656 97.257812 C 25.832031 96.996094 25.730469 96.949219 25.0625 96.859375 C 24.164062 96.738281 24.101562 96.695312 24.460938 96.425781 C 24.753906 96.210938 25.34375 96.203125 25.773438 96.414062 C 26.011719 96.53125 26.0625 96.488281 26.0625 96.164062 C 26.058594 95.761719 25.761719 95.285156 25.40625 95.113281 C 25.144531 94.984375 24.902344 95 24.589844 95.15625 M 101.484375 95.09375 C 100.898438 95.300781 100.261719 96.417969 100.261719 97.234375 C 100.261719 97.460938 100.277344 97.507812 100.390625 97.636719 C 100.558594 97.824219 100.769531 97.886719 101.574219 97.976562 C 102.410156 98.066406 102.457031 98.117188 101.839844 98.285156 C 101.363281 98.414062 100.664062 98.46875 100.175781 98.414062 C 99.683594 98.359375 99.347656 98.242188 99.160156 98.050781 C 98.957031 97.847656 98.917969 97.660156 98.980469 97.160156 C 99.023438 96.789062 99.023438 96.738281 98.960938 96.640625 C 98.851562 96.472656 98.699219 96.453125 98.554688 96.59375 C 98.339844 96.800781 98.140625 97.589844 98.140625 98.238281 C 98.140625 99.324219 98.707031 99.875 99.929688 99.976562 C 100.292969 100.007812 100.96875 99.945312 101.324219 99.851562 C 101.726562 99.746094 102.070312 99.554688 102.316406 99.292969 C 102.691406 98.898438 102.839844 98.484375 102.84375 97.84375 C 102.84375 97.453125 102.792969 97.269531 102.644531 97.105469 C 102.507812 96.957031 102.394531 96.925781 101.742188 96.84375 C 101.167969 96.773438 101.042969 96.730469 101.0625 96.621094 C 101.082031 96.503906 101.441406 96.292969 101.664062 96.265625 C 101.914062 96.230469 102.28125 96.289062 102.535156 96.402344 C 102.785156 96.515625 102.84375 96.472656 102.84375 96.167969 C 102.84375 95.902344 102.773438 95.71875 102.570312 95.441406 C 102.304688 95.078125 101.894531 94.949219 101.484375 95.09375 M 20.332031 95.632812 L 20.089844 95.902344 L 20.183594 96.195312 C 20.273438 96.476562 20.273438 96.488281 20.199219 96.570312 C 20.113281 96.667969 19.910156 96.683594 19.742188 96.605469 C 19.660156 96.570312 19.621094 96.5 19.570312 96.324219 C 19.472656 95.96875 19.441406 95.90625 19.324219 95.878906 C 19.164062 95.839844 19.066406 95.957031 19.007812 96.246094 C 18.953125 96.515625 18.863281 96.613281 18.671875 96.613281 C 18.503906 96.613281 18.363281 96.457031 18.285156 96.183594 C 18.238281 96.007812 18.191406 95.929688 18.121094 95.898438 C 17.96875 95.828125 17.878906 95.90625 17.765625 96.222656 C 17.691406 96.421875 17.628906 96.523438 17.554688 96.558594 C 17.417969 96.628906 11.839844 96.636719 11.59375 96.570312 C 11.488281 96.539062 11.328125 96.421875 11.109375 96.214844 C 10.933594 96.042969 10.769531 95.902344 10.75 95.902344 C 10.726562 95.902344 10.574219 96.175781 10.410156 96.511719 L 10.109375 97.117188 L 10.4375 97.441406 C 10.785156 97.789062 10.917969 97.992188 10.878906 98.117188 C 10.816406 98.316406 9.730469 99.144531 9.140625 99.441406 C 8.859375 99.582031 8.777344 99.65625 8.777344 99.773438 C 8.777344 99.988281 8.832031 100 9.878906 100 L 10.851562 100 L 10.960938 99.867188 C 11.105469 99.695312 11.371094 99.160156 11.457031 98.875 C 11.492188 98.75 11.523438 98.542969 11.523438 98.414062 L 11.523438 98.179688 L 14.53125 98.195312 C 17.882812 98.207031 17.710938 98.222656 17.894531 97.921875 L 17.980469 97.78125 L 18.078125 97.921875 C 18.332031 98.296875 18.964844 98.285156 19.160156 97.90625 L 19.226562 97.773438 L 19.292969 97.867188 C 19.328125 97.917969 19.441406 98.015625 19.546875 98.082031 C 20.039062 98.394531 20.476562 98.109375 20.730469 97.304688 C 20.855469 96.894531 20.863281 95.957031 20.738281 95.613281 C 20.691406 95.488281 20.636719 95.378906 20.613281 95.371094 C 20.589844 95.367188 20.464844 95.480469 20.332031 95.632812 M 135.441406 95.621094 C 135.3125 95.765625 135.210938 95.902344 135.210938 95.929688 C 135.210938 95.953125 135.238281 96.054688 135.273438 96.152344 C 135.398438 96.515625 135.332031 96.65625 135.035156 96.65625 C 134.820312 96.65625 134.722656 96.5625 134.664062 96.296875 C 134.605469 96.03125 134.492188 95.859375 134.378906 95.859375 C 134.261719 95.859375 134.136719 96.050781 134.105469 96.265625 C 134.070312 96.492188 133.964844 96.613281 133.804688 96.613281 C 133.585938 96.613281 133.492188 96.527344 133.414062 96.253906 C 133.269531 95.769531 133.042969 95.738281 132.882812 96.183594 C 132.832031 96.316406 132.785156 96.449219 132.777344 96.476562 C 132.765625 96.507812 132.707031 96.550781 132.648438 96.574219 C 132.484375 96.636719 129.664062 96.625 129.453125 96.5625 C 129.335938 96.527344 129.179688 96.414062 128.964844 96.207031 C 128.789062 96.039062 128.632812 95.902344 128.609375 95.902344 C 128.589844 95.902344 128.4375 96.179688 128.269531 96.515625 L 127.964844 97.125 L 128.214844 97.351562 C 128.496094 97.605469 128.761719 97.949219 128.761719 98.054688 C 128.761719 98.253906 127.6875 99.09375 126.96875 99.457031 C 126.671875 99.609375 126.59375 99.734375 126.695312 99.894531 L 126.765625 100 L 128.710938 100 L 128.839844 99.851562 C 128.980469 99.695312 129.265625 99.117188 129.339844 98.851562 C 129.363281 98.757812 129.382812 98.570312 129.386719 98.433594 L 129.386719 98.179688 L 132.765625 98.179688 L 132.9375 97.988281 L 133.109375 97.800781 L 133.191406 97.921875 C 133.324219 98.121094 133.527344 98.210938 133.792969 98.191406 C 133.992188 98.175781 134.035156 98.15625 134.179688 97.996094 L 134.34375 97.824219 L 134.507812 97.972656 C 135.179688 98.582031 135.839844 97.953125 135.941406 96.613281 C 135.976562 96.148438 135.828125 95.359375 135.707031 95.359375 C 135.6875 95.359375 135.570312 95.476562 135.441406 95.621094 M 49.117188 95.460938 C 49.03125 95.496094 48.90625 95.570312 48.84375 95.632812 C 48.550781 95.914062 48.335938 96.558594 48.328125 97.195312 C 48.324219 97.542969 48.335938 97.625 48.425781 97.804688 C 48.566406 98.085938 48.769531 98.1875 49.300781 98.234375 L 49.695312 98.269531 L 49.507812 98.449219 C 49.265625 98.683594 48.570312 99.144531 48.082031 99.394531 C 47.671875 99.609375 47.636719 99.636719 47.636719 99.777344 C 47.632812 99.988281 47.691406 100 48.734375 100 C 49.683594 100 49.703125 100 49.785156 99.90625 C 50.042969 99.621094 50.238281 99.15625 50.34375 98.574219 C 50.429688 98.109375 50.417969 96.875 50.328125 96.53125 C 50.15625 95.90625 49.902344 95.539062 49.5625 95.445312 C 49.363281 95.390625 49.316406 95.390625 49.117188 95.460938 M 96.789062 95.910156 C 96.394531 96.273438 96.023438 97.042969 96.019531 97.492188 C 96.019531 98.140625 96.71875 98.453125 97.09375 97.972656 C 97.355469 97.636719 97.1875 97.039062 96.8125 96.964844 C 96.703125 96.941406 96.6875 96.921875 96.710938 96.847656 C 96.753906 96.703125 96.894531 96.441406 97.042969 96.222656 C 97.203125 95.992188 97.222656 95.84375 97.105469 95.777344 C 96.992188 95.71875 96.996094 95.714844 96.789062 95.910156 M 83.214844 95.957031 C 83.1875 95.988281 83.050781 96.257812 82.902344 96.558594 L 82.636719 97.109375 L 83.003906 97.484375 C 83.203125 97.695312 83.382812 97.910156 83.394531 97.96875 C 83.433594 98.117188 83.316406 98.292969 83.019531 98.53125 C 82.667969 98.820312 81.988281 99.269531 81.65625 99.441406 C 81.324219 99.609375 81.242188 99.730469 81.347656 99.894531 L 81.417969 100 L 83.375 100 L 83.519531 99.84375 C 83.882812 99.445312 84.078125 98.867188 84.109375 98.097656 C 84.148438 97.171875 83.988281 96.628906 83.542969 96.144531 C 83.308594 95.886719 83.28125 95.871094 83.214844 95.957031 M 104.746094 96.507812 L 104.445312 97.113281 L 104.761719 97.4375 C 105.304688 98 105.320312 98.0625 104.992188 98.386719 C 104.742188 98.632812 103.945312 99.1875 103.457031 99.453125 C 103.15625 99.617188 103.132812 99.640625 103.132812 99.765625 C 103.132812 99.839844 103.15625 99.921875 103.183594 99.949219 C 103.21875 99.984375 103.503906 100 104.207031 100 L 105.183594 100 L 105.316406 99.855469 C 105.507812 99.652344 105.652344 99.394531 105.78125 99.011719 C 105.875 98.734375 105.894531 98.589844 105.910156 98.09375 C 105.933594 97.398438 105.882812 97.019531 105.710938 96.65625 C 105.601562 96.421875 105.167969 95.902344 105.082031 95.902344 C 105.0625 95.902344 104.910156 96.175781 104.746094 96.507812 M 49.058594 96.679688 C 48.953125 96.753906 48.9375 96.886719 49.03125 96.921875 C 49.117188 96.957031 49.609375 96.957031 49.644531 96.921875 C 49.691406 96.875 49.625 96.78125 49.488281 96.699219 C 49.324219 96.597656 49.183594 96.589844 49.058594 96.679688 M 85.832031 96.664062 C 85.777344 96.695312 85.710938 96.75 85.683594 96.792969 C 85.617188 96.90625 85.71875 96.945312 86.070312 96.949219 C 86.328125 96.949219 86.371094 96.9375 86.359375 96.878906 C 86.328125 96.710938 85.996094 96.578125 85.832031 96.664062 M 36.007812 98.996094 L 35.757812 99.25 L 36.019531 99.507812 L 36.277344 99.769531 L 36.484375 99.5625 L 36.695312 99.355469 L 37.109375 99.769531 L 37.371094 99.507812 L 37.628906 99.246094 L 37.109375 98.726562 L 36.890625 98.945312 L 36.675781 99.164062 L 36.464844 98.953125 L 36.253906 98.746094 L 36.007812 98.996094 M 40.023438 99.019531 L 39.757812 99.296875 L 40.046875 99.585938 C 40.203125 99.746094 40.339844 99.875 40.347656 99.875 C 40.386719 99.875 40.894531 99.355469 40.894531 99.3125 C 40.894531 99.253906 40.386719 98.746094 40.328125 98.746094 C 40.304688 98.746094 40.167969 98.871094 40.023438 99.019531 M 75.28125 98.996094 L 75.03125 99.25 L 75.292969 99.507812 L 75.550781 99.769531 L 75.960938 99.359375 L 76.195312 99.5625 L 76.429688 99.761719 L 76.675781 99.515625 C 76.8125 99.382812 76.925781 99.257812 76.925781 99.242188 C 76.925781 99.226562 76.800781 99.105469 76.652344 98.976562 L 76.378906 98.734375 L 76.171875 98.933594 L 75.96875 99.136719 L 75.761719 98.941406 C 75.648438 98.832031 75.546875 98.746094 75.542969 98.746094 C 75.535156 98.746094 75.417969 98.859375 75.28125 98.996094 "/>
</g>
</svg>
