<?xml version="1.0" encoding="UTF-8"?>
<svg xmlns="http://www.w3.org/2000/svg" xmlns:xlink="http://www.w3.org/1999/xlink" width="137px" height="100px" viewBox="0 0 137 100" version="1.1">
<g id="surface1">
<path style=" stroke:none;fill-rule:evenodd;fill:rgb(4.705882%,23.529412%,54.901963%);fill-opacity:1;" d="M 76.496094 2.402344 L 73.304688 4.808594 L 73.304688 34.285156 L 74.492188 34.261719 L 74.476562 32.617188 L 74.457031 30.972656 L 77.097656 30.988281 L 79.734375 31 L 79.742188 15.5 C 79.75 6.976562 79.738281 0 79.71875 0 C 79.699219 0 78.25 1.082031 76.496094 2.402344 M 33.105469 26.675781 C 31.535156 26.828125 29.996094 27.496094 28.601562 28.625 C 28.140625 29 27.320312 29.828125 26.933594 30.308594 C 26.796875 30.480469 22.949219 35.644531 18.386719 41.785156 C 13.824219 47.925781 7.933594 55.855469 5.292969 59.40625 L 0.488281 65.867188 L 4.6875 65.894531 C 6.996094 65.914062 12.296875 65.921875 16.472656 65.917969 L 24.0625 65.90625 L 31.625 55.875 L 27.296875 55.84375 C 24.914062 55.828125 22.847656 55.808594 22.703125 55.800781 L 22.4375 55.789062 L 23.382812 54.496094 C 23.898438 53.78125 26.445312 50.273438 29.039062 46.699219 C 31.628906 43.121094 33.765625 40.183594 33.777344 40.164062 C 33.792969 40.148438 34.832031 41.648438 36.085938 43.5 C 37.339844 45.351562 38.378906 46.863281 38.394531 46.863281 C 38.417969 46.863281 45.691406 37.238281 45.710938 37.171875 C 45.726562 37.128906 41.574219 31.070312 41.179688 30.566406 C 40.734375 29.996094 39.828125 29.085938 39.269531 28.652344 C 37.359375 27.160156 35.21875 26.472656 33.105469 26.675781 M 57.039062 44.230469 L 57.039062 45.738281 L 58.527344 45.726562 L 60.011719 45.714844 L 60.023438 44.21875 L 60.035156 42.726562 L 57.039062 42.726562 L 57.039062 44.230469 M 60.78125 44.230469 L 60.78125 45.734375 L 63.777344 45.734375 L 63.777344 42.726562 L 60.78125 42.726562 L 60.78125 44.230469 M 57.039062 48.371094 L 57.039062 49.875 L 58.527344 49.863281 L 60.011719 49.855469 L 60.035156 46.863281 L 57.039062 46.863281 L 57.039062 48.371094 M 60.792969 48.359375 L 60.804688 49.855469 L 62.289062 49.863281 L 63.777344 49.875 L 63.777344 46.863281 L 60.78125 46.863281 L 60.792969 48.359375 M 50.148438 53.835938 C 48.210938 56.613281 46.621094 58.917969 46.617188 58.957031 C 46.617188 58.996094 47.664062 60.582031 48.945312 62.476562 L 51.277344 65.925781 L 58.378906 65.925781 C 62.285156 65.925781 65.484375 65.917969 65.484375 65.910156 C 65.484375 65.894531 61.308594 59.8125 55.289062 51.058594 C 54.433594 49.8125 53.71875 48.789062 53.703125 48.789062 C 53.691406 48.789062 52.089844 51.058594 50.148438 53.835938 M 125.585938 54.667969 C 125.570312 54.683594 125.558594 56.261719 125.558594 58.171875 L 125.558594 61.648438 L 126.511719 63.335938 C 127.039062 64.261719 127.578125 65.226562 127.710938 65.472656 L 127.949219 65.925781 L 128.3125 65.925781 L 128.679688 65.929688 L 128.6875 62.980469 L 128.699219 60.03125 L 131.050781 62.980469 L 133.402344 65.925781 L 134.949219 65.925781 L 136.5 65.929688 L 136.5 54.640625 L 133.421875 54.640625 L 133.410156 57.652344 L 133.402344 60.664062 L 131.089844 57.769531 C 129.820312 56.179688 128.746094 54.824219 128.707031 54.757812 L 128.628906 54.640625 L 127.121094 54.640625 C 126.292969 54.640625 125.601562 54.652344 125.585938 54.667969 M 118.671875 54.742188 C 118.25 54.875 117.859375 55.164062 117.515625 55.589844 C 117.304688 55.855469 116.628906 56.910156 115.636719 58.527344 C 115.40625 58.90625 114.96875 59.605469 114.671875 60.074219 C 114.085938 61 111.515625 65.09375 111.21875 65.570312 C 111.121094 65.730469 111.039062 65.875 111.039062 65.894531 C 111.039062 65.914062 111.847656 65.925781 112.835938 65.917969 L 114.636719 65.90625 L 116.902344 62.28125 C 119.03125 58.875 119.175781 58.660156 119.238281 58.726562 C 119.277344 58.765625 119.570312 59.242188 119.890625 59.78125 C 120.207031 60.324219 120.78125 61.277344 121.164062 61.90625 C 121.542969 62.53125 121.855469 63.054688 121.855469 63.070312 C 121.855469 63.082031 120.925781 63.082031 119.785156 63.066406 L 117.714844 63.039062 L 117.511719 63.386719 C 117.398438 63.578125 117.007812 64.195312 116.640625 64.757812 C 116.277344 65.320312 115.96875 65.816406 115.957031 65.855469 C 115.9375 65.925781 116.230469 65.929688 121.601562 65.929688 L 127.265625 65.929688 L 127.199219 65.796875 C 127.058594 65.527344 123.730469 60.046875 121.257812 56.027344 C 120.675781 55.078125 120.070312 54.679688 119.21875 54.683594 C 119.011719 54.6875 118.765625 54.710938 118.671875 54.742188 M 87.558594 54.890625 C 87 54.992188 86.421875 55.328125 85.980469 55.8125 C 85.820312 55.988281 84.742188 57.5 83.496094 59.296875 L 81.292969 62.472656 L 81.292969 65.929688 L 82.976562 65.929688 L 85.410156 62.414062 C 87.746094 59.042969 87.847656 58.902344 87.90625 58.992188 C 87.941406 59.042969 89.007812 60.617188 90.277344 62.496094 L 92.589844 65.90625 L 94.742188 65.917969 C 95.925781 65.925781 96.894531 65.917969 96.894531 65.90625 C 96.894531 65.894531 95.34375 63.660156 93.453125 60.941406 C 89.765625 55.648438 89.699219 55.558594 89.113281 55.214844 C 88.636719 54.933594 88.027344 54.808594 87.558594 54.890625 M 98.351562 60.390625 L 98.351562 65.929688 L 101.34375 65.929688 L 101.355469 63.503906 L 101.367188 61.082031 L 103.207031 63.503906 L 105.050781 65.929688 L 106.753906 65.929688 C 107.691406 65.929688 108.460938 65.917969 108.460938 65.910156 C 108.460938 65.898438 107.550781 64.695312 106.441406 63.234375 C 105.332031 61.769531 104.402344 60.539062 104.375 60.496094 C 104.332031 60.429688 104.589844 60.070312 106.414062 57.65625 C 107.5625 56.136719 108.5 54.882812 108.5 54.871094 C 108.5 54.859375 107.722656 54.851562 106.765625 54.859375 L 105.03125 54.871094 L 103.199219 57.296875 L 101.367188 59.71875 L 101.355469 57.285156 L 101.34375 54.847656 L 98.351562 54.847656 L 98.351562 60.390625 M 111.246094 56.792969 L 111.246094 58.738281 L 109.074219 58.742188 C 107.878906 58.746094 106.761719 58.761719 106.589844 58.773438 L 106.28125 58.800781 L 105.667969 59.613281 C 105.316406 60.074219 105.066406 60.445312 105.082031 60.472656 C 105.097656 60.5 105.304688 60.777344 105.542969 61.09375 L 105.976562 61.664062 L 111.246094 61.664062 L 111.269531 64.359375 L 112.683594 61.957031 L 114.097656 59.550781 L 114.121094 54.847656 L 111.246094 54.847656 L 111.246094 56.792969 M 58.976562 54.941406 C 58.996094 54.972656 59.4375 55.621094 59.964844 56.386719 L 60.917969 57.777344 L 65.253906 57.777344 C 69.109375 57.777344 69.609375 57.785156 69.78125 57.84375 C 70.019531 57.925781 70.367188 58.230469 70.484375 58.460938 C 70.585938 58.660156 70.628906 59.105469 70.570312 59.324219 L 70.53125 59.472656 L 71.550781 60.597656 C 72.113281 61.21875 72.589844 61.730469 72.617188 61.738281 C 72.691406 61.757812 73.164062 61.34375 73.386719 61.066406 C 74.050781 60.242188 74.304688 58.945312 74.015625 57.832031 C 73.894531 57.359375 73.804688 57.160156 73.511719 56.730469 C 72.917969 55.859375 72.128906 55.285156 71.152344 55.003906 L 70.828125 54.914062 L 64.886719 54.902344 C 60.085938 54.890625 58.953125 54.898438 58.976562 54.941406 M 73.890625 55.214844 C 74.964844 56.367188 75.4375 57.59375 75.367188 59.03125 C 75.351562 59.316406 75.332031 59.609375 75.320312 59.679688 C 75.300781 59.789062 75.386719 59.933594 76.046875 60.886719 L 76.800781 61.972656 L 76.800781 65.929688 L 80.167969 65.929688 L 80.167969 61.949219 L 82.582031 58.464844 C 83.910156 56.550781 84.996094 54.972656 84.996094 54.957031 C 84.996094 54.945312 84.121094 54.933594 83.050781 54.933594 L 81.105469 54.9375 L 79.796875 57.082031 C 79.074219 58.261719 78.480469 59.222656 78.472656 59.21875 C 78.464844 59.210938 77.871094 58.25 77.15625 57.082031 L 75.851562 54.953125 L 74.738281 54.941406 L 73.628906 54.933594 L 73.890625 55.214844 M 62.667969 60.296875 C 62.679688 60.328125 63.097656 60.949219 63.597656 61.675781 L 64.507812 63 L 67.710938 63.007812 L 68.96875 64.46875 L 70.230469 65.929688 L 71.402344 65.929688 C 72.046875 65.929688 73.066406 65.914062 73.667969 65.902344 L 74.757812 65.871094 L 74.6875 65.78125 C 74.648438 65.730469 73.503906 64.464844 72.148438 62.964844 L 69.679688 60.242188 L 66.164062 60.242188 C 63.265625 60.242188 62.648438 60.253906 62.667969 60.296875 M 0.5 69.085938 L 0.5 71.027344 L 68.511719 71.019531 L 136.519531 71.007812 L 136.53125 69.0625 L 136.542969 67.121094 L 68.519531 67.128906 L 0.5 67.140625 L 0.5 69.085938 M 0.519531 69.085938 C 0.519531 70.164062 0.523438 70.613281 0.53125 70.082031 C 0.539062 69.546875 0.539062 68.664062 0.53125 68.117188 C 0.523438 67.566406 0.519531 68.003906 0.519531 69.085938 M 2.664062 69.085938 L 2.664062 69.398438 L 6.867188 69.398438 L 6.867188 68.769531 L 2.664062 68.769531 L 2.664062 69.085938 M 11.773438 69.085938 L 11.773438 69.398438 L 15.976562 69.398438 L 15.976562 68.769531 L 11.773438 68.769531 L 11.773438 69.085938 M 20.84375 69.085938 L 20.84375 69.398438 L 25.085938 69.398438 L 25.085938 68.769531 L 20.84375 68.769531 L 20.84375 69.085938 M 29.953125 69.085938 L 29.953125 69.398438 L 34.199219 69.398438 L 34.199219 68.769531 L 29.953125 68.769531 L 29.953125 69.085938 M 39.066406 69.085938 L 39.066406 69.398438 L 43.269531 69.398438 L 43.269531 68.769531 L 39.066406 68.769531 L 39.066406 69.085938 M 48.175781 69.085938 L 48.175781 69.398438 L 52.378906 69.398438 L 52.378906 68.769531 L 48.175781 68.769531 L 48.175781 69.085938 M 57.289062 69.085938 L 57.289062 69.398438 L 61.488281 69.398438 L 61.488281 68.769531 L 57.289062 68.769531 L 57.289062 69.085938 M 66.398438 69.085938 L 66.398438 69.398438 L 70.601562 69.398438 L 70.601562 68.769531 L 66.398438 68.769531 L 66.398438 69.085938 M 75.511719 69.085938 L 75.511719 69.398438 L 79.710938 69.398438 L 79.710938 68.769531 L 75.511719 68.769531 L 75.511719 69.085938 M 84.621094 69.085938 L 84.621094 69.398438 L 88.824219 69.398438 L 88.824219 68.769531 L 84.621094 68.769531 L 84.621094 69.085938 M 93.730469 69.085938 L 93.730469 69.398438 L 97.933594 69.398438 L 97.933594 68.769531 L 93.730469 68.769531 L 93.730469 69.085938 M 102.84375 69.085938 L 102.84375 69.398438 L 107.046875 69.398438 L 107.046875 68.769531 L 102.84375 68.769531 L 102.84375 69.085938 M 111.914062 69.085938 L 111.914062 69.398438 L 116.15625 69.398438 L 116.15625 68.769531 L 111.914062 68.769531 L 111.914062 69.085938 M 121.023438 69.085938 L 121.023438 69.398438 L 125.226562 69.398438 L 125.226562 68.769531 L 121.023438 68.769531 L 121.023438 69.085938 M 130.132812 69.085938 L 130.132812 69.398438 L 134.335938 69.398438 L 134.335938 68.769531 L 130.132812 68.769531 L 130.132812 69.085938 M 7.214844 72.28125 C 6.769531 72.375 6.464844 72.597656 6.296875 72.941406 L 6.179688 73.179688 L 6.179688 74.75 C 6.179688 76.191406 6.183594 76.332031 6.257812 76.523438 C 6.414062 76.925781 6.796875 77.222656 7.25 77.285156 C 7.507812 77.320312 7.761719 77.234375 7.964844 77.046875 L 8.144531 76.882812 L 8.183594 77.015625 L 8.21875 77.152344 L 8.625 77.164062 L 9.027344 77.175781 L 9.027344 74.582031 L 7.574219 74.582031 L 7.574219 75.335938 L 7.820312 75.335938 L 7.820312 75.722656 C 7.820312 75.933594 7.800781 76.179688 7.777344 76.265625 C 7.738281 76.414062 7.722656 76.425781 7.601562 76.414062 C 7.503906 76.402344 7.464844 76.375 7.441406 76.296875 C 7.398438 76.128906 7.402344 73.347656 7.445312 73.226562 C 7.476562 73.148438 7.519531 73.117188 7.59375 73.117188 C 7.742188 73.117188 7.78125 73.25 7.78125 73.75 L 7.78125 74.164062 L 9.039062 74.164062 L 9.015625 73.695312 C 9.003906 73.433594 8.972656 73.148438 8.945312 73.054688 C 8.875 72.820312 8.523438 72.484375 8.226562 72.375 C 7.960938 72.273438 7.464844 72.226562 7.214844 72.28125 M 24.421875 72.296875 C 23.96875 72.402344 23.671875 72.632812 23.5 73.015625 C 23.402344 73.21875 23.402344 73.246094 23.402344 74.769531 C 23.402344 76.3125 23.402344 76.316406 23.5 76.539062 C 23.628906 76.824219 23.929688 77.09375 24.21875 77.1875 C 25.035156 77.453125 25.820312 77.191406 26.136719 76.554688 C 26.230469 76.359375 26.230469 76.34375 26.230469 74.832031 C 26.230469 73.019531 26.230469 73.007812 25.875 72.652344 C 25.695312 72.472656 25.589844 72.398438 25.417969 72.347656 C 25.101562 72.253906 24.691406 72.234375 24.421875 72.296875 M 35.167969 72.28125 C 34.554688 72.414062 34.199219 72.773438 34.117188 73.351562 C 34.0625 73.722656 34.0625 75.714844 34.117188 76.128906 C 34.21875 76.914062 34.652344 77.265625 35.53125 77.273438 C 35.992188 77.277344 36.261719 77.199219 36.546875 76.980469 C 36.898438 76.710938 37.023438 76.339844 37.027344 75.574219 L 37.027344 75.25 L 35.792969 75.25 L 35.769531 75.761719 C 35.753906 76.042969 35.730469 76.308594 35.714844 76.347656 C 35.679688 76.445312 35.425781 76.449219 35.386719 76.355469 C 35.375 76.320312 35.363281 75.597656 35.363281 74.75 C 35.363281 73.074219 35.359375 73.097656 35.601562 73.125 C 35.703125 73.136719 35.71875 73.160156 35.746094 73.328125 C 35.761719 73.429688 35.773438 73.738281 35.777344 74.007812 L 35.777344 74.5 L 36.394531 74.488281 L 37.007812 74.476562 L 37.019531 74.058594 C 37.03125 73.566406 36.972656 73.132812 36.863281 72.914062 C 36.75 72.691406 36.492188 72.472656 36.222656 72.371094 C 35.957031 72.273438 35.425781 72.226562 35.167969 72.28125 M 38.441406 72.296875 C 38.023438 72.394531 37.71875 72.613281 37.550781 72.945312 C 37.4375 73.164062 37.402344 73.589844 37.402344 74.75 C 37.402344 76.296875 37.4375 76.515625 37.742188 76.863281 C 38.214844 77.402344 39.371094 77.429688 39.898438 76.917969 C 39.996094 76.824219 40.113281 76.660156 40.160156 76.554688 C 40.25 76.363281 40.25 76.308594 40.25 74.769531 L 40.25 73.179688 L 40.152344 72.976562 C 40.015625 72.699219 39.773438 72.472656 39.503906 72.371094 C 39.214844 72.261719 38.734375 72.226562 38.441406 72.296875 M 44.773438 72.300781 C 44.46875 72.371094 44.28125 72.476562 44.105469 72.679688 C 43.9375 72.871094 43.878906 73.097656 43.878906 73.578125 C 43.871094 74.308594 44.011719 74.53125 44.824219 75.097656 C 45.097656 75.285156 45.355469 75.492188 45.402344 75.550781 C 45.453125 75.621094 45.488281 75.753906 45.503906 75.933594 C 45.53125 76.273438 45.457031 76.421875 45.265625 76.421875 C 45.113281 76.421875 45.101562 76.378906 45.089844 75.835938 L 45.078125 75.4375 L 43.914062 75.4375 L 43.917969 75.855469 C 43.921875 76.425781 44.003906 76.695312 44.238281 76.910156 C 44.675781 77.316406 45.488281 77.40625 46.113281 77.117188 C 46.574219 76.90625 46.703125 76.636719 46.699219 75.898438 C 46.695312 75.035156 46.554688 74.808594 45.671875 74.230469 C 45.410156 74.0625 45.171875 73.890625 45.140625 73.851562 C 45.066406 73.757812 45.035156 73.324219 45.09375 73.207031 C 45.152344 73.101562 45.367188 73.082031 45.40625 73.183594 C 45.417969 73.222656 45.429688 73.382812 45.429688 73.539062 L 45.429688 73.828125 L 46.605469 73.828125 L 46.589844 73.402344 C 46.566406 72.890625 46.496094 72.710938 46.246094 72.535156 C 45.886719 72.285156 45.269531 72.1875 44.773438 72.300781 M 57.371094 72.296875 C 57.054688 72.371094 56.835938 72.496094 56.632812 72.714844 C 56.347656 73.023438 56.332031 73.140625 56.332031 74.6875 C 56.332031 76.070312 56.359375 76.398438 56.5 76.675781 C 56.867188 77.402344 58.292969 77.507812 58.917969 76.851562 C 59.164062 76.597656 59.214844 76.433594 59.234375 75.804688 L 59.253906 75.25 L 57.996094 75.25 L 57.996094 75.753906 C 57.996094 76.328125 57.964844 76.421875 57.785156 76.421875 C 57.691406 76.421875 57.652344 76.394531 57.621094 76.3125 C 57.597656 76.253906 57.578125 75.601562 57.578125 74.769531 C 57.578125 73.9375 57.597656 73.289062 57.621094 73.226562 C 57.652344 73.144531 57.691406 73.117188 57.785156 73.117188 C 57.851562 73.117188 57.921875 73.140625 57.941406 73.171875 C 57.960938 73.199219 57.984375 73.503906 57.996094 73.851562 L 58.015625 74.476562 L 58.632812 74.488281 L 59.253906 74.5 L 59.238281 73.839844 C 59.222656 73.234375 59.210938 73.164062 59.109375 72.945312 C 58.984375 72.667969 58.714844 72.445312 58.390625 72.34375 C 58.097656 72.253906 57.640625 72.234375 57.371094 72.296875 M 65.230469 72.285156 C 64.789062 72.359375 64.433594 72.617188 64.261719 72.988281 C 64.175781 73.175781 64.171875 73.238281 64.171875 74.769531 C 64.171875 76.308594 64.175781 76.363281 64.261719 76.554688 C 64.3125 76.660156 64.429688 76.824219 64.527344 76.917969 C 65.054688 77.433594 66.210938 77.402344 66.683594 76.863281 C 66.988281 76.515625 67.023438 76.296875 67.023438 74.789062 C 67.019531 73.609375 66.984375 73.164062 66.875 72.949219 C 66.601562 72.417969 65.960938 72.160156 65.230469 72.285156 M 75 72.285156 C 74.574219 72.355469 74.230469 72.605469 74.050781 72.976562 L 73.949219 73.179688 L 73.949219 76.359375 L 74.050781 76.5625 C 74.257812 76.988281 74.636719 77.226562 75.1875 77.28125 C 75.855469 77.351562 76.441406 77.054688 76.683594 76.527344 C 76.777344 76.320312 76.777344 76.296875 76.777344 74.769531 C 76.777344 73.285156 76.777344 73.214844 76.691406 73.03125 C 76.414062 72.429688 75.78125 72.152344 75 72.285156 M 78.207031 72.296875 C 77.730469 72.402344 77.347656 72.753906 77.261719 73.15625 C 77.195312 73.464844 77.160156 75.136719 77.207031 75.816406 C 77.25 76.472656 77.316406 76.6875 77.558594 76.929688 C 77.789062 77.160156 78.0625 77.273438 78.402344 77.273438 C 78.71875 77.273438 78.871094 77.214844 79.042969 77.03125 C 79.171875 76.894531 79.199219 76.894531 79.234375 77.046875 L 79.261719 77.175781 L 80.085938 77.175781 L 80.085938 74.582031 L 78.628906 74.582031 L 78.628906 74.957031 C 78.628906 75.332031 78.632812 75.335938 78.734375 75.335938 L 78.839844 75.335938 L 78.839844 75.828125 C 78.839844 76.15625 78.820312 76.335938 78.789062 76.371094 C 78.710938 76.449219 78.554688 76.429688 78.507812 76.339844 C 78.453125 76.242188 78.449219 73.25 78.5 73.167969 C 78.519531 73.136719 78.585938 73.117188 78.65625 73.125 C 78.765625 73.136719 78.777344 73.15625 78.804688 73.347656 C 78.820312 73.464844 78.832031 73.695312 78.835938 73.859375 L 78.839844 74.164062 L 80.085938 74.164062 L 80.085938 73.882812 C 80.085938 73.5 80.015625 73.101562 79.917969 72.910156 C 79.8125 72.699219 79.539062 72.46875 79.273438 72.367188 C 78.984375 72.261719 78.507812 72.226562 78.207031 72.296875 M 83.125 72.285156 C 82.847656 72.339844 82.511719 72.523438 82.390625 72.683594 C 82.097656 73.066406 82.097656 74.050781 82.386719 74.476562 C 82.496094 74.640625 82.546875 74.683594 83.15625 75.113281 C 83.457031 75.324219 83.695312 75.523438 83.730469 75.59375 C 83.808594 75.746094 83.820312 76.269531 83.746094 76.359375 C 83.71875 76.394531 83.640625 76.421875 83.574219 76.421875 C 83.410156 76.421875 83.375 76.304688 83.375 75.8125 L 83.375 75.417969 L 82.207031 75.417969 L 82.207031 75.804688 C 82.207031 76.214844 82.285156 76.601562 82.402344 76.78125 C 82.496094 76.921875 82.765625 77.105469 83.019531 77.195312 C 83.167969 77.25 83.347656 77.273438 83.644531 77.273438 C 84.128906 77.273438 84.417969 77.183594 84.695312 76.941406 C 84.949219 76.726562 85.011719 76.480469 84.988281 75.796875 C 84.960938 74.992188 84.855469 74.828125 83.980469 74.238281 C 83.425781 73.867188 83.367188 73.792969 83.363281 73.480469 C 83.363281 73.210938 83.421875 73.109375 83.574219 73.128906 C 83.703125 73.140625 83.738281 73.242188 83.742188 73.589844 L 83.746094 73.828125 L 84.925781 73.828125 L 84.902344 73.421875 C 84.875 72.964844 84.832031 72.816406 84.671875 72.644531 C 84.378906 72.332031 83.695312 72.175781 83.125 72.285156 M 90.90625 72.285156 C 90.4375 72.382812 90.0625 72.683594 89.921875 73.070312 C 89.832031 73.324219 89.789062 75.339844 89.859375 75.992188 C 89.917969 76.53125 89.988281 76.710938 90.238281 76.9375 C 90.515625 77.1875 90.808594 77.277344 91.320312 77.273438 C 91.785156 77.269531 92.078125 77.175781 92.355469 76.9375 C 92.660156 76.675781 92.773438 76.3125 92.773438 75.597656 L 92.773438 75.25 L 91.527344 75.25 L 91.523438 75.660156 C 91.523438 75.882812 91.507812 76.140625 91.492188 76.234375 C 91.46875 76.375 91.445312 76.402344 91.347656 76.414062 C 91.105469 76.441406 91.109375 76.46875 91.109375 74.769531 C 91.109375 73.070312 91.105469 73.097656 91.347656 73.125 C 91.5 73.144531 91.515625 73.226562 91.523438 73.945312 L 91.527344 74.5 L 92.753906 74.476562 L 92.753906 73.890625 C 92.75 73.132812 92.691406 72.914062 92.410156 72.652344 C 92.292969 72.539062 92.113281 72.425781 91.972656 72.375 C 91.703125 72.269531 91.175781 72.226562 90.90625 72.285156 M 105.535156 72.285156 C 105.238281 72.335938 104.988281 72.472656 104.78125 72.703125 C 104.5 73.019531 104.488281 73.109375 104.488281 74.832031 L 104.488281 76.316406 L 104.605469 76.578125 C 104.671875 76.722656 104.792969 76.898438 104.875 76.972656 C 105.3125 77.355469 105.941406 77.390625 106.300781 77.050781 L 106.460938 76.894531 L 106.507812 77.035156 L 106.550781 77.175781 L 107.378906 77.175781 L 107.378906 74.582031 L 105.878906 74.582031 L 105.878906 75.335938 L 106.128906 75.335938 L 106.128906 75.796875 C 106.128906 76.050781 106.109375 76.296875 106.085938 76.339844 C 106.035156 76.441406 105.816406 76.449219 105.78125 76.355469 C 105.746094 76.269531 105.746094 73.269531 105.78125 73.183594 C 105.796875 73.144531 105.855469 73.117188 105.921875 73.117188 C 105.988281 73.117188 106.046875 73.144531 106.0625 73.183594 C 106.078125 73.222656 106.089844 73.457031 106.089844 73.707031 L 106.089844 74.164062 L 107.390625 74.164062 L 107.363281 73.730469 C 107.324219 73.144531 107.25 72.902344 107.03125 72.683594 C 106.679688 72.328125 106.132812 72.183594 105.535156 72.285156 M 126.972656 72.296875 C 126.574219 72.390625 126.246094 72.628906 126.09375 72.941406 C 125.996094 73.140625 125.996094 73.144531 125.996094 74.769531 C 125.996094 76.25 126.003906 76.414062 126.070312 76.558594 C 126.183594 76.800781 126.453125 77.070312 126.679688 77.167969 C 127.117188 77.359375 127.480469 77.320312 127.765625 77.0625 C 127.859375 76.980469 127.9375 76.917969 127.941406 76.925781 C 127.949219 76.9375 127.976562 76.996094 128.003906 77.058594 C 128.050781 77.171875 128.054688 77.175781 128.449219 77.175781 L 128.84375 77.175781 L 128.84375 74.582031 L 127.390625 74.582031 L 127.390625 75.335938 L 127.648438 75.335938 L 127.628906 75.816406 C 127.605469 76.328125 127.570312 76.421875 127.402344 76.421875 C 127.335938 76.421875 127.292969 76.386719 127.261719 76.3125 C 127.207031 76.167969 127.210938 73.367188 127.265625 73.222656 C 127.296875 73.136719 127.328125 73.117188 127.417969 73.125 C 127.5625 73.144531 127.585938 73.230469 127.59375 73.757812 L 127.597656 74.164062 L 128.855469 74.164062 L 128.832031 73.695312 C 128.820312 73.433594 128.785156 73.148438 128.753906 73.054688 C 128.675781 72.8125 128.335938 72.484375 128.046875 72.375 C 127.746094 72.261719 127.269531 72.226562 126.972656 72.296875 M 131.382812 72.296875 C 131.066406 72.371094 130.847656 72.496094 130.644531 72.714844 C 130.359375 73.023438 130.34375 73.140625 130.34375 74.6875 C 130.34375 76.070312 130.371094 76.398438 130.511719 76.675781 C 130.878906 77.402344 132.304688 77.507812 132.929688 76.851562 C 133.175781 76.597656 133.226562 76.433594 133.246094 75.804688 L 133.265625 75.25 L 132.007812 75.25 L 132.007812 75.753906 C 132.007812 76.328125 131.976562 76.421875 131.796875 76.421875 C 131.699219 76.421875 131.664062 76.394531 131.632812 76.3125 C 131.609375 76.253906 131.589844 75.601562 131.589844 74.769531 C 131.589844 73.9375 131.609375 73.289062 131.632812 73.226562 C 131.664062 73.144531 131.703125 73.117188 131.796875 73.117188 C 131.863281 73.117188 131.933594 73.140625 131.953125 73.171875 C 131.972656 73.199219 131.996094 73.503906 132.007812 73.851562 L 132.027344 74.476562 L 132.644531 74.488281 L 133.265625 74.5 L 133.246094 73.839844 C 133.234375 73.234375 133.222656 73.164062 133.121094 72.945312 C 132.996094 72.667969 132.726562 72.445312 132.402344 72.34375 C 132.109375 72.253906 131.652344 72.234375 131.382812 72.296875 M 134.722656 72.285156 C 134.289062 72.371094 133.945312 72.628906 133.78125 72.988281 C 133.695312 73.175781 133.691406 73.238281 133.691406 74.769531 C 133.691406 76.308594 133.695312 76.363281 133.78125 76.554688 C 133.832031 76.660156 133.949219 76.824219 134.042969 76.917969 C 134.574219 77.433594 135.730469 77.402344 136.203125 76.863281 C 136.488281 76.535156 136.476562 76.605469 136.492188 74.859375 C 136.503906 73.085938 136.496094 73.027344 136.222656 72.703125 C 135.914062 72.339844 135.300781 72.167969 134.722656 72.285156 M 1.082031 72.40625 C 1.082031 72.429688 0.953125 73.445312 0.792969 74.664062 C 0.632812 75.882812 0.5 76.945312 0.5 77.027344 L 0.5 77.175781 L 1.789062 77.175781 L 1.789062 76.976562 C 1.789062 76.867188 1.800781 76.679688 1.816406 76.558594 L 1.84375 76.335938 L 2.039062 76.335938 C 2.265625 76.335938 2.289062 76.375 2.289062 76.71875 C 2.289062 76.824219 2.300781 76.972656 2.316406 77.042969 L 2.339844 77.175781 L 3.621094 77.175781 L 3.601562 77.078125 C 3.574219 76.972656 2.914062 72.46875 2.914062 72.40625 C 2.914062 72.382812 2.570312 72.367188 1.996094 72.367188 C 1.414062 72.367188 1.082031 72.382812 1.082031 72.40625 M 3.785156 74.769531 L 3.785156 77.175781 L 5.035156 77.175781 L 5.035156 75.167969 L 5.824219 75.167969 L 5.824219 74.207031 L 5.03125 74.207031 L 5.054688 73.347656 L 5.480469 73.335938 L 5.910156 73.324219 L 5.910156 72.367188 L 3.785156 72.367188 L 3.785156 74.769531 M 9.484375 74.769531 L 9.484375 77.175781 L 10.734375 77.175781 L 10.734375 75.167969 L 11.109375 75.167969 L 11.109375 77.175781 L 12.355469 77.175781 L 12.355469 72.367188 L 11.109375 72.367188 L 11.109375 74.082031 L 10.734375 74.082031 L 10.734375 72.367188 L 9.484375 72.367188 L 9.484375 74.769531 M 12.855469 74.769531 L 12.542969 77.175781 L 13.847656 77.175781 L 13.878906 76.753906 L 13.90625 76.335938 L 14.355469 76.335938 L 14.355469 76.5 C 14.355469 76.585938 14.367188 76.777344 14.378906 76.917969 L 14.40625 77.175781 L 15.695312 77.175781 L 15.667969 77.039062 C 15.65625 76.964844 15.503906 75.941406 15.332031 74.769531 C 15.160156 73.597656 15.011719 72.578125 14.996094 72.503906 L 14.972656 72.367188 L 13.167969 72.367188 L 12.855469 74.769531 M 15.851562 74.769531 L 15.851562 77.175781 L 16.933594 77.175781 L 16.9375 76.160156 L 16.9375 75.144531 L 17.234375 76.160156 L 17.535156 77.175781 L 18.640625 77.175781 L 18.640625 72.367188 L 17.601562 72.367188 L 17.578125 74.390625 L 17.261719 73.390625 L 16.945312 72.386719 L 15.851562 72.363281 L 15.851562 74.769531 M 20.179688 74.765625 L 20.179688 77.175781 L 21.425781 77.175781 L 21.425781 75.042969 L 21.546875 75.042969 C 21.769531 75.042969 21.777344 75.089844 21.792969 76.175781 L 21.808594 77.175781 L 22.964844 77.175781 L 22.964844 76.265625 C 22.964844 75.765625 22.945312 75.285156 22.921875 75.199219 C 22.863281 74.992188 22.703125 74.808594 22.523438 74.742188 L 22.378906 74.6875 L 22.589844 74.59375 C 22.886719 74.464844 22.941406 74.328125 22.941406 73.703125 C 22.945312 73.132812 22.890625 72.921875 22.683594 72.691406 C 22.425781 72.40625 22.367188 72.394531 21.207031 72.375 L 20.179688 72.359375 L 20.179688 74.765625 M 27.023438 72.5 C 26.992188 72.671875 26.417969 77.070312 26.417969 77.128906 C 26.417969 77.160156 26.640625 77.175781 27.058594 77.175781 L 27.699219 77.175781 L 27.722656 77.015625 C 27.738281 76.929688 27.75 76.785156 27.75 76.691406 C 27.753906 76.375 27.777344 76.335938 28 76.335938 L 28.195312 76.335938 L 28.222656 76.59375 C 28.238281 76.734375 28.25 76.925781 28.25 77.011719 L 28.25 77.175781 L 28.894531 77.175781 C 29.480469 77.175781 29.539062 77.167969 29.539062 77.101562 C 29.535156 77.058594 29.382812 75.984375 29.191406 74.707031 L 28.847656 72.386719 L 27.949219 72.375 L 27.046875 72.363281 L 27.023438 72.5 M 29.746094 74.765625 L 29.746094 77.175781 L 30.789062 77.175781 C 31.976562 77.175781 32.136719 77.148438 32.367188 76.925781 C 32.601562 76.703125 32.617188 76.5625 32.617188 74.832031 C 32.617188 73.105469 32.601562 72.980469 32.359375 72.71875 C 32.089844 72.425781 31.964844 72.398438 30.777344 72.375 L 29.746094 72.359375 L 29.746094 74.765625 M 40.730469 74.769531 L 40.730469 77.175781 L 41.769531 77.175781 L 41.78125 76.164062 L 41.789062 75.15625 L 42.082031 76.152344 L 42.375 77.152344 L 43.515625 77.175781 L 43.515625 72.367188 L 42.4375 72.367188 L 42.433594 73.378906 L 42.433594 74.394531 L 42.109375 73.390625 L 41.789062 72.386719 L 41.257812 72.375 L 40.730469 72.363281 L 40.730469 74.769531 M 46.84375 72.847656 L 46.84375 73.328125 L 47.59375 73.328125 L 47.59375 77.175781 L 48.84375 77.175781 L 48.84375 73.328125 L 49.589844 73.328125 L 49.589844 72.367188 L 46.84375 72.367188 L 46.84375 72.847656 M 49.839844 74.765625 L 49.839844 77.175781 L 51.089844 77.175781 L 51.089844 75.042969 L 51.207031 75.042969 C 51.417969 75.042969 51.421875 75.066406 51.421875 76.15625 L 51.421875 77.175781 L 52.628906 77.175781 L 52.628906 76.285156 C 52.625 75.796875 52.609375 75.324219 52.589844 75.234375 C 52.539062 75.011719 52.429688 74.871094 52.226562 74.765625 L 52.054688 74.679688 L 52.257812 74.589844 C 52.542969 74.472656 52.601562 74.324219 52.605469 73.726562 C 52.605469 73.453125 52.585938 73.183594 52.550781 73.070312 C 52.480469 72.828125 52.296875 72.601562 52.074219 72.480469 C 51.910156 72.394531 51.832031 72.390625 50.871094 72.375 L 49.839844 72.359375 L 49.839844 74.765625 M 53.042969 74.195312 C 53.042969 75.203125 53.0625 76.136719 53.085938 76.273438 C 53.140625 76.617188 53.308594 76.871094 53.585938 77.039062 C 53.902344 77.230469 54.085938 77.273438 54.542969 77.273438 C 54.886719 77.273438 54.96875 77.257812 55.199219 77.15625 C 55.488281 77.023438 55.675781 76.835938 55.804688 76.550781 C 55.890625 76.367188 55.894531 76.28125 55.90625 74.363281 L 55.921875 72.367188 L 54.625 72.367188 L 54.625 74.339844 C 54.625 75.429688 54.609375 76.34375 54.589844 76.371094 C 54.570312 76.402344 54.507812 76.421875 54.453125 76.414062 C 54.308594 76.394531 54.300781 76.265625 54.296875 74.195312 L 54.292969 72.367188 L 53.042969 72.367188 L 53.042969 74.195312 M 59.453125 72.847656 L 59.453125 73.328125 L 60.199219 73.328125 L 60.199219 77.175781 L 61.449219 77.175781 L 61.449219 73.328125 L 62.195312 73.328125 L 62.195312 72.367188 L 59.453125 72.367188 L 59.453125 72.847656 M 62.445312 74.769531 L 62.445312 77.175781 L 63.695312 77.175781 L 63.695312 72.367188 L 62.445312 72.367188 L 62.445312 74.769531 M 67.4375 74.769531 L 67.4375 77.175781 L 68.519531 77.175781 L 68.523438 76.179688 L 68.527344 75.1875 L 68.621094 75.5 C 68.675781 75.675781 68.804688 76.121094 68.914062 76.496094 L 69.113281 77.175781 L 70.226562 77.175781 L 70.226562 72.367188 L 69.1875 72.367188 L 69.179688 74.4375 L 69.101562 74.207031 C 69.058594 74.078125 68.910156 73.613281 68.769531 73.171875 L 68.515625 72.367188 L 67.4375 72.367188 L 67.4375 74.769531 M 71.765625 74.769531 L 71.765625 77.175781 L 73.761719 77.175781 L 73.761719 76.210938 L 73.015625 76.210938 L 73.015625 72.367188 L 71.765625 72.367188 L 71.765625 74.769531 M 80.542969 74.769531 L 80.542969 77.175781 L 81.792969 77.175781 L 81.792969 72.367188 L 80.542969 72.367188 L 80.542969 74.769531 M 85.160156 72.84375 L 85.160156 73.324219 L 85.527344 73.335938 L 85.890625 73.347656 L 85.902344 75.261719 L 85.910156 77.175781 L 87.160156 77.175781 L 87.160156 73.328125 L 87.867188 73.328125 L 87.867188 72.367188 L 85.160156 72.367188 L 85.160156 72.84375 M 88.117188 74.769531 L 88.117188 77.175781 L 89.40625 77.175781 L 89.40625 72.367188 L 88.117188 72.367188 L 88.117188 74.769531 M 98.765625 74.769531 L 98.765625 77.175781 L 100.929688 77.175781 L 100.929688 76.210938 L 100.015625 76.210938 L 100.015625 75.167969 L 100.808594 75.167969 L 100.796875 74.695312 L 100.785156 74.226562 L 100.398438 74.214844 L 100.015625 74.203125 L 100.015625 73.328125 L 100.847656 73.328125 L 100.847656 72.367188 L 98.765625 72.367188 L 98.765625 74.769531 M 101.261719 74.769531 L 101.261719 77.175781 L 102.300781 77.175781 L 102.324219 75.113281 L 102.503906 75.738281 C 102.601562 76.078125 102.738281 76.542969 102.804688 76.765625 L 102.929688 77.175781 L 104.050781 77.175781 L 104.050781 72.367188 L 102.96875 72.367188 L 102.945312 74.335938 L 102.328125 72.367188 L 101.261719 72.367188 L 101.261719 74.769531 M 107.792969 74.769531 L 107.792969 77.175781 L 109.082031 77.175781 L 109.082031 72.367188 L 107.792969 72.367188 L 107.792969 74.769531 M 109.542969 74.769531 L 109.542969 77.175781 L 110.621094 77.175781 L 110.644531 75.230469 L 110.84375 75.917969 C 110.953125 76.300781 111.082031 76.738281 111.128906 76.890625 L 111.214844 77.175781 L 112.328125 77.175781 L 112.328125 72.367188 L 111.246094 72.367188 L 111.242188 73.339844 L 111.242188 74.308594 L 111.121094 73.953125 C 111.054688 73.757812 110.914062 73.320312 110.808594 72.984375 L 110.613281 72.367188 L 109.542969 72.367188 L 109.542969 74.769531 M 112.785156 74.769531 L 112.785156 77.175781 L 114.949219 77.175781 L 114.949219 76.210938 L 114.074219 76.210938 L 114.074219 75.167969 L 114.824219 75.167969 L 114.824219 74.207031 L 114.074219 74.207031 L 114.074219 73.328125 L 114.867188 73.328125 L 114.867188 72.367188 L 112.785156 72.367188 L 112.785156 74.769531 M 115.28125 74.769531 L 115.28125 77.175781 L 117.445312 77.175781 L 117.445312 76.210938 L 116.570312 76.210938 L 116.570312 75.167969 L 117.320312 75.167969 L 117.320312 74.207031 L 116.570312 74.207031 L 116.570312 73.328125 L 117.363281 73.328125 L 117.363281 72.367188 L 115.28125 72.367188 L 115.28125 74.769531 M 117.777344 74.765625 L 117.777344 77.175781 L 119.027344 77.175781 L 119.027344 75.042969 L 119.148438 75.042969 C 119.367188 75.042969 119.378906 75.089844 119.394531 76.175781 L 119.40625 77.175781 L 120.570312 77.175781 L 120.558594 76.15625 L 120.546875 75.140625 L 120.425781 74.984375 C 120.363281 74.898438 120.242188 74.796875 120.164062 74.757812 L 120.023438 74.691406 L 120.199219 74.605469 C 120.492188 74.460938 120.546875 74.324219 120.546875 73.683594 C 120.546875 73.082031 120.488281 72.882812 120.25 72.640625 C 120.015625 72.40625 119.929688 72.390625 118.808594 72.375 L 117.777344 72.359375 L 117.777344 74.765625 M 121.023438 74.769531 L 121.023438 77.175781 L 122.273438 77.175781 L 122.273438 72.367188 L 121.023438 72.367188 L 121.023438 74.769531 M 122.730469 74.769531 L 122.730469 77.175781 L 123.808594 77.175781 L 123.820312 76.179688 L 123.832031 75.1875 L 124.121094 76.179688 L 124.410156 77.175781 L 125.515625 77.175781 L 125.515625 72.367188 L 124.476562 72.367188 L 124.472656 73.378906 L 124.46875 74.394531 L 124.136719 73.378906 L 123.808594 72.367188 L 122.730469 72.367188 L 122.730469 74.769531 M 95.078125 73.121094 C 94.820312 73.199219 94.550781 73.421875 94.429688 73.65625 C 94.339844 73.835938 94.316406 73.9375 94.316406 74.152344 C 94.316406 74.515625 94.378906 74.71875 94.570312 74.9375 L 94.730469 75.117188 L 94.542969 75.226562 C 94.425781 75.296875 94.316406 75.410156 94.242188 75.535156 C 94.140625 75.707031 94.128906 75.773438 94.128906 76.085938 C 94.128906 76.480469 94.222656 76.757812 94.429688 76.980469 C 94.777344 77.34375 95.355469 77.382812 95.945312 77.085938 C 96.078125 77.019531 96.199219 76.964844 96.21875 76.964844 C 96.242188 76.964844 96.277344 77.011719 96.304688 77.070312 C 96.351562 77.171875 96.355469 77.175781 96.914062 77.175781 C 97.222656 77.175781 97.476562 77.164062 97.476562 77.152344 C 97.476562 77.136719 97.386719 76.957031 97.277344 76.753906 C 97.109375 76.425781 97.089844 76.371094 97.148438 76.339844 C 97.390625 76.195312 97.398438 76.175781 97.382812 75.742188 L 97.371094 75.335938 L 96.753906 75.75 L 96.652344 75.574219 C 96.597656 75.476562 96.507812 75.308594 96.457031 75.203125 L 96.355469 75.011719 L 96.460938 74.871094 C 96.683594 74.570312 96.757812 74.246094 96.6875 73.898438 C 96.628906 73.609375 96.453125 73.367188 96.199219 73.214844 C 96.027344 73.113281 95.953125 73.097656 95.605469 73.089844 C 95.386719 73.085938 95.148438 73.097656 95.078125 73.121094 M 24.683594 73.171875 C 24.636719 73.242188 24.617188 76.023438 24.660156 76.234375 C 24.691406 76.382812 24.710938 76.402344 24.816406 76.402344 C 24.910156 76.402344 24.945312 76.375 24.96875 76.296875 C 25.011719 76.132812 25.007812 73.347656 24.964844 73.226562 C 24.917969 73.109375 24.746094 73.074219 24.683594 73.171875 M 38.703125 73.171875 C 38.660156 73.242188 38.636719 75.832031 38.679688 76.148438 C 38.710938 76.382812 38.71875 76.402344 38.828125 76.414062 C 38.917969 76.425781 38.949219 76.40625 38.984375 76.316406 C 39.039062 76.164062 39.039062 73.308594 38.980469 73.199219 C 38.933594 73.109375 38.757812 73.089844 38.703125 73.171875 M 65.445312 73.195312 C 65.398438 73.285156 65.382812 76.15625 65.425781 76.328125 C 65.449219 76.40625 65.476562 76.421875 65.582031 76.414062 C 65.707031 76.402344 65.714844 76.390625 65.738281 76.171875 C 65.777344 75.863281 65.777344 73.566406 65.742188 73.328125 C 65.714844 73.164062 65.699219 73.136719 65.601562 73.125 C 65.523438 73.117188 65.476562 73.140625 65.445312 73.195312 M 75.21875 73.222656 C 75.195312 73.289062 75.175781 73.925781 75.175781 74.804688 C 75.175781 76.394531 75.183594 76.445312 75.386719 76.414062 C 75.476562 76.402344 75.492188 76.371094 75.515625 76.191406 C 75.554688 75.910156 75.554688 73.519531 75.519531 73.308594 C 75.492188 73.164062 75.472656 73.136719 75.375 73.125 C 75.285156 73.117188 75.253906 73.136719 75.21875 73.222656 M 134.964844 73.195312 C 134.914062 73.285156 134.898438 76.15625 134.945312 76.328125 C 134.96875 76.40625 134.996094 76.421875 135.101562 76.414062 L 135.230469 76.402344 L 135.257812 76.085938 C 135.289062 75.675781 135.292969 73.757812 135.257812 73.410156 C 135.234375 73.15625 135.226562 73.140625 135.121094 73.125 C 135.042969 73.117188 134.996094 73.140625 134.964844 73.195312 M 21.425781 73.730469 L 21.425781 74.257812 L 21.558594 74.230469 C 21.632812 74.214844 21.710938 74.1875 21.726562 74.167969 C 21.746094 74.152344 21.773438 74.003906 21.789062 73.84375 C 21.816406 73.492188 21.753906 73.265625 21.621094 73.226562 C 21.425781 73.175781 21.425781 73.175781 21.425781 73.730469 M 30.996094 74.769531 C 30.996094 76.277344 30.996094 76.335938 31.074219 76.335938 C 31.117188 76.335938 31.195312 76.300781 31.25 76.257812 L 31.347656 76.179688 L 31.347656 74.75 C 31.347656 73.382812 31.34375 73.320312 31.269531 73.261719 C 31.222656 73.230469 31.144531 73.203125 31.089844 73.203125 L 30.996094 73.203125 L 30.996094 74.769531 M 51.089844 73.730469 L 51.089844 74.257812 L 51.222656 74.230469 C 51.296875 74.214844 51.371094 74.179688 51.386719 74.152344 C 51.40625 74.125 51.421875 73.929688 51.421875 73.71875 C 51.421875 73.367188 51.414062 73.328125 51.328125 73.265625 C 51.277344 73.230469 51.203125 73.203125 51.164062 73.203125 C 51.097656 73.203125 51.089844 73.253906 51.089844 73.730469 M 119.027344 73.726562 L 119.027344 74.257812 L 119.160156 74.230469 C 119.234375 74.214844 119.3125 74.183594 119.335938 74.160156 C 119.359375 74.136719 119.378906 73.941406 119.378906 73.726562 C 119.378906 73.507812 119.359375 73.3125 119.335938 73.289062 C 119.3125 73.265625 119.234375 73.234375 119.160156 73.21875 L 119.027344 73.191406 L 119.027344 73.726562 M 14.109375 73.652344 C 14.105469 73.683594 14.066406 74.023438 14.023438 74.40625 C 13.976562 74.789062 13.929688 75.183594 13.917969 75.28125 L 13.898438 75.460938 L 14.308594 75.460938 L 14.285156 75.324219 C 14.273438 75.25 14.230469 74.832031 14.1875 74.394531 C 14.148438 73.957031 14.109375 73.625 14.109375 73.652344 M 27.882812 74.445312 C 27.757812 75.523438 27.75 75.460938 27.984375 75.460938 L 28.175781 75.460938 L 28.148438 75.28125 C 28.136719 75.183594 28.09375 74.785156 28.058594 74.394531 C 28.023438 74.003906 27.988281 73.679688 27.984375 73.671875 C 27.976562 73.667969 27.933594 74.015625 27.882812 74.445312 M 95.398438 73.828125 C 95.375 73.871094 95.355469 73.949219 95.355469 74.003906 C 95.355469 74.132812 95.503906 74.457031 95.5625 74.457031 C 95.6875 74.457031 95.785156 73.902344 95.679688 73.796875 C 95.601562 73.71875 95.445312 73.734375 95.398438 73.828125 M 1.941406 74.425781 C 1.902344 74.777344 1.855469 75.152344 1.84375 75.261719 L 1.820312 75.460938 L 2.21875 75.460938 L 2.191406 75.21875 C 2.179688 75.085938 2.144531 74.710938 2.117188 74.382812 C 2.089844 74.054688 2.054688 73.789062 2.039062 73.789062 C 2.027344 73.789062 1.980469 74.074219 1.941406 74.425781 M 95.316406 75.9375 C 95.226562 76.121094 95.230469 76.289062 95.324219 76.410156 C 95.375 76.476562 95.597656 76.476562 95.714844 76.410156 L 95.808594 76.359375 L 95.632812 76.054688 C 95.539062 75.890625 95.445312 75.753906 95.429688 75.753906 C 95.417969 75.753906 95.363281 75.835938 95.316406 75.9375 "/>
<path style=" stroke:none;fill-rule:evenodd;fill:rgb(98.431373%,76.862746%,18.82353%);fill-opacity:1;" d="M 68.449219 10.921875 L 65.484375 13.023438 L 65.484375 25.527344 L 68.441406 28.765625 C 70.070312 30.546875 71.417969 32.007812 71.4375 32.015625 C 71.460938 32.023438 71.476562 27.316406 71.476562 20.425781 C 71.476562 14.042969 71.460938 8.820312 71.445312 8.824219 C 71.425781 8.824219 70.078125 9.769531 68.449219 10.921875 M 81.125 23.222656 L 81.125 30.9375 L 83.496094 30.9375 L 83.5 37.65625 L 83.5 44.378906 L 85.621094 46.699219 C 86.785156 47.972656 87.761719 49.023438 87.78125 49.03125 C 87.8125 49.039062 87.824219 44.023438 87.824219 34.085938 L 87.824219 19.125 L 84.96875 17.578125 C 83.394531 16.726562 81.886719 15.914062 81.617188 15.769531 L 81.125 15.503906 L 81.125 23.222656 M 58.960938 22.085938 C 58.644531 22.503906 51.09375 32.515625 42.1875 44.335938 C 33.277344 56.152344 25.972656 65.847656 25.949219 65.875 C 25.917969 65.917969 27.3125 65.929688 32.898438 65.929688 L 39.886719 65.929688 L 49.753906 51.808594 C 55.183594 44.042969 59.636719 37.683594 59.652344 37.675781 C 59.671875 37.671875 63.023438 41.050781 67.105469 45.191406 L 74.523438 52.71875 L 81.632812 52.71875 C 85.539062 52.71875 88.738281 52.707031 88.738281 52.699219 C 88.738281 52.6875 87.15625 50.953125 85.222656 48.847656 L 81.710938 45.019531 L 81.6875 33.214844 L 78.433594 33.203125 L 75.179688 33.195312 L 75.167969 35.785156 L 75.15625 38.378906 L 67.359375 29.851562 C 63.074219 25.160156 59.558594 21.320312 59.550781 21.320312 C 59.542969 21.320312 59.277344 21.664062 58.960938 22.085938 M 91.820312 56.421875 C 91.820312 56.464844 93.902344 59.46875 93.941406 59.484375 C 93.964844 59.492188 93.980469 58.882812 93.980469 57.945312 L 93.980469 56.394531 L 92.898438 56.394531 C 92.304688 56.394531 91.820312 56.40625 91.820312 56.421875 M 86.742188 63.835938 L 86.742188 64.421875 L 87.992188 64.421875 L 87.992188 63.253906 L 86.742188 63.253906 L 86.742188 63.835938 M 88.324219 63.835938 L 88.324219 64.421875 L 89.570312 64.421875 L 89.570312 63.253906 L 88.324219 63.253906 L 88.324219 63.835938 M 86.753906 65.269531 L 86.765625 65.867188 L 87.96875 65.867188 L 87.980469 65.269531 L 87.992188 64.675781 L 86.742188 64.675781 L 86.753906 65.269531 M 88.332031 65.269531 L 88.34375 65.867188 L 89.550781 65.867188 L 89.5625 65.269531 L 89.574219 64.675781 L 88.320312 64.675781 L 88.332031 65.269531 M 2.664062 69.085938 L 2.664062 69.398438 L 6.867188 69.398438 L 6.867188 68.769531 L 2.664062 68.769531 L 2.664062 69.085938 M 11.773438 69.085938 L 11.773438 69.398438 L 15.976562 69.398438 L 15.976562 68.769531 L 11.773438 68.769531 L 11.773438 69.085938 M 20.84375 69.085938 L 20.84375 69.398438 L 25.085938 69.398438 L 25.085938 68.769531 L 20.84375 68.769531 L 20.84375 69.085938 M 29.953125 69.085938 L 29.953125 69.398438 L 34.199219 69.398438 L 34.199219 68.769531 L 29.953125 68.769531 L 29.953125 69.085938 M 39.066406 69.085938 L 39.066406 69.398438 L 43.269531 69.398438 L 43.269531 68.769531 L 39.066406 68.769531 L 39.066406 69.085938 M 48.175781 69.085938 L 48.175781 69.398438 L 52.378906 69.398438 L 52.378906 68.769531 L 48.175781 68.769531 L 48.175781 69.085938 M 57.289062 69.085938 L 57.289062 69.398438 L 61.488281 69.398438 L 61.488281 68.769531 L 57.289062 68.769531 L 57.289062 69.085938 M 66.398438 69.085938 L 66.398438 69.398438 L 70.601562 69.398438 L 70.601562 68.769531 L 66.398438 68.769531 L 66.398438 69.085938 M 75.511719 69.085938 L 75.511719 69.398438 L 79.710938 69.398438 L 79.710938 68.769531 L 75.511719 68.769531 L 75.511719 69.085938 M 84.621094 69.085938 L 84.621094 69.398438 L 88.824219 69.398438 L 88.824219 68.769531 L 84.621094 68.769531 L 84.621094 69.085938 M 93.730469 69.085938 L 93.730469 69.398438 L 97.933594 69.398438 L 97.933594 68.769531 L 93.730469 68.769531 L 93.730469 69.085938 M 102.84375 69.085938 L 102.84375 69.398438 L 107.046875 69.398438 L 107.046875 68.769531 L 102.84375 68.769531 L 102.84375 69.085938 M 111.914062 69.085938 L 111.914062 69.398438 L 116.15625 69.398438 L 116.15625 68.769531 L 111.914062 68.769531 L 111.914062 69.085938 M 121.023438 69.085938 L 121.023438 69.398438 L 125.226562 69.398438 L 125.226562 68.769531 L 121.023438 68.769531 L 121.023438 69.085938 M 130.132812 69.085938 L 130.132812 69.398438 L 134.335938 69.398438 L 134.335938 68.769531 L 130.132812 68.769531 L 130.132812 69.085938 M 75.984375 79.332031 C 75.746094 79.582031 75.554688 79.816406 75.554688 79.855469 C 75.550781 79.9375 76.398438 80.742188 76.507812 80.761719 C 76.558594 80.769531 76.726562 80.625 77.011719 80.328125 C 77.25 80.085938 77.449219 79.859375 77.457031 79.832031 C 77.472656 79.769531 76.582031 78.917969 76.480469 78.894531 C 76.441406 78.886719 76.25 79.054688 75.984375 79.332031 M 15.136719 79.527344 C 15.078125 79.554688 14.605469 79.878906 14.085938 80.242188 C 13.417969 80.714844 13.136719 80.9375 13.121094 81.007812 C 13.105469 81.0625 13.117188 81.308594 13.144531 81.554688 C 13.226562 82.351562 13.269531 83.261719 13.3125 85.023438 C 13.355469 86.816406 13.390625 87.15625 13.566406 87.566406 C 13.757812 88.019531 14.09375 88.332031 14.582031 88.507812 C 14.800781 88.589844 14.941406 88.601562 15.679688 88.617188 C 16.394531 88.632812 16.550781 88.625 16.703125 88.570312 C 16.902344 88.492188 17.238281 88.160156 17.386719 87.890625 L 17.484375 87.71875 L 17.78125 88.019531 C 18 88.242188 18.164062 88.363281 18.410156 88.484375 C 18.726562 88.644531 18.753906 88.648438 19.15625 88.648438 C 19.539062 88.648438 19.597656 88.636719 19.847656 88.519531 C 20.191406 88.355469 20.488281 88.0625 20.6875 87.683594 L 20.839844 87.394531 L 20.84375 88.011719 L 20.84375 88.628906 L 24.992188 88.617188 L 29.144531 88.609375 L 29.382812 88.488281 C 29.628906 88.367188 29.828125 88.199219 29.984375 87.980469 L 30.074219 87.855469 L 30.148438 87.960938 C 30.28125 88.15625 30.5625 88.402344 30.769531 88.503906 C 30.972656 88.605469 30.980469 88.609375 32.222656 88.609375 C 33.609375 88.609375 33.792969 88.585938 34.429688 88.320312 C 34.820312 88.160156 35.117188 87.964844 35.757812 87.457031 C 36.730469 86.6875 37.027344 86.554688 37.914062 86.5 L 38.328125 86.476562 L 38.695312 85.617188 C 39.0625 84.773438 39.117188 84.578125 39.015625 84.503906 C 38.984375 84.480469 38.769531 84.421875 38.53125 84.371094 C 37.632812 84.171875 37.089844 83.9375 36.175781 83.359375 C 35.160156 82.714844 34.59375 82.507812 34.101562 82.601562 C 33.605469 82.695312 33.179688 82.992188 32.769531 83.542969 C 32.476562 83.933594 32.320312 84.203125 32.207031 84.503906 C 32.0625 84.894531 32.105469 85.152344 32.332031 85.246094 C 32.488281 85.308594 32.621094 85.269531 32.917969 85.070312 C 33.375 84.757812 33.578125 84.71875 34.03125 84.863281 C 34.335938 84.957031 35.65625 85.503906 35.636719 85.527344 C 35.601562 85.558594 35.152344 85.667969 34.78125 85.730469 C 34.261719 85.820312 31.28125 85.863281 30.996094 85.785156 C 30.683594 85.703125 30.570312 85.542969 30.4375 85.011719 C 30.304688 84.476562 30.226562 84.363281 29.988281 84.363281 C 29.753906 84.363281 29.664062 84.480469 29.480469 85.011719 C 29.390625 85.285156 29.28125 85.519531 29.21875 85.585938 C 28.984375 85.835938 29.097656 85.828125 24.851562 85.828125 L 20.96875 85.828125 L 20.945312 85.710938 C 20.714844 84.671875 20.105469 83.882812 19.320312 83.609375 C 18.855469 83.449219 18.242188 83.535156 17.832031 83.816406 C 17.453125 84.078125 17.117188 84.632812 16.988281 85.207031 C 16.878906 85.703125 16.707031 85.828125 16.132812 85.828125 C 15.738281 85.828125 15.570312 85.753906 15.449219 85.527344 C 15.378906 85.398438 15.371094 85.179688 15.351562 82.476562 C 15.339844 80.613281 15.316406 79.546875 15.289062 79.519531 C 15.261719 79.496094 15.210938 79.496094 15.136719 79.527344 M 41.894531 79.503906 C 41.804688 79.535156 39.960938 80.839844 39.890625 80.921875 C 39.824219 81.003906 39.824219 81.160156 39.890625 81.8125 C 39.949219 82.402344 40.015625 83.867188 40.0625 85.617188 C 40.089844 86.617188 40.113281 86.996094 40.167969 87.1875 C 40.378906 87.972656 40.753906 88.351562 41.503906 88.546875 C 41.929688 88.65625 43.300781 88.667969 43.550781 88.5625 C 43.738281 88.484375 43.949219 88.292969 44.097656 88.054688 L 44.210938 87.878906 L 44.375 88.117188 C 44.746094 88.660156 45.570312 88.796875 46.019531 88.390625 C 46.109375 88.304688 46.230469 88.15625 46.289062 88.058594 L 46.398438 87.875 L 46.535156 88.058594 C 46.683594 88.253906 47.027344 88.5 47.257812 88.582031 C 47.472656 88.652344 47.839844 88.636719 48.039062 88.546875 C 49.042969 88.089844 49.5625 85.515625 48.96875 83.9375 C 48.902344 83.765625 48.855469 83.695312 48.800781 83.695312 C 48.734375 83.695312 47.984375 84.480469 47.941406 84.601562 C 47.929688 84.625 47.980469 84.8125 48.050781 85.011719 C 48.210938 85.472656 48.21875 85.707031 48.070312 85.824219 C 47.933594 85.929688 47.65625 85.972656 47.445312 85.914062 C 47.1875 85.847656 47.0625 85.679688 46.964844 85.300781 C 46.855469 84.847656 46.765625 84.660156 46.632812 84.589844 C 46.472656 84.507812 46.414062 84.515625 46.269531 84.636719 C 46.132812 84.753906 46.042969 84.964844 45.96875 85.339844 C 45.9375 85.5 45.882812 85.628906 45.804688 85.714844 C 45.703125 85.832031 45.667969 85.847656 45.464844 85.84375 C 45.058594 85.835938 44.886719 85.691406 44.78125 85.261719 C 44.652344 84.734375 44.535156 84.574219 44.265625 84.574219 C 44.078125 84.574219 43.984375 84.703125 43.8125 85.203125 C 43.617188 85.773438 43.546875 85.828125 42.996094 85.828125 C 42.519531 85.828125 42.304688 85.734375 42.15625 85.453125 L 42.0625 85.269531 L 42.0625 82.417969 C 42.0625 79.457031 42.0625 79.449219 41.894531 79.503906 M 62.578125 79.546875 C 62.503906 79.585938 62.042969 79.902344 61.550781 80.246094 C 60.96875 80.65625 60.648438 80.910156 60.617188 80.984375 C 60.582031 81.066406 60.578125 81.195312 60.613281 81.484375 C 60.691406 82.183594 60.738281 83.097656 60.785156 84.90625 C 60.8125 86.050781 60.851562 86.800781 60.886719 87.015625 C 61 87.648438 61.328125 88.148438 61.78125 88.375 C 62.285156 88.632812 62.210938 88.628906 66.675781 88.628906 C 71.109375 88.628906 71.042969 88.628906 71.480469 88.390625 C 71.679688 88.285156 71.964844 88.007812 72.101562 87.792969 L 72.171875 87.691406 L 72.234375 87.820312 C 72.390625 88.117188 72.871094 88.410156 73.441406 88.546875 C 73.734375 88.617188 73.929688 88.628906 74.804688 88.628906 C 75.902344 88.625 76.230469 88.589844 76.75 88.40625 C 77.449219 88.164062 77.957031 87.71875 78.273438 87.078125 C 78.601562 86.402344 78.648438 86.167969 78.648438 85.074219 C 78.648438 84.195312 78.640625 84.109375 78.539062 83.738281 C 78.21875 82.558594 77.789062 81.882812 77.175781 81.589844 C 76.9375 81.476562 76.859375 81.460938 76.550781 81.460938 C 76.253906 81.460938 76.164062 81.476562 75.992188 81.5625 C 75.417969 81.859375 74.910156 82.894531 74.855469 83.886719 C 74.828125 84.421875 74.902344 84.710938 75.140625 84.96875 C 75.519531 85.386719 76.113281 85.472656 77.40625 85.300781 C 77.605469 85.273438 77.660156 85.34375 77.582031 85.511719 C 77.464844 85.769531 76.839844 85.839844 74.753906 85.820312 C 73.914062 85.8125 73.214844 85.792969 73.199219 85.777344 C 73.179688 85.757812 73.289062 85.617188 73.4375 85.460938 C 74.230469 84.632812 74.34375 83.984375 73.804688 83.390625 C 73.171875 82.691406 72 82.578125 70.976562 83.113281 C 70.371094 83.429688 70.019531 83.914062 70.019531 84.425781 C 70.019531 84.636719 70.058594 84.6875 70.367188 84.871094 C 70.59375 85.003906 71.226562 85.613281 71.226562 85.699219 C 71.226562 85.71875 71.191406 85.75 71.152344 85.769531 C 71.113281 85.789062 69.347656 85.8125 67.230469 85.816406 L 63.382812 85.828125 L 63.195312 85.734375 C 63.058594 85.664062 62.984375 85.589844 62.914062 85.453125 L 62.820312 85.265625 L 62.820312 82.441406 C 62.820312 80.246094 62.808594 79.597656 62.769531 79.542969 C 62.71875 79.476562 62.707031 79.476562 62.578125 79.546875 M 81.375 79.527344 C 81.335938 79.554688 80.882812 80.042969 80.363281 80.613281 C 79.785156 81.25 79.421875 81.679688 79.421875 81.734375 C 79.421875 82.011719 80.179688 86.816406 80.355469 87.644531 C 80.53125 88.488281 80.757812 88.804688 81.03125 88.601562 C 81.324219 88.386719 81.660156 87.421875 81.808594 86.371094 C 82.054688 84.625 81.992188 82.058594 81.660156 80.164062 C 81.539062 79.464844 81.515625 79.414062 81.375 79.527344 M 95.339844 79.535156 C 95.097656 79.664062 93.433594 80.867188 93.375 80.957031 C 93.316406 81.046875 93.316406 81.121094 93.375 81.695312 C 93.453125 82.480469 93.511719 83.761719 93.546875 85.453125 C 93.566406 86.238281 93.597656 86.84375 93.632812 87.035156 C 93.746094 87.660156 94.089844 88.167969 94.539062 88.390625 C 95.042969 88.636719 94.90625 88.632812 99.734375 88.617188 L 104.152344 88.605469 L 104.507812 88.511719 C 105.085938 88.355469 105.617188 88.066406 106.324219 87.511719 C 107.039062 86.953125 107.335938 86.761719 107.644531 86.65625 C 107.933594 86.558594 108.335938 86.496094 108.671875 86.496094 L 108.949219 86.496094 L 109.328125 85.617188 C 109.535156 85.132812 109.707031 84.691406 109.707031 84.636719 C 109.707031 84.507812 109.640625 84.472656 109.207031 84.386719 C 108.378906 84.222656 107.734375 83.941406 106.707031 83.292969 C 106.050781 82.882812 105.695312 82.710938 105.304688 82.625 C 104.929688 82.542969 104.628906 82.582031 104.261719 82.761719 C 103.953125 82.910156 103.5 83.371094 103.183594 83.851562 C 102.761719 84.503906 102.648438 84.964844 102.863281 85.183594 C 103.003906 85.324219 103.15625 85.3125 103.425781 85.140625 C 104.191406 84.65625 104.210938 84.65625 105.558594 85.210938 L 106.296875 85.515625 L 106.058594 85.589844 C 105.398438 85.796875 105.367188 85.796875 100.566406 85.816406 C 95.535156 85.832031 95.871094 85.851562 95.679688 85.542969 L 95.582031 85.390625 L 95.570312 82.476562 C 95.5625 80.175781 95.550781 79.554688 95.507812 79.519531 C 95.46875 79.488281 95.421875 79.492188 95.339844 79.535156 M 115.070312 79.539062 C 114.871094 79.644531 113.148438 80.878906 113.101562 80.945312 C 113.074219 80.992188 113.078125 81.207031 113.109375 81.632812 C 113.195312 82.671875 113.246094 83.726562 113.285156 85.347656 C 113.324219 86.996094 113.347656 87.199219 113.558594 87.644531 C 113.703125 87.957031 113.945312 88.214844 114.234375 88.371094 C 114.734375 88.636719 114.46875 88.628906 120.390625 88.628906 C 126.3125 88.628906 126.117188 88.636719 126.671875 88.371094 C 127.375 88.035156 127.707031 87.351562 127.808594 86.023438 C 127.910156 84.683594 127.613281 83.46875 126.992188 82.679688 C 126.773438 82.402344 126.6875 82.351562 126.621094 82.460938 C 126.597656 82.5 126.3125 82.921875 125.984375 83.394531 C 125.660156 83.867188 125.390625 84.273438 125.390625 84.296875 C 125.390625 84.316406 125.585938 84.535156 125.820312 84.777344 C 126.480469 85.457031 126.617188 85.683594 126.433594 85.785156 C 126.378906 85.8125 124.628906 85.828125 121.054688 85.828125 L 115.753906 85.828125 L 115.613281 85.734375 C 115.535156 85.683594 115.4375 85.574219 115.390625 85.492188 C 115.304688 85.351562 115.304688 85.285156 115.292969 82.457031 C 115.28125 80.246094 115.269531 79.554688 115.230469 79.523438 C 115.195312 79.492188 115.144531 79.5 115.070312 79.539062 M 135.511719 79.964844 C 134.484375 81.074219 133.960938 81.660156 133.960938 81.710938 C 133.960938 81.824219 134.480469 85.246094 134.671875 86.375 C 134.976562 88.195312 135.132812 88.671875 135.433594 88.671875 C 135.664062 88.671875 135.960938 88.152344 136.148438 87.429688 C 136.398438 86.46875 136.5 85.464844 136.5 83.980469 C 136.5 82.496094 136.410156 81.304688 136.203125 80.121094 C 136.117188 79.617188 136.070312 79.472656 136.003906 79.472656 C 135.984375 79.472656 135.761719 79.695312 135.511719 79.964844 M 10.203125 80.027344 C 9.941406 80.292969 9.777344 80.488281 9.777344 80.542969 C 9.777344 80.625 10.636719 81.523438 10.71875 81.523438 C 10.773438 81.523438 11.691406 80.589844 11.691406 80.53125 C 11.691406 80.460938 10.773438 79.597656 10.695312 79.597656 C 10.660156 79.597656 10.4375 79.792969 10.203125 80.027344 M 34.699219 80.097656 C 34.46875 80.351562 34.28125 80.574219 34.28125 80.59375 C 34.28125 80.636719 35.125 81.480469 35.222656 81.535156 C 35.273438 81.566406 35.386719 81.476562 35.722656 81.140625 C 35.964844 80.902344 36.179688 80.671875 36.203125 80.628906 C 36.238281 80.5625 36.171875 80.484375 35.773438 80.097656 C 35.476562 79.8125 35.265625 79.644531 35.210938 79.640625 C 35.148438 79.640625 34.992188 79.777344 34.699219 80.097656 M 105.347656 80.074219 C 105.09375 80.332031 104.921875 80.539062 104.921875 80.589844 C 104.921875 80.644531 105.097656 80.835938 105.402344 81.121094 C 105.808594 81.496094 105.894531 81.558594 105.960938 81.523438 C 106.0625 81.46875 106.835938 80.636719 106.835938 80.582031 C 106.835938 80.496094 105.945312 79.640625 105.855469 79.640625 C 105.804688 79.640625 105.609375 79.804688 105.347656 80.074219 M 71.632812 80.417969 C 71.398438 80.660156 71.199219 80.882812 71.191406 80.914062 C 71.171875 81.003906 72.046875 81.835938 72.164062 81.835938 C 72.230469 81.835938 72.390625 81.707031 72.699219 81.402344 C 72.941406 81.160156 73.140625 80.949219 73.140625 80.925781 C 73.140625 80.855469 72.207031 79.976562 72.132812 79.976562 C 72.09375 79.976562 71.871094 80.171875 71.632812 80.417969 M 28.023438 81.578125 C 27.828125 81.792969 27.667969 81.996094 27.667969 82.027344 C 27.667969 82.105469 28.421875 82.859375 28.5 82.859375 C 28.53125 82.859375 28.714844 82.707031 28.902344 82.519531 L 29.242188 82.175781 L 29.589844 82.519531 C 29.78125 82.707031 29.96875 82.859375 30 82.859375 C 30.035156 82.859375 30.246094 82.671875 30.476562 82.441406 L 30.890625 82.019531 L 30.472656 81.605469 C 30.222656 81.359375 30.015625 81.1875 29.96875 81.1875 C 29.921875 81.1875 29.75 81.324219 29.5625 81.523438 L 29.238281 81.859375 L 28.871094 81.523438 C 28.671875 81.339844 28.480469 81.1875 28.445312 81.1875 C 28.410156 81.1875 28.222656 81.363281 28.023438 81.578125 M 11.148438 82.4375 C 11.148438 82.457031 10.890625 82.847656 10.570312 83.308594 C 10.253906 83.769531 9.972656 84.1875 9.945312 84.234375 C 9.902344 84.316406 9.933594 84.363281 10.3125 84.753906 C 11 85.457031 11.140625 85.679688 10.953125 85.78125 C 10.914062 85.800781 10.195312 85.828125 9.363281 85.839844 C 7.511719 85.867188 6.917969 85.9375 6.011719 86.230469 C 5.273438 86.472656 4.734375 86.855469 4.503906 87.308594 C 4.351562 87.609375 4.324219 88.121094 4.445312 88.367188 C 4.660156 88.785156 5.160156 88.914062 6.636719 88.925781 C 7.417969 88.933594 7.59375 88.953125 7.59375 89.046875 C 7.59375 89.199219 6.6875 89.335938 5.410156 89.367188 C 3.476562 89.417969 2.519531 89.132812 2.101562 88.371094 C 1.980469 88.15625 1.976562 88.128906 1.980469 87.644531 C 1.980469 87.371094 1.996094 86.976562 2.015625 86.769531 C 2.050781 86.339844 2.019531 86.203125 1.847656 86.09375 C 1.457031 85.835938 1.074219 86.195312 0.769531 87.101562 C 0.5 87.902344 0.421875 88.871094 0.5625 89.582031 C 0.757812 90.542969 1.34375 91.1875 2.316406 91.507812 C 2.84375 91.679688 3.339844 91.738281 4.285156 91.738281 C 6.675781 91.738281 8.003906 91.128906 8.375 89.855469 C 8.597656 89.09375 8.449219 88.472656 7.980469 88.195312 C 7.675781 88.015625 7.363281 87.960938 6.449219 87.921875 C 5.621094 87.886719 5.449219 87.863281 5.449219 87.789062 C 5.449219 87.71875 5.695312 87.628906 5.996094 87.578125 C 6.382812 87.519531 7.371094 87.554688 7.730469 87.644531 C 8.097656 87.734375 8.25 87.824219 8.6875 88.207031 C 8.898438 88.390625 9.109375 88.5625 9.152344 88.585938 C 9.273438 88.652344 10.292969 88.636719 10.625 88.566406 C 11.023438 88.480469 11.398438 88.296875 11.652344 88.058594 C 12.148438 87.589844 12.398438 86.570312 12.34375 85.222656 C 12.296875 84.144531 12.035156 83.351562 11.472656 82.621094 C 11.378906 82.492188 11.273438 82.398438 11.226562 82.398438 C 11.183594 82.398438 11.148438 82.417969 11.148438 82.4375 M 55.21875 83.496094 C 54.957031 83.761719 54.792969 83.960938 54.792969 84.011719 C 54.792969 84.097656 55.652344 84.992188 55.734375 84.992188 C 55.789062 84.992188 56.679688 84.085938 56.695312 84.011719 C 56.710938 83.945312 55.792969 83.070312 55.707031 83.070312 C 55.671875 83.070312 55.453125 83.261719 55.21875 83.496094 M 87.960938 83.496094 C 87.699219 83.761719 87.535156 83.960938 87.535156 84.011719 C 87.535156 84.101562 88.394531 84.992188 88.484375 84.992188 C 88.539062 84.992188 89.421875 84.085938 89.4375 84.011719 C 89.453125 83.941406 88.539062 83.070312 88.449219 83.070312 C 88.414062 83.070312 88.191406 83.261719 87.960938 83.496094 M 76.238281 83.234375 C 75.992188 83.335938 75.933594 83.628906 76.144531 83.726562 C 76.261719 83.785156 77.058594 83.804688 77.1875 83.753906 C 77.285156 83.71875 77.277344 83.679688 77.125 83.507812 C 76.890625 83.238281 76.511719 83.121094 76.238281 83.234375 M 58.421875 84.375 C 58.398438 84.402344 58.140625 84.894531 57.847656 85.464844 L 57.320312 86.503906 L 57.691406 86.886719 C 58.359375 87.566406 58.621094 87.945312 58.621094 88.238281 C 58.621094 88.367188 58.589844 88.421875 58.441406 88.566406 C 58.105469 88.886719 57.484375 89.015625 56.289062 89.019531 C 55.230469 89.023438 54.695312 88.917969 54.257812 88.617188 C 53.890625 88.367188 53.800781 88.078125 53.894531 87.472656 C 54.019531 86.660156 53.964844 86.269531 53.707031 86.160156 C 53.246094 85.96875 52.828125 86.679688 52.609375 88.042969 C 52.484375 88.832031 52.542969 89.636719 52.765625 90.132812 C 53.265625 91.261719 54.660156 91.84375 56.492188 91.6875 C 57.460938 91.605469 58.066406 91.40625 58.605469 90.996094 C 59.730469 90.140625 60.132812 88.082031 59.550781 86.171875 C 59.433594 85.78125 59.078125 85.035156 58.835938 84.671875 C 58.671875 84.417969 58.488281 84.289062 58.421875 84.375 M 91.160156 84.378906 C 91.140625 84.40625 90.882812 84.894531 90.59375 85.464844 L 90.0625 86.5 L 90.308594 86.738281 C 90.625 87.050781 90.972656 87.457031 91.1875 87.769531 C 91.328125 87.96875 91.359375 88.050781 91.359375 88.203125 C 91.359375 88.371094 91.339844 88.410156 91.175781 88.570312 C 90.847656 88.886719 90.230469 89.015625 89.03125 89.019531 C 87.96875 89.023438 87.4375 88.917969 87 88.617188 C 86.632812 88.367188 86.539062 88.074219 86.632812 87.492188 C 86.765625 86.6875 86.703125 86.234375 86.441406 86.148438 C 85.96875 85.996094 85.550781 86.734375 85.351562 88.066406 C 85.222656 88.910156 85.289062 89.675781 85.527344 90.191406 C 86.035156 91.273438 87.4375 91.839844 89.234375 91.6875 C 90.765625 91.554688 91.59375 91.078125 92.128906 90.015625 C 92.53125 89.207031 92.675781 87.851562 92.460938 86.808594 C 92.304688 86.035156 91.867188 85.019531 91.484375 84.527344 C 91.351562 84.363281 91.21875 84.300781 91.160156 84.378906 M 131.683594 84.667969 C 131.660156 84.695312 131.417969 85.171875 131.140625 85.726562 L 130.640625 86.734375 L 131.128906 87.210938 C 131.398438 87.472656 131.707031 87.808594 131.8125 87.953125 C 132.109375 88.363281 132.082031 88.507812 131.605469 88.964844 C 131.265625 89.296875 130.71875 89.707031 129.984375 90.1875 C 129.429688 90.550781 128.710938 90.96875 128.640625 90.96875 C 128.621094 90.96875 128.542969 91.019531 128.476562 91.078125 C 128.246094 91.269531 128.265625 91.613281 128.507812 91.742188 C 128.613281 91.796875 128.867188 91.804688 130.21875 91.804688 C 132.003906 91.804688 131.925781 91.820312 132.203125 91.484375 C 132.984375 90.542969 133.347656 89.136719 133.21875 87.546875 C 133.117188 86.320312 132.800781 85.570312 132.078125 84.875 C 131.792969 84.601562 131.753906 84.582031 131.683594 84.667969 M 18.855469 84.910156 C 18.59375 85.019531 18.5625 85.691406 18.796875 86.171875 C 18.945312 86.472656 19.191406 86.722656 19.378906 86.761719 C 19.765625 86.835938 19.957031 86.320312 19.769531 85.710938 C 19.59375 85.144531 19.171875 84.773438 18.855469 84.910156 M 124.839844 90.039062 C 124.617188 90.265625 124.433594 90.46875 124.433594 90.492188 C 124.433594 90.53125 124.753906 90.851562 125.152344 91.21875 L 125.304688 91.359375 L 125.671875 91 L 126.039062 90.636719 L 126.308594 90.910156 C 126.457031 91.0625 126.632812 91.222656 126.695312 91.269531 L 126.816406 91.359375 L 127.226562 90.945312 C 127.453125 90.71875 127.636719 90.503906 127.636719 90.46875 C 127.636719 90.394531 126.835938 89.632812 126.757812 89.632812 C 126.730469 89.632812 126.550781 89.785156 126.363281 89.972656 L 126.023438 90.3125 L 125.660156 89.972656 C 125.460938 89.785156 125.285156 89.632812 125.269531 89.632812 C 125.257812 89.632812 125.0625 89.816406 124.839844 90.039062 M 93.28125 93.359375 C 92.863281 93.734375 92.8125 93.796875 92.832031 93.894531 C 92.84375 93.953125 92.921875 94.28125 93.003906 94.628906 C 93.261719 95.734375 93.335938 96.425781 93.207031 96.535156 C 93.148438 96.582031 92.640625 96.59375 90.363281 96.605469 L 87.59375 96.617188 L 87.5 96.304688 C 87.207031 95.300781 86.308594 95.101562 85.855469 95.9375 C 85.6875 96.25 85.574219 96.738281 85.566406 97.203125 C 85.558594 97.554688 85.570312 97.625 85.664062 97.804688 C 85.808594 98.089844 86.019531 98.195312 86.523438 98.230469 C 86.734375 98.246094 86.910156 98.273438 86.910156 98.289062 C 86.910156 98.332031 86.421875 98.722656 86.089844 98.949219 C 85.949219 99.042969 85.628906 99.230469 85.382812 99.359375 C 84.902344 99.613281 84.871094 99.636719 84.871094 99.777344 C 84.871094 99.988281 84.925781 100 85.972656 100 L 86.945312 100 L 87.09375 99.820312 C 87.351562 99.503906 87.539062 98.996094 87.597656 98.453125 L 87.628906 98.203125 L 90.519531 98.203125 C 93.371094 98.203125 93.417969 98.199219 93.59375 98.113281 C 93.816406 98.007812 93.996094 97.792969 94.117188 97.492188 C 94.207031 97.273438 94.210938 97.203125 94.207031 96.238281 C 94.207031 95.675781 94.191406 95.042969 94.175781 94.832031 L 94.144531 94.449219 L 94.335938 94.472656 C 94.5 94.488281 94.523438 94.484375 94.523438 94.410156 C 94.523438 94.367188 94.386719 94.019531 94.21875 93.644531 C 93.988281 93.128906 93.890625 92.953125 93.832031 92.945312 C 93.78125 92.9375 93.585938 93.082031 93.28125 93.359375 M 46.070312 93.007812 C 46.046875 93.027344 45.78125 93.308594 45.480469 93.640625 C 45.015625 94.152344 44.9375 94.257812 44.953125 94.351562 C 44.964844 94.410156 45.050781 94.96875 45.144531 95.589844 C 45.355469 97.011719 45.496094 97.777344 45.582031 97.992188 C 45.800781 98.542969 46.152344 98.019531 46.328125 96.882812 C 46.457031 96.054688 46.414062 94.421875 46.242188 93.398438 C 46.179688 93.03125 46.148438 92.960938 46.070312 93.007812 M 51.914062 93.585938 C 51.609375 93.921875 51.355469 94.230469 51.347656 94.265625 C 51.332031 94.351562 51.726562 96.914062 51.839844 97.5 C 51.925781 97.929688 51.992188 98.105469 52.101562 98.195312 C 52.304688 98.367188 52.554688 97.84375 52.71875 96.90625 C 52.757812 96.691406 52.773438 96.226562 52.769531 95.441406 C 52.765625 94.484375 52.75 94.195312 52.675781 93.699219 C 52.582031 93.074219 52.558594 92.976562 52.503906 92.976562 C 52.484375 92.976562 52.21875 93.25 51.914062 93.585938 M 107.605469 93.085938 C 107.066406 93.453125 106.625 93.78125 106.59375 93.84375 C 106.574219 93.886719 106.570312 94.035156 106.589844 94.1875 C 106.609375 94.339844 106.644531 95.070312 106.671875 95.820312 C 106.695312 96.566406 106.734375 97.265625 106.757812 97.375 C 106.832031 97.703125 107.011719 97.941406 107.285156 98.070312 L 107.523438 98.179688 L 111.640625 98.191406 C 114.75 98.199219 115.789062 98.191406 115.878906 98.152344 C 115.945312 98.125 116.050781 98.035156 116.113281 97.949219 L 116.226562 97.792969 L 116.339844 97.9375 C 116.625 98.296875 117.132812 98.292969 117.378906 97.925781 C 117.476562 97.777344 117.480469 97.777344 117.527344 97.867188 C 117.613281 98.027344 117.9375 98.203125 118.152344 98.203125 C 118.511719 98.203125 118.753906 97.941406 118.949219 97.34375 C 119.035156 97.09375 119.046875 96.96875 119.046875 96.445312 C 119.046875 95.96875 119.03125 95.792969 118.972656 95.621094 C 118.929688 95.5 118.878906 95.394531 118.859375 95.378906 C 118.828125 95.359375 118.417969 95.761719 118.351562 95.878906 C 118.335938 95.90625 118.359375 96.027344 118.402344 96.148438 C 118.449219 96.265625 118.484375 96.398438 118.484375 96.445312 C 118.484375 96.570312 118.371094 96.65625 118.199219 96.65625 C 117.96875 96.65625 117.84375 96.539062 117.785156 96.261719 C 117.714844 95.957031 117.621094 95.839844 117.472656 95.875 C 117.347656 95.910156 117.261719 96.054688 117.21875 96.308594 C 117.179688 96.542969 117.074219 96.632812 116.878906 96.601562 C 116.683594 96.566406 116.585938 96.476562 116.550781 96.289062 C 116.492188 95.976562 116.351562 95.820312 116.183594 95.886719 C 116.148438 95.898438 116.078125 96.015625 116.03125 96.148438 C 115.984375 96.277344 115.933594 96.410156 115.914062 96.445312 C 115.820312 96.613281 115.820312 96.613281 111.882812 96.601562 L 108.085938 96.59375 L 107.972656 96.476562 L 107.855469 96.359375 L 107.84375 94.699219 C 107.835938 93.785156 107.816406 93.023438 107.800781 93.007812 C 107.78125 92.988281 107.695312 93.023438 107.605469 93.085938 M 43.296875 93.300781 C 43.167969 93.433594 43.058594 93.5625 43.058594 93.585938 C 43.058594 93.640625 43.570312 94.148438 43.625 94.148438 C 43.648438 94.148438 43.785156 94.023438 43.933594 93.875 L 44.203125 93.605469 L 43.933594 93.332031 C 43.785156 93.183594 43.636719 93.058594 43.601562 93.058594 C 43.566406 93.058594 43.429688 93.167969 43.296875 93.300781 M 7.578125 93.542969 C 6.859375 93.777344 6.257812 93.988281 6.234375 94.011719 C 6.214844 94.03125 6.152344 94.3125 6.097656 94.632812 L 6 95.210938 L 6.277344 95.460938 C 6.683594 95.824219 7.105469 96.273438 7.136719 96.371094 C 7.175781 96.488281 7.121094 96.527344 6.839844 96.574219 C 6.523438 96.625 5.675781 96.625 5.578125 96.574219 C 5.507812 96.535156 5.507812 96.523438 5.582031 96.300781 C 5.648438 96.101562 5.652344 96.050781 5.609375 95.953125 C 5.519531 95.765625 5.429688 95.792969 5.101562 96.097656 C 4.746094 96.433594 4.398438 96.617188 3.878906 96.75 C 3.582031 96.824219 3.390625 96.839844 2.808594 96.839844 C 1.613281 96.84375 1.324219 96.679688 1.226562 95.925781 C 1.183594 95.574219 0.96875 95.453125 0.792969 95.679688 C 0.609375 95.914062 0.5 96.621094 0.574219 97.097656 C 0.691406 97.835938 1.03125 98.199219 1.742188 98.351562 C 2.328125 98.476562 3.304688 98.398438 3.917969 98.175781 C 4.261719 98.054688 4.4375 97.957031 4.691406 97.753906 L 4.863281 97.613281 L 4.925781 97.734375 C 5.015625 97.90625 5.257812 98.105469 5.441406 98.164062 C 5.546875 98.195312 5.84375 98.207031 6.285156 98.195312 C 6.929688 98.179688 6.984375 98.171875 7.222656 98.0625 C 7.523438 97.921875 7.828125 97.632812 7.945312 97.363281 C 8.132812 96.929688 8.132812 96.210938 7.941406 95.726562 C 7.859375 95.515625 7.667969 95.207031 7.515625 95.035156 C 7.472656 94.984375 7.445312 94.925781 7.464844 94.910156 C 7.480469 94.894531 7.808594 94.773438 8.1875 94.648438 L 8.882812 94.417969 L 8.929688 94.023438 C 9.042969 93.035156 9.039062 93.101562 8.957031 93.105469 C 8.917969 93.109375 8.296875 93.304688 7.578125 93.542969 M 125.414062 93.554688 L 124.082031 94 L 123.992188 94.480469 C 123.851562 95.238281 123.8125 95.136719 124.457031 95.785156 C 125.179688 96.515625 125.183594 96.566406 124.539062 96.652344 C 123.480469 96.789062 122.46875 96.742188 122.066406 96.539062 C 121.765625 96.386719 121.6875 96.273438 121.648438 95.90625 C 121.613281 95.578125 121.5625 95.484375 121.417969 95.484375 C 121.144531 95.484375 120.890625 96.375 120.980469 97.007812 C 121.078125 97.726562 121.457031 98.085938 122.277344 98.25 C 122.628906 98.320312 124.160156 98.320312 124.515625 98.25 C 125.398438 98.074219 125.820312 97.660156 125.9375 96.855469 C 126.027344 96.246094 125.871094 95.667969 125.480469 95.152344 C 125.386719 95.027344 125.324219 94.910156 125.339844 94.894531 C 125.355469 94.878906 125.660156 94.777344 126.015625 94.667969 C 126.371094 94.558594 126.683594 94.449219 126.714844 94.421875 C 126.746094 94.390625 126.792969 94.144531 126.828125 93.808594 C 126.90625 93.09375 126.90625 93.101562 126.816406 93.105469 C 126.777344 93.109375 126.144531 93.3125 125.414062 93.554688 M 19.542969 93.386719 C 19.410156 93.519531 19.304688 93.648438 19.304688 93.671875 C 19.304688 93.695312 19.414062 93.8125 19.546875 93.929688 L 19.789062 94.140625 L 20.035156 93.894531 L 20.28125 93.644531 L 19.78125 93.144531 L 19.542969 93.386719 M 61.457031 93.578125 C 60.738281 93.816406 60.132812 94.03125 60.109375 94.054688 C 60.082031 94.082031 60.019531 94.363281 59.96875 94.679688 L 59.878906 95.253906 L 60.433594 95.84375 C 60.742188 96.171875 60.992188 96.453125 60.992188 96.476562 C 60.992188 96.566406 60.820312 96.582031 59.699219 96.613281 C 58.515625 96.648438 58.210938 96.6875 57.730469 96.867188 C 57.382812 96.996094 57.117188 97.191406 57 97.40625 C 56.875 97.636719 56.859375 97.925781 56.96875 98.09375 C 57.097656 98.289062 57.28125 98.339844 57.996094 98.359375 C 58.96875 98.390625 58.992188 98.484375 58.054688 98.582031 C 56.996094 98.691406 56.128906 98.566406 55.789062 98.261719 C 55.5625 98.050781 55.523438 97.90625 55.558594 97.34375 C 55.585938 96.898438 55.582031 96.863281 55.5 96.785156 C 55.289062 96.570312 55.035156 96.777344 54.859375 97.308594 C 54.699219 97.800781 54.652344 98.175781 54.707031 98.5625 C 54.847656 99.582031 55.453125 99.972656 56.894531 99.96875 C 58.40625 99.964844 59.179688 99.515625 59.230469 98.597656 C 59.253906 98.226562 59.171875 98.058594 58.898438 97.914062 C 58.738281 97.832031 58.625 97.8125 58.175781 97.796875 C 57.59375 97.773438 57.46875 97.742188 57.613281 97.664062 C 57.847656 97.539062 58.753906 97.574219 59.035156 97.722656 C 59.101562 97.753906 59.261719 97.878906 59.394531 97.996094 L 59.636719 98.210938 L 60.242188 98.191406 C 60.714844 98.175781 60.898438 98.15625 61.085938 98.085938 C 61.367188 97.984375 61.617188 97.796875 61.738281 97.597656 L 61.828125 97.453125 L 61.992188 97.621094 C 62.203125 97.832031 62.621094 98.105469 62.816406 98.160156 C 63.03125 98.21875 73.894531 98.21875 74.109375 98.15625 C 74.195312 98.132812 74.339844 98.042969 74.425781 97.953125 L 74.585938 97.792969 L 74.726562 97.941406 C 74.949219 98.175781 75.054688 98.203125 75.769531 98.203125 C 76.484375 98.199219 76.648438 98.15625 76.851562 97.914062 L 76.964844 97.777344 L 77.074219 97.910156 C 77.265625 98.136719 77.453125 98.203125 77.910156 98.203125 L 78.3125 98.203125 L 78.703125 97.796875 L 78.773438 97.917969 C 78.859375 98.0625 79.128906 98.199219 79.332031 98.203125 C 79.53125 98.203125 79.738281 98.089844 79.839844 97.925781 L 79.925781 97.785156 L 80.03125 97.910156 C 80.199219 98.113281 80.4375 98.214844 80.679688 98.191406 C 80.84375 98.175781 80.914062 98.144531 81.042969 98.015625 C 81.371094 97.695312 81.570312 96.984375 81.53125 96.28125 C 81.507812 95.882812 81.390625 95.398438 81.3125 95.371094 C 81.285156 95.363281 81.160156 95.480469 81.027344 95.632812 L 80.785156 95.910156 L 80.871094 96.179688 C 80.988281 96.535156 80.929688 96.65625 80.648438 96.65625 C 80.425781 96.65625 80.339844 96.570312 80.25 96.273438 C 80.203125 96.117188 80.136719 95.960938 80.101562 95.925781 C 79.945312 95.765625 79.742188 95.933594 79.691406 96.261719 C 79.660156 96.488281 79.550781 96.613281 79.386719 96.613281 C 79.203125 96.613281 79.0625 96.476562 79.007812 96.242188 C 78.957031 96.035156 78.835938 95.859375 78.742188 95.859375 C 78.632812 95.859375 78.546875 95.972656 78.453125 96.234375 C 78.339844 96.5625 78.261719 96.613281 77.882812 96.609375 C 77.378906 96.609375 77.28125 96.535156 77.152344 96.0625 C 77.085938 95.808594 77 95.722656 76.851562 95.761719 C 76.757812 95.789062 76.714844 95.859375 76.589844 96.207031 C 76.457031 96.570312 76.402344 96.59375 75.691406 96.59375 C 74.925781 96.59375 74.902344 96.578125 74.761719 96.050781 C 74.707031 95.839844 74.679688 95.796875 74.566406 95.761719 C 74.433594 95.71875 74.332031 95.839844 74.222656 96.167969 C 74.066406 96.640625 74.710938 96.589844 68.480469 96.605469 C 64.628906 96.613281 62.988281 96.605469 62.835938 96.574219 C 62.71875 96.546875 62.53125 96.460938 62.421875 96.382812 C 62.195312 96.222656 61.144531 95.0625 61.191406 95.019531 C 61.207031 95.003906 61.554688 94.875 61.96875 94.734375 C 62.378906 94.59375 62.730469 94.464844 62.746094 94.449219 C 62.761719 94.433594 62.792969 94.191406 62.820312 93.917969 C 62.84375 93.640625 62.875 93.355469 62.886719 93.28125 C 62.902344 93.167969 62.894531 93.144531 62.832031 93.148438 C 62.792969 93.148438 62.171875 93.34375 61.457031 93.578125 M 83.277344 93.71875 L 83.039062 93.960938 L 83.28125 94.199219 C 83.414062 94.332031 83.542969 94.441406 83.566406 94.441406 C 83.59375 94.441406 83.714844 94.324219 83.832031 94.1875 L 84.050781 93.929688 L 83.804688 93.707031 C 83.671875 93.582031 83.550781 93.480469 83.539062 93.480469 C 83.527344 93.480469 83.410156 93.585938 83.277344 93.71875 M 30.324219 94.140625 C 30.1875 94.273438 30.078125 94.410156 30.078125 94.445312 C 30.078125 94.476562 30.203125 94.625 30.351562 94.773438 L 30.621094 95.042969 L 30.890625 94.773438 C 31.039062 94.625 31.160156 94.484375 31.160156 94.460938 C 31.160156 94.40625 30.65625 93.894531 30.601562 93.894531 C 30.582031 93.894531 30.457031 94.007812 30.324219 94.140625 M 73.410156 94.1875 L 73.160156 94.441406 L 73.679688 94.960938 L 73.882812 94.757812 L 74.089844 94.554688 L 74.320312 94.75 L 74.550781 94.949219 L 74.78125 94.730469 C 74.90625 94.609375 75.011719 94.480469 75.011719 94.441406 C 75.011719 94.402344 74.898438 94.269531 74.757812 94.148438 L 74.503906 93.925781 L 74.300781 94.128906 L 74.097656 94.328125 L 73.890625 94.132812 C 73.777344 94.027344 73.675781 93.9375 73.667969 93.9375 C 73.664062 93.9375 73.542969 94.050781 73.410156 94.1875 M 19.054688 94.210938 L 18.828125 94.441406 L 19.054688 94.667969 C 19.179688 94.796875 19.300781 94.898438 19.324219 94.898438 C 19.34375 94.898438 19.453125 94.8125 19.5625 94.703125 L 19.757812 94.507812 L 20.226562 94.953125 L 20.453125 94.730469 C 20.574219 94.605469 20.675781 94.476562 20.675781 94.4375 C 20.675781 94.375 20.261719 93.980469 20.191406 93.980469 C 20.175781 93.980469 20.070312 94.070312 19.960938 94.175781 L 19.761719 94.375 L 19.5625 94.175781 C 19.453125 94.070312 19.34375 93.980469 19.324219 93.980469 C 19.300781 93.980469 19.179688 94.082031 19.054688 94.210938 M 105.246094 94.429688 C 105.113281 94.5625 105.007812 94.691406 105.007812 94.714844 C 105.007812 94.773438 105.519531 95.277344 105.578125 95.277344 C 105.632812 95.277344 106.085938 94.773438 106.089844 94.710938 C 106.089844 94.644531 105.613281 94.1875 105.542969 94.1875 C 105.511719 94.1875 105.375 94.296875 105.246094 94.429688 M 82.839844 94.492188 C 82.722656 94.613281 82.625 94.734375 82.625 94.757812 C 82.625 94.808594 83.050781 95.234375 83.105469 95.234375 C 83.128906 95.234375 83.238281 95.140625 83.351562 95.023438 L 83.558594 94.816406 L 83.996094 95.253906 L 84.226562 95.023438 C 84.351562 94.898438 84.453125 94.777344 84.453125 94.753906 C 84.453125 94.695312 84.027344 94.273438 83.96875 94.273438 C 83.945312 94.273438 83.839844 94.363281 83.734375 94.476562 L 83.546875 94.679688 L 83.347656 94.476562 C 83.238281 94.363281 83.128906 94.273438 83.101562 94.273438 C 83.078125 94.273438 82.960938 94.371094 82.839844 94.492188 M 2.214844 94.535156 C 2.09375 94.65625 1.996094 94.773438 1.996094 94.796875 C 1.996094 94.820312 2.109375 94.949219 2.242188 95.082031 L 2.488281 95.328125 L 2.699219 95.101562 L 2.910156 94.878906 L 3.109375 95.078125 C 3.21875 95.1875 3.328125 95.277344 3.351562 95.277344 C 3.375 95.277344 3.496094 95.171875 3.621094 95.046875 L 3.847656 94.816406 L 3.589844 94.554688 L 3.332031 94.296875 L 2.917969 94.703125 L 2.703125 94.507812 C 2.585938 94.402344 2.476562 94.3125 2.460938 94.3125 C 2.445312 94.3125 2.335938 94.414062 2.214844 94.535156 M 43.765625 94.808594 C 43.707031 94.890625 43.539062 95.136719 43.394531 95.347656 L 43.128906 95.730469 L 43.449219 96.070312 C 43.765625 96.410156 43.828125 96.539062 43.703125 96.589844 C 43.578125 96.636719 42.238281 96.613281 42.011719 96.5625 L 41.789062 96.507812 L 42.082031 96.488281 L 42.371094 96.46875 L 42.550781 95.890625 C 42.652344 95.570312 42.722656 95.285156 42.710938 95.25 C 42.691406 95.207031 42.59375 95.191406 42.28125 95.191406 C 41.796875 95.191406 41.527344 95.136719 40.738281 94.882812 C 40.070312 94.667969 39.820312 94.644531 39.566406 94.773438 C 39.140625 94.992188 38.683594 95.953125 38.855469 96.273438 C 38.929688 96.414062 39.101562 96.386719 39.332031 96.195312 C 39.507812 96.050781 39.558594 96.027344 39.742188 96.027344 C 39.960938 96.027344 40.773438 96.226562 40.773438 96.28125 C 40.773438 96.316406 40.292969 96.46875 40.003906 96.53125 C 39.722656 96.585938 38.550781 96.632812 38.3125 96.597656 C 38.015625 96.550781 37.953125 96.46875 37.84375 95.976562 C 37.828125 95.914062 37.769531 95.832031 37.714844 95.792969 C 37.554688 95.691406 37.4375 95.789062 37.339844 96.105469 C 37.25 96.414062 37.164062 96.511719 36.945312 96.570312 C 36.835938 96.601562 35.972656 96.613281 34.328125 96.605469 C 31.464844 96.589844 31.691406 96.628906 31.566406 96.132812 C 31.484375 95.804688 31.460938 95.765625 31.304688 95.765625 C 31.164062 95.765625 31.09375 95.855469 31.007812 96.148438 C 30.890625 96.5625 30.710938 96.640625 30.003906 96.605469 C 29.574219 96.582031 29.496094 96.546875 29.089844 96.171875 C 28.921875 96.019531 28.78125 95.898438 28.773438 95.910156 C 28.765625 95.917969 28.625 96.195312 28.457031 96.523438 L 28.160156 97.125 L 28.476562 97.449219 C 28.882812 97.855469 28.972656 97.992188 28.917969 98.128906 C 28.839844 98.339844 28.066406 98.9375 27.332031 99.355469 C 26.894531 99.605469 26.835938 99.65625 26.835938 99.773438 C 26.835938 99.988281 26.886719 100 27.9375 100 L 28.90625 100 L 29.019531 99.867188 C 29.292969 99.542969 29.582031 98.796875 29.582031 98.421875 L 29.582031 98.179688 L 30.183594 98.195312 C 30.738281 98.207031 30.804688 98.199219 30.976562 98.117188 C 31.082031 98.066406 31.207031 97.972656 31.253906 97.902344 L 31.34375 97.78125 L 31.511719 97.949219 C 31.605469 98.039062 31.734375 98.132812 31.796875 98.15625 C 31.875 98.1875 32.78125 98.203125 34.503906 98.203125 C 36.949219 98.199219 37.097656 98.195312 37.261719 98.121094 C 37.359375 98.078125 37.488281 97.984375 37.550781 97.914062 L 37.664062 97.785156 L 37.820312 97.949219 C 38.046875 98.183594 38.1875 98.214844 38.875 98.191406 C 39.292969 98.175781 39.53125 98.144531 39.710938 98.085938 C 40.136719 97.949219 40.546875 97.714844 40.832031 97.445312 C 40.984375 97.304688 41.113281 97.195312 41.117188 97.203125 C 41.125 97.210938 41.164062 97.308594 41.203125 97.417969 C 41.304688 97.691406 41.597656 98.003906 41.855469 98.117188 C 42.058594 98.203125 42.121094 98.207031 42.847656 98.195312 C 43.582031 98.183594 43.632812 98.175781 43.855469 98.070312 C 44.257812 97.882812 44.4375 97.5625 44.519531 96.898438 C 44.59375 96.277344 44.523438 95.695312 44.316406 95.222656 C 44.210938 94.980469 43.976562 94.648438 43.914062 94.652344 C 43.890625 94.652344 43.824219 94.722656 43.765625 94.808594 M 25.089844 95.15625 C 24.773438 95.316406 24.535156 95.597656 24.273438 96.132812 C 23.988281 96.71875 23.890625 97.269531 24.027344 97.53125 C 24.167969 97.804688 24.367188 97.875 25.289062 97.976562 C 25.648438 98.015625 25.957031 98.0625 25.976562 98.078125 C 26.078125 98.171875 25.417969 98.351562 24.75 98.414062 C 23.902344 98.492188 23.167969 98.355469 22.894531 98.066406 C 22.675781 97.832031 22.660156 97.777344 22.691406 97.222656 C 22.707031 96.945312 22.710938 96.6875 22.695312 96.648438 C 22.679688 96.609375 22.613281 96.554688 22.542969 96.527344 C 22.433594 96.484375 22.40625 96.488281 22.308594 96.558594 C 22.0625 96.742188 21.820312 97.691406 21.855469 98.347656 C 21.878906 98.816406 21.992188 99.132812 22.234375 99.402344 C 22.542969 99.75 22.949219 99.914062 23.652344 99.976562 C 24.046875 100.015625 24.777344 99.933594 25.167969 99.808594 C 26.097656 99.515625 26.5625 98.847656 26.5625 97.804688 C 26.5625 97.5 26.542969 97.394531 26.472656 97.257812 C 26.332031 96.996094 26.230469 96.949219 25.5625 96.859375 C 24.664062 96.738281 24.601562 96.695312 24.960938 96.425781 C 25.253906 96.210938 25.84375 96.203125 26.273438 96.414062 C 26.511719 96.53125 26.5625 96.488281 26.5625 96.164062 C 26.558594 95.761719 26.261719 95.285156 25.90625 95.113281 C 25.644531 94.984375 25.402344 95 25.089844 95.15625 M 101.984375 95.09375 C 101.398438 95.300781 100.761719 96.417969 100.761719 97.234375 C 100.761719 97.460938 100.777344 97.507812 100.890625 97.636719 C 101.058594 97.824219 101.269531 97.886719 102.074219 97.976562 C 102.910156 98.066406 102.957031 98.117188 102.339844 98.285156 C 101.863281 98.414062 101.164062 98.46875 100.675781 98.414062 C 100.183594 98.359375 99.847656 98.242188 99.660156 98.050781 C 99.457031 97.847656 99.417969 97.660156 99.480469 97.160156 C 99.523438 96.789062 99.523438 96.738281 99.460938 96.640625 C 99.351562 96.472656 99.199219 96.453125 99.054688 96.59375 C 98.839844 96.800781 98.640625 97.589844 98.640625 98.238281 C 98.640625 99.324219 99.207031 99.875 100.429688 99.976562 C 100.792969 100.007812 101.46875 99.945312 101.824219 99.851562 C 102.226562 99.746094 102.570312 99.554688 102.816406 99.292969 C 103.191406 98.898438 103.339844 98.484375 103.34375 97.84375 C 103.34375 97.453125 103.292969 97.269531 103.144531 97.105469 C 103.007812 96.957031 102.894531 96.925781 102.242188 96.84375 C 101.667969 96.773438 101.542969 96.730469 101.5625 96.621094 C 101.582031 96.503906 101.941406 96.292969 102.164062 96.265625 C 102.414062 96.230469 102.78125 96.289062 103.035156 96.402344 C 103.285156 96.515625 103.34375 96.472656 103.34375 96.167969 C 103.34375 95.902344 103.273438 95.71875 103.070312 95.441406 C 102.804688 95.078125 102.394531 94.949219 101.984375 95.09375 M 20.832031 95.632812 L 20.589844 95.902344 L 20.683594 96.195312 C 20.773438 96.476562 20.773438 96.488281 20.699219 96.570312 C 20.613281 96.667969 20.410156 96.683594 20.242188 96.605469 C 20.160156 96.570312 20.121094 96.5 20.070312 96.324219 C 19.972656 95.96875 19.941406 95.90625 19.824219 95.878906 C 19.664062 95.839844 19.566406 95.957031 19.507812 96.246094 C 19.453125 96.515625 19.363281 96.613281 19.171875 96.613281 C 19.003906 96.613281 18.863281 96.457031 18.785156 96.183594 C 18.738281 96.007812 18.691406 95.929688 18.621094 95.898438 C 18.46875 95.828125 18.378906 95.90625 18.265625 96.222656 C 18.191406 96.421875 18.128906 96.523438 18.054688 96.558594 C 17.917969 96.628906 12.339844 96.636719 12.09375 96.570312 C 11.988281 96.539062 11.828125 96.421875 11.609375 96.214844 C 11.433594 96.042969 11.269531 95.902344 11.25 95.902344 C 11.226562 95.902344 11.074219 96.175781 10.910156 96.511719 L 10.609375 97.117188 L 10.9375 97.441406 C 11.285156 97.789062 11.417969 97.992188 11.378906 98.117188 C 11.316406 98.316406 10.230469 99.144531 9.640625 99.441406 C 9.359375 99.582031 9.277344 99.65625 9.277344 99.773438 C 9.277344 99.988281 9.332031 100 10.378906 100 L 11.351562 100 L 11.460938 99.867188 C 11.605469 99.695312 11.871094 99.160156 11.957031 98.875 C 11.992188 98.75 12.023438 98.542969 12.023438 98.414062 L 12.023438 98.179688 L 15.03125 98.195312 C 18.382812 98.207031 18.210938 98.222656 18.394531 97.921875 L 18.480469 97.78125 L 18.578125 97.921875 C 18.832031 98.296875 19.464844 98.285156 19.660156 97.90625 L 19.726562 97.773438 L 19.792969 97.867188 C 19.828125 97.917969 19.941406 98.015625 20.046875 98.082031 C 20.539062 98.394531 20.976562 98.109375 21.230469 97.304688 C 21.355469 96.894531 21.363281 95.957031 21.238281 95.613281 C 21.191406 95.488281 21.136719 95.378906 21.113281 95.371094 C 21.089844 95.367188 20.964844 95.480469 20.832031 95.632812 M 135.941406 95.621094 C 135.8125 95.765625 135.710938 95.902344 135.710938 95.929688 C 135.710938 95.953125 135.738281 96.054688 135.773438 96.152344 C 135.898438 96.515625 135.832031 96.65625 135.535156 96.65625 C 135.320312 96.65625 135.222656 96.5625 135.164062 96.296875 C 135.105469 96.03125 134.992188 95.859375 134.878906 95.859375 C 134.761719 95.859375 134.636719 96.050781 134.605469 96.265625 C 134.570312 96.492188 134.464844 96.613281 134.304688 96.613281 C 134.085938 96.613281 133.992188 96.527344 133.914062 96.253906 C 133.769531 95.769531 133.542969 95.738281 133.382812 96.183594 C 133.332031 96.316406 133.285156 96.449219 133.277344 96.476562 C 133.265625 96.507812 133.207031 96.550781 133.148438 96.574219 C 132.984375 96.636719 130.164062 96.625 129.953125 96.5625 C 129.835938 96.527344 129.679688 96.414062 129.464844 96.207031 C 129.289062 96.039062 129.132812 95.902344 129.109375 95.902344 C 129.089844 95.902344 128.9375 96.179688 128.769531 96.515625 L 128.464844 97.125 L 128.714844 97.351562 C 128.996094 97.605469 129.261719 97.949219 129.261719 98.054688 C 129.261719 98.253906 128.1875 99.09375 127.46875 99.457031 C 127.171875 99.609375 127.09375 99.734375 127.195312 99.894531 L 127.265625 100 L 129.210938 100 L 129.339844 99.851562 C 129.480469 99.695312 129.765625 99.117188 129.839844 98.851562 C 129.863281 98.757812 129.882812 98.570312 129.886719 98.433594 L 129.886719 98.179688 L 133.265625 98.179688 L 133.4375 97.988281 L 133.609375 97.800781 L 133.691406 97.921875 C 133.824219 98.121094 134.027344 98.210938 134.292969 98.191406 C 134.492188 98.175781 134.535156 98.15625 134.679688 97.996094 L 134.84375 97.824219 L 135.007812 97.972656 C 135.679688 98.582031 136.339844 97.953125 136.441406 96.613281 C 136.476562 96.148438 136.328125 95.359375 136.207031 95.359375 C 136.1875 95.359375 136.070312 95.476562 135.941406 95.621094 M 49.617188 95.460938 C 49.53125 95.496094 49.40625 95.570312 49.34375 95.632812 C 49.050781 95.914062 48.835938 96.558594 48.828125 97.195312 C 48.824219 97.542969 48.835938 97.625 48.925781 97.804688 C 49.066406 98.085938 49.269531 98.1875 49.800781 98.234375 L 50.195312 98.269531 L 50.007812 98.449219 C 49.765625 98.683594 49.070312 99.144531 48.582031 99.394531 C 48.171875 99.609375 48.136719 99.636719 48.136719 99.777344 C 48.132812 99.988281 48.191406 100 49.234375 100 C 50.183594 100 50.203125 100 50.285156 99.90625 C 50.542969 99.621094 50.738281 99.15625 50.84375 98.574219 C 50.929688 98.109375 50.917969 96.875 50.828125 96.53125 C 50.65625 95.90625 50.402344 95.539062 50.0625 95.445312 C 49.863281 95.390625 49.816406 95.390625 49.617188 95.460938 M 97.289062 95.910156 C 96.894531 96.273438 96.523438 97.042969 96.519531 97.492188 C 96.519531 98.140625 97.21875 98.453125 97.59375 97.972656 C 97.855469 97.636719 97.6875 97.039062 97.3125 96.964844 C 97.203125 96.941406 97.1875 96.921875 97.210938 96.847656 C 97.253906 96.703125 97.394531 96.441406 97.542969 96.222656 C 97.703125 95.992188 97.722656 95.84375 97.605469 95.777344 C 97.492188 95.71875 97.496094 95.714844 97.289062 95.910156 M 83.714844 95.957031 C 83.6875 95.988281 83.550781 96.257812 83.402344 96.558594 L 83.136719 97.109375 L 83.503906 97.484375 C 83.703125 97.695312 83.882812 97.910156 83.894531 97.96875 C 83.933594 98.117188 83.816406 98.292969 83.519531 98.53125 C 83.167969 98.820312 82.488281 99.269531 82.15625 99.441406 C 81.824219 99.609375 81.742188 99.730469 81.847656 99.894531 L 81.917969 100 L 83.875 100 L 84.019531 99.84375 C 84.382812 99.445312 84.578125 98.867188 84.609375 98.097656 C 84.648438 97.171875 84.488281 96.628906 84.042969 96.144531 C 83.808594 95.886719 83.78125 95.871094 83.714844 95.957031 M 105.246094 96.507812 L 104.945312 97.113281 L 105.261719 97.4375 C 105.804688 98 105.820312 98.0625 105.492188 98.386719 C 105.242188 98.632812 104.445312 99.1875 103.957031 99.453125 C 103.65625 99.617188 103.632812 99.640625 103.632812 99.765625 C 103.632812 99.839844 103.65625 99.921875 103.683594 99.949219 C 103.71875 99.984375 104.003906 100 104.707031 100 L 105.683594 100 L 105.816406 99.855469 C 106.007812 99.652344 106.152344 99.394531 106.28125 99.011719 C 106.375 98.734375 106.394531 98.589844 106.410156 98.09375 C 106.433594 97.398438 106.382812 97.019531 106.210938 96.65625 C 106.101562 96.421875 105.667969 95.902344 105.582031 95.902344 C 105.5625 95.902344 105.410156 96.175781 105.246094 96.507812 M 49.558594 96.679688 C 49.453125 96.753906 49.4375 96.886719 49.53125 96.921875 C 49.617188 96.957031 50.109375 96.957031 50.144531 96.921875 C 50.191406 96.875 50.125 96.78125 49.988281 96.699219 C 49.824219 96.597656 49.683594 96.589844 49.558594 96.679688 M 86.332031 96.664062 C 86.277344 96.695312 86.210938 96.75 86.183594 96.792969 C 86.117188 96.90625 86.21875 96.945312 86.570312 96.949219 C 86.828125 96.949219 86.871094 96.9375 86.859375 96.878906 C 86.828125 96.710938 86.496094 96.578125 86.332031 96.664062 M 36.507812 98.996094 L 36.257812 99.25 L 36.519531 99.507812 L 36.777344 99.769531 L 36.984375 99.5625 L 37.195312 99.355469 L 37.609375 99.769531 L 37.871094 99.507812 L 38.128906 99.246094 L 37.609375 98.726562 L 37.390625 98.945312 L 37.175781 99.164062 L 36.964844 98.953125 L 36.753906 98.746094 L 36.507812 98.996094 M 40.523438 99.019531 L 40.257812 99.296875 L 40.546875 99.585938 C 40.703125 99.746094 40.839844 99.875 40.847656 99.875 C 40.886719 99.875 41.394531 99.355469 41.394531 99.3125 C 41.394531 99.253906 40.886719 98.746094 40.828125 98.746094 C 40.804688 98.746094 40.667969 98.871094 40.523438 99.019531 M 75.78125 98.996094 L 75.53125 99.25 L 75.792969 99.507812 L 76.050781 99.769531 L 76.460938 99.359375 L 76.695312 99.5625 L 76.929688 99.761719 L 77.175781 99.515625 C 77.3125 99.382812 77.425781 99.257812 77.425781 99.242188 C 77.425781 99.226562 77.300781 99.105469 77.152344 98.976562 L 76.878906 98.734375 L 76.671875 98.933594 L 76.46875 99.136719 L 76.261719 98.941406 C 76.148438 98.832031 76.046875 98.746094 76.042969 98.746094 C 76.035156 98.746094 75.917969 98.859375 75.78125 98.996094 "/>
</g>
</svg>
